<ttFont>
          <CharString index="0">
            rmoveto
            26 111 35 181 103 vvcurveto
            101 -43 104 -178 -136 -85 -70 -56 -20 vhcurveto
            -58 21 56 -35 88 hhcurveto
            73 2 29 42 29 hhcurveto
            41 6 -65 -97 1 hvcurveto
            1 -15 -20 0 -37 hhcurveto
            -164 -67 -53 -89 -94 73 -59 110 40 33 7 12 27 hvcurveto
            -1 -14 -2 -14 -2 -14 rrcurveto
            -10 47 57 -7 49 hhcurveto
            -185 131 rmoveto
            -31 -16 17 31 43 29 24 73 4 hvcurveto
            -1 -33 -3 -35 -4 -39 rrcurveto
            -8 -14 -14 -4 -19 hhcurveto
            endchar
          </CharString>
          <CharString index="1">
            16 5 18 5 16 hvcurveto
            10 -25 -37 7 -37 hhcurveto
            -17 -34 -12 -41 -44 vvcurveto
            return
          </CharString>
          <CharString index="2">
            rmoveto
            151 261 22 11 35 hvcurveto
            48 -8 77 -11 30 vhcurveto
            -13 -65 -160 -19 -37 hhcurveto
            -5 53 -3 58 -1 59 rrcurveto
            9 74 76 5 callsubr
            1 49 1 46 3 41 rrcurveto
            5 81 81 3 79 hhcurveto
            9 43 10 60 62 vvcurveto
            -174 -154 -23 -31 -162 hvcurveto
            3 -214 37 -334 28 -176 rrcurveto
            endchar
          </CharString>
          <CharString index="3">
            6 275 callsubr
            28 0 24 -3 23 -21 callgsubr
            return
          </CharString>
          <CharString index="4">
            126 callsubr
            -36 callsubr
            89 callsubr
            91 -68 65 -116 -154 -139 -169 -193 -123 67 -102 316 callgsubr
            endchar
          </CharString>
          <CharString index="5">
            rmoveto
            112 -22 108 -17 80 vhcurveto
            -57 -95 -13 -25 -59 hvcurveto
            9 -39 32 -138 -147 vvcurveto
            -146 -13 -154 -50 -37 -15 115 140 102 11 111 17 101 vhcurveto
            9 -15 -29 6 -44 hhcurveto
            -39 -39 -6 -6 -22 hvcurveto
            -19 -35 -36 -161 -161 vvcurveto
            -172 51 -173 185 252 51 267 225 vhcurveto
            endchar
          </CharString>
          <CharString index="6">
            rrcurveto
            -104 callsubr
            return
          </CharString>
          <CharString index="7">
            rmoveto
            195 -94 106 -157 -210 -133 -175 -235 -174 69 -169 185 263 77 289 163 vhcurveto
            -209 -55 rmoveto
            -113 -7 -154 -82 -73 -18 132 109 151 31 101 64 62 23 -63 -163 vhcurveto
            endchar
          </CharString>
          <CharString index="8">
            hvcurveto
            -7 -10 -4 -25 0 -26 0 -29 5 -29 -16 flex1
            return
          </CharString>
          <CharString index="9">
            rmoveto
            -177 -116 -137 -183 -123 55 -120 149 227 68 225 127 137 -77 74 -129 hvcurveto
            -43 -115 rmoveto
            33 17 -42 -109 -74 -11 -108 -42 -37 -15 88 68 106 23 71 32 hvcurveto
            endchar
          </CharString>
          <CharString index="10">
            vvcurveto
            44 -16 39 -27 33 vhcurveto
            26 -4 23 -4 20 -4 6 callgsubr
            -67 -106 16 -135 hhcurveto
            -136 -98 -16 -19 -74 224 callgsubr
            -25 0 -28 5 -30 -17 flex1
            54 11 63 11 77 5 rrcurveto
            33 -14 26 -16 -27 vvcurveto
            -7 -1 -6 -2 -4 vhcurveto
            28 -24 -34 16 -36 hhcurveto
            -71 -49 -57 -79 -84 63 -46 65 43 39 19 36 26 hvcurveto
            return
          </CharString>
          <CharString index="11">
            -17 -31 -2 -14 hhcurveto
            -26 -19 -94 callsubr
            63 -49 100 vhcurveto
            32 28 2 29 hhcurveto
            return
          </CharString>
          <CharString index="12">
            -22 callgsubr
            -103 -103 -14 -17 -76 hvcurveto
            -8 -16 -30 callgsubr
            -28 387 callsubr
            77 99 13 102 hhcurveto
            return
          </CharString>
          <CharString index="13">
            14 21 -106 callsubr
            -75 return
          </CharString>
          <CharString index="14">
            38 54 54 23 40 hhcurveto
            8 5 -4 -10 -17 -33 -33 -119 -50 hvcurveto
            22 -40 24 -39 43 -31 rrcurveto
            88 45 63 82 52 -29 callsubr
            return
          </CharString>
          <CharString index="15">
            rmoveto
            -47 4 -27 -2 -56 -7 1 -63 -4 -49 -20 -66 32 -10 35 -2 44 1 27 60 12 67 3 67 rrcurveto
            endchar
          </CharString>
          <CharString index="16">
            64 3 74 4 72 vhcurveto
            54 19 26 29 24 hhcurveto
            24 9 -20 -35 -87 -21 -137 -15 -84 hvcurveto
            -11 68 66 -8 60 hhcurveto
            13 48 27 159 126 vvcurveto
            149 -61 51 -81 -63 -48 -32 -52 -36 vhcurveto
            3 34 4 28 3 22 rrcurveto
            6 -28 -26 2 -23 hhcurveto
            -57 -62 -10 -16 -32 hvcurveto
            -170 21 -269 17 -128 vhcurveto
            return
          </CharString>
          <CharString index="17">
            52 50 8 11 33 hvcurveto
            -26 61 -8 56 71 vvcurveto
            24 6 24 3 28 vhcurveto
            return
          </CharString>
          <CharString index="18">
            -92 -46 -59 -80 -91 65 -47 67 -2 hvcurveto
            27 -1 16 5 8 6 rrcurveto
            13 30 10 51 42 vvcurveto
            -16 -22 -19 -5 -25 hhcurveto
            -30 -32 10 16 13 21 10 34 return
          </CharString>
          <CharString index="19">
            -4 -87 callsubr
            return
          </CharString>
          <CharString index="20">
            17 -4 -95 callsubr
            return
          </CharString>
          <CharString index="21">
            hhcurveto
            -18 -12 9 23 15 4 22 10 23 hvcurveto
            -27 9 -38 5 -47 1 rrcurveto
            -17 -42 -11 -50 -43 vvcurveto
            -86 47 -51 73 vhcurveto
            return
          </CharString>
          <CharString index="22">
            rmoveto
            194 vlineto
            76 0 83 1 78 vhcurveto
            72 -113 52 -118 67 -163 67 3 59 9 55 9 rrcurveto
            11 144 9 189 183 vvcurveto
            73 -2 72 -3 68 vhcurveto
            -75 -69 -14 -19 -60 hvcurveto
            14 -89 5 -138 -139 vvcurveto
            -57 139 -61 106 -72 104 -77 -3 -69 -18 -50 -26 -7 -3 -6 -4 -6 -4 rrcurveto
            -215 22 -296 16 -188 vhcurveto
            57 74 10 10 33 hvcurveto
            return
          </CharString>
          <CharString index="23">
            rmoveto
            14 148 8 219 171 vvcurveto
            57 -1 52 -2 42 vhcurveto
            9 -35 -25 3 -36 hhcurveto
            -55 -43 -16 -18 -27 hvcurveto
            29 -219 7 -253 -215 vvcurveto
            59 73 10 10 34 hvcurveto
            endchar
          </CharString>
          <CharString index="24">
            hvcurveto
            -8 -14 -3 -27 0 -21 0 -26 5 -30 -17 flex1
            return
          </CharString>
          <CharString index="25">
            rmoveto
            37 -19 93 -6 116 20 3 32 -1 34 -2 28 -94 -8 -64 4 -86 12 -5 -22 0 -50 3 -25 rrcurveto
            return
          </CharString>
          <CharString index="26">
            -43 265 -80 274 -129 205 rrcurveto
            14 -57 -46 7 -73 hhcurveto
            -69 -244 -64 -188 -120 -223 33 -42 61 -34 67 -11 return
          </CharString>
          <CharString index="27">
            -60 -86 -24 -47 hhcurveto
            -49 -27 31 40 -26 hvcurveto
            -19 -21 -28 -35 -21 -46 rrcurveto
            -50 32 49 -46 76 hhcurveto
            return
          </CharString>
          <CharString index="28">
            rmoveto
            -17 52 -11 58 -3 52 -38 6 -66 1 -51 -21 8 -59 31 -53 34 -50 rrcurveto
            41 36 4 10 36 hvcurveto
            return
          </CharString>
          <CharString index="29">
            rmoveto
            -23 -18 37 36 9 1 9 3 7 hvcurveto
            32 -15 23 -28 -30 vvcurveto
            -17 -8 -8 -10 vhcurveto
            return
          </CharString>
          <CharString index="30">
            5 16 5 31 0 26 0 23 -4 25 14 flex1
            return
          </CharString>
          <CharString index="31">
            vvcurveto
            123 -73 94 -121 -109 -60 -77 -92 -26 6 -30 11 -27 vhcurveto
            63 -2 47 10 48 27 rrcurveto
            -13 13 -4 11 18 vvcurveto
            24 16 30 31 22 15 -15 -31 -38 -18 -48 -65 -34 vhcurveto
            -96 -50 return
          </CharString>
          <CharString index="32">
            2 20 1 21 1 16 2 -97 callgsubr
            return
          </CharString>
          <CharString index="33">
            -40 callgsubr
            -99 -187 21 -194 hhcurveto
            return
          </CharString>
          <CharString index="34">
            27 -3 23 -5 19 -66 callgsubr
            return
          </CharString>
          <CharString index="35">
            -24 -2 63 80 46 4 52 7 50 hvcurveto
            61 -1 54 4 31 6 rrcurveto
            12 34 7 42 29 vvcurveto
            -40 -5 -53 -2 -55 1 9 51 10 41 6 22 rrcurveto
            18 -50 -86 9 -72 hhcurveto
            -11 -37 -8 -43 -7 -46 -25 4 -20 4 -15 5 rrcurveto
            -16 -24 -7 -46 -36 vvcurveto
            20 -6 24 -5 26 -4 rrcurveto
            -3 -45 -2 -47 -47 vvcurveto
            return
          </CharString>
          <CharString index="36">
            rmoveto
            -42 44 -56 26 -44 7 -78 -240 -160 -316 -136 -231 32 -27 34 -20 48 -10 167 275 124 233 111 259 rrcurveto
            return
          </CharString>
          <CharString index="37">
            -7 -30 139 320 109 24 100 -95 99 hstemhm
            30 195 0 386 -297 222 -215 200 hintmask 00101001
            299 callgsubr
            hintmask 00011001
            144 1 184 7 140 vhcurveto
            hintmask 00010100
            29 2 28 4 25 4 3 32 -1 34 -2 28 rrcurveto
            hintmask 00011010
            -22 -2 -25 -1 -28 -2 rrcurveto
            hintmask 00101010
            2 20 2 18 2 15 rrcurveto
            6 -28 -26 2 -23 hhcurveto
            -57 -62 -10 -16 -32 hvcurveto
            -13 0 -12 -14 vvcurveto
            hintmask 00100100
            -30 1 -30 0 -27 1 -5 -22 0 -50 3 -25 25 -2 31 -2 35 -1 rrcurveto
            hintmask 01100100
            -8 0 -8 1 -9 vhcurveto
            1 -6 -5 0 -4 hhcurveto
            hintmask 11101001
            87 callsubr
            hintmask 00101001
            6 -42 6 -38 7 -32 rrcurveto
            hintmask 11101001
            21 callsubr
          </CharString>
          <CharString index="38">
            rmoveto
            -38 -43 47 113 91 19 48 45 6 6 0 -1 5 hvcurveto
            13 -73 14 -111 -89 vvcurveto
            -8 vlineto
            -11 -8 -10 -6 -9 hhcurveto
            -56 -372 rmoveto
            148 135 100 316 129 -20 159 -17 58 hvcurveto
            15 -54 -71 11 -50 hhcurveto
            -197 -94 -108 -190 -140 81 -99 130 37 29 13 24 24 hvcurveto
            -105 -5 -16 -71 -43 hhcurveto
            -29 -13 37 74 -11 hvcurveto
            -57 -7 -62 -22 -44 -34 rrcurveto
            -41 28 -119 171 vhcurveto
            endchar
          </CharString>
          <CharString index="39">
            35 8 24 8 19 8 rlinecurve
            -5 8 rlineto
            -10 17 -8 13 15 vvcurveto
            11 4 7 12 return
          </CharString>
          <CharString index="40">
            rrcurveto
            6 21 3 28 0 25 0 25 -3 23 13 flex1
            21 -76 -147 14 -127 hhcurveto
            -123 -134 8 callgsubr
            129 11 115 hhcurveto
            return
          </CharString>
          <CharString index="41">
            rmoveto
            148 135 100 316 129 -20 159 -17 58 hvcurveto
            -72 -82 -9 -18 -50 hvcurveto
            13 -42 20 -123 6 -111 rrcurveto
            -35 -15 -19 -20 -25 hhcurveto
            -34 -14 60 55 87 11 66 25 95 hvcurveto
            15 -78 -56 4 -60 hhcurveto
            -28 -104 -14 -72 -102 vvcurveto
            -147 80 -98 97 56 42 26 51 34 vhcurveto
            -132 -3 -13 -96 -50 hhcurveto
            -29 -13 37 74 -11 hvcurveto
            -57 -7 -62 -22 -44 -34 rrcurveto
            -41 28 -119 171 vhcurveto
            endchar
          </CharString>
          <CharString index="42">
            5 -8 8 -8 9 -7 rrcurveto
            6 12 11 3 11 hhcurveto
            20 12 -11 -19 -20 -12 -12 -19 -22 -18 17 25 -8 hvcurveto
            -19 -8 -20 -10 -26 -16 rrcurveto
            return
          </CharString>
          <CharString index="43">
            139 hstemhm
            return
          </CharString>
          <CharString index="44">
            -88 callgsubr
            20 -175 return
          </CharString>
          <CharString index="45">
            26 -17 29 -25 19 vhcurveto
            28 27 26 12 32 hhcurveto
            27 28 -8 -16 25 hvcurveto
            -43 -51 -46 -45 -47 -40 rrcurveto
            return
          </CharString>
          <CharString index="46">
            rmoveto
            -30 117 -14 122 2 127 rrcurveto
            -80 -62 -6 -16 -56 hvcurveto
            3 -42 5 -41 7 -41 rrcurveto
            -45 -19 -32 -26 -37 hhcurveto
            -57 -27 53 135 174 35 107 49 31 16 -37 -89 15 hvcurveto
            75 65 8 20 62 hvcurveto
            131 -11 -78 87 -138 hhcurveto
            -200 -131 -218 -245 -177 90 -105 134 76 64 28 64 53 hvcurveto
            12 -36 14 -35 16 -34 56 3 49 6 43 11 rrcurveto
            return
          </CharString>
          <CharString index="47">
            rmoveto
            52 64 18 25 41 hvcurveto
            -42 126 -36 168 209 return
          </CharString>
          <CharString index="48">
            -56 callgsubr
            18 -68 -111 13 -90 -53 callgsubr
            return
          </CharString>
          <CharString index="49">
            383 rmoveto
            -13 -18 2 7 -17 hvcurveto
            4 13 2 15 15 vvcurveto
            37 -16 35 -29 28 vhcurveto
            26 26 -1 -2 25 hvcurveto
            85 -9 16 -41 -28 vvcurveto
            -33 -32 -38 -59 vhcurveto
            return
          </CharString>
          <CharString index="50">
            hhcurveto
            -132 -146 -17 -18 -73 -83 callsubr
            return
          </CharString>
          <CharString index="51">
            0 -23 0 -28 return
          </CharString>
          <CharString index="52">
            -53 -50 -10 -22 -38 hvcurveto
            -24 -132 -3 -254 18 -127 -15 callgsubr
            return
          </CharString>
          <CharString index="53">
            10 -33 -42 callsubr
            29 26 2 26 hhcurveto
            30 10 -26 -32 12 hvcurveto
            return
          </CharString>
          <CharString index="54">
            56 -27 -67 42 -85 hhcurveto
            -130 -103 -98 -110 3 hvcurveto
            -28 29 60 -29 41 hhcurveto
            -3 11 -1 10 8 vvcurveto
            81 63 56 74 29 20 -10 -19 -13 -4 -12 -8 -11 vhcurveto
            11 -12 -18 8 -20 hhcurveto
            -45 -45 -36 -57 -58 45 -33 50 27 22 11 19 17 hvcurveto
            6 -8 4 -8 -9 vvcurveto
            -34 -33 -16 -41 -153 -160 144 186 -57 vhcurveto
            -30 -12 -36 -15 -24 -21 return
          </CharString>
          <CharString index="55">
            -2 -46 8 -32 16 -20 rrcurveto
            -32 26 39 -12 46 hhcurveto
            55 49 23 44 21 hvcurveto
            13 27 3 23 -1 34 -25 5 -36 -1 -21 -5 rrcurveto
            -39 10 -15 -23 -52 hhcurveto
            -52 -9 26 39 4 hvcurveto
            return
          </CharString>
          <CharString index="56">
            -64 callsubr
            0 return
          </CharString>
          <CharString index="57">
            80 callsubr
            43 2 43 343 callgsubr
            hintmask 10110000
            124 -4 113 -11 75 -14 -13 callgsubr
            21 -81 -154 13 -158 hhcurveto
            hintmask 10101110
            -158 -140 -13 -21 -90 -99 callsubr
            86 16 122 12 143 2 -1 -51 -6 -59 -10 -60 rrcurveto
            hintmask 11101110
            72 -22 -56 71 -94 hhcurveto
            -89 -44 -59 -80 -91 58 -47 59 -2 hvcurveto
            27 -1 16 5 8 6 rrcurveto
            13 30 10 51 42 vvcurveto
            -16 -22 -19 -5 -25 hhcurveto
            -23 -24 10 16 19 20 14 33 92 74 -80 -161 -42 hvcurveto
            33 -24 50 -35 41 -5 179 callsubr
            return
          </CharString>
          <CharString index="58">
            -33 callgsubr
            84 -49 58 -101 rrcurveto
            -1 vlineto
            35 -25 -36 15 -44 hhcurveto
            return
          </CharString>
          <CharString index="59">
            14 -19 34 7 26 9 20 8 rlinecurve
            -8 13 rlineto
            -8 15 -6 12 8 vvcurveto
            11 7 6 11 return
          </CharString>
          <CharString index="60">
            -62 callgsubr
            -1 -4 -1 return
          </CharString>
          <CharString index="61">
            -2 33 -1 39 44 vvcurveto
            41 -23 38 -33 33 -46 51 -3 71 11 35 19 rrcurveto
            -32 92 -18 125 101 vvcurveto
            95 31 118 31 72 vhcurveto
            13 -27 -55 11 -41 hhcurveto
            -40 -112 -29 -128 -170 vvcurveto
            -32 1 -38 3 -38 vhcurveto
            -25 33 -32 30 -34 24 7 145 24 135 51 138 -45 21 -48 13 -50 4 -13 -52 -12 -64 -6 -68 -4 -1 -4 -1 -3 -2 -2 43 -8 35 -10 27 -71 51 rcurveline
            -21 -17 -38 -37 -44 hhcurveto
            -35 -12 26 26 hvcurveto
            1 8 0 10 6 10 -51 1 -51 -9 -38 -24 rrcurveto
            -5 -11 -1 -10 -18 vvcurveto
            -93 48 -62 89 55 51 31 37 34 vhcurveto
            7 -15 5 -16 2 -17 -96 -36 -73 -45 -60 -53 rrcurveto
            -65 17 -45 36 -63 vhcurveto
            return
          </CharString>
          <CharString index="62">
            rmoveto
            -28 -11 12 23 305 callgsubr
            23 13 -12 -30 10 hvcurveto
            -16 -5 -10 -7 -24 hhcurveto
            return
          </CharString>
          <CharString index="63">
            -27 callsubr
            12 callgsubr
            return
          </CharString>
          <CharString index="64">
            rmoveto
            19 46 10 59 62 vvcurveto
            -100 -25 -73 -3 -100 -3 71 96 138 123 73 62 17 36 10 48 5 40 -134 50 -155 19 -148 4 rrcurveto
            -29 -54 -9 -48 -62 vvcurveto
            9 85 114 4 71 hhcurveto
            -92 -67 -106 -98 -97 -117 rrcurveto
            -10 -30 -6 -45 -34 vvcurveto
            109 -47 196 -24 141 -1 rrcurveto
            endchar
          </CharString>
          <CharString index="65">
            -15 -27 -2 -12 -60 callgsubr
            return
          </CharString>
          <CharString index="66">
            hvcurveto
            -6 -15 -3 -23 141 callgsubr
            -17 flex1
            return
          </CharString>
          <CharString index="67">
            15 callgsubr
            -31 -19 flex1
            return
          </CharString>
          <CharString index="68">
            -47 44 -31 49 -4 39 rrcurveto
            3 54 60 2 66 hhcurveto
            127 142 -13 -14 78 hvcurveto
            9 35 4 63 -13 37 rrcurveto
            17 -69 -144 14 -130 hhcurveto
            -176 -136 -14 -17 -91 99 callgsubr
            10 1 10 2 11 1 8 -38 64 -28 53 -27 -126 -133 rcurveline
            4 -57 33 -60 50 -42 return
          </CharString>
          <CharString index="69">
            -3 21 -88 callsubr
            return
          </CharString>
          <CharString index="70">
            rmoveto
            57 81 10 10 33 hvcurveto
            188 4 411 16 173 vhcurveto
            200 callgsubr
            -55 -47 -16 -18 -27 hvcurveto
            -237 17 -327 18 -206 vhcurveto
            return
          </CharString>
          <CharString index="71">
            67 14 25 53 28 hhcurveto
            17 5 -18 -23 -27 -6 -30 -7 -26 hvcurveto
            return
          </CharString>
          <CharString index="72">
            173 527 rmoveto
            3 3 0 3 hhcurveto
            337 -531 rmoveto
            -20 72 -8 102 133 vvcurveto
            68 3 76 4 69 vhcurveto
            26 -4 22 -4 18 -4 9 35 4 63 -13 37 rrcurveto
            17 -55 -121 14 -93 hhcurveto
            -123 -103 -14 -17 -69 99 callgsubr
            10 2 388 callgsubr
            7 -40 66 -28 54 -28 -126 -143 rcurveline
            4 -53 32 -56 49 -39 93 -17 80 -50 61 -96 rrcurveto
            52 71 11 25 45 hvcurveto
            -182 363 rmoveto
            -36 35 -49 46 -31 50 -2 39 rlinecurve
            1 23 24 1 25 hhcurveto
            26 28 -1 -2 28 hvcurveto
            -21 -150 -7 -107 -164 vvcurveto
            -3 vlineto
            -31 44 -41 38 -46 29 rrcurveto
            return
          </CharString>
          <CharString index="73">
            60 -6 53 47 callsubr
            20 -69 -141 200 callsubr
            -133 27 callsubr
            return
          </CharString>
          <CharString index="74">
            hhcurveto
            -11 -11 -1 -2 -10 hvcurveto
            -4 -17 -6 -21 0 -28 0 -22 4 -28 -19 flex1
            hintmask 11011000
            1 4 6 2 11 hhcurveto
            44 7 -31 -53 1 hvcurveto
            hintmask 01011000
            -4 -146 6 -215 15 -131 rrcurveto
            endchar
          </CharString>
          <CharString index="75">
            -35 17 -43 16 -36 8 rrcurveto
            -51 -30 -27 -46 -19 hhcurveto
            -7 -7 5 13 32 2 38 4 38 hvcurveto
            -1 13 13 -1 12 hhcurveto
            return
          </CharString>
          <CharString index="76">
            -90 callgsubr
            5 return
          </CharString>
          <CharString index="77">
            rrcurveto
            73 46 22 77 75 vvcurveto
            58 -13 45 -23 33 vhcurveto
            -72 50 rlineto
            -21 -16 -39 -39 -45 hhcurveto
            -33 -12 26 26 8 0 10 6 10 hvcurveto
            -51 -51 -10 -25 -37 hvcurveto
            -4 -10 -2 -9 -14 vvcurveto
            -95 48 -63 90 56 51 33 37 34 vhcurveto
            -5 -37 -25 -36 -69 -36 -91 -46 rcurveline
            7 -56 18 -49 31 -54 return
          </CharString>
          <CharString index="78">
            -35 callgsubr
            35 34 16 46 vhcurveto
            return
          </CharString>
          <CharString index="79">
            rmoveto
            -58 7 -31 18 -18 36 rrcurveto
            40 39 -1 -2 39 hvcurveto
            -4 -18 -4 -20 -3 -20 rrcurveto
            -73 -287 rmoveto
            126 -82 123 -158 41 vhcurveto
            -5 return
          </CharString>
          <CharString index="80">
            rmoveto
            19 15 -14 -25 -21 -10 -29 -15 -31 hvcurveto
            -31 20 -31 21 -29 22 rrcurveto
            33 27 29 24 26 hhcurveto
            return
          </CharString>
          <CharString index="81">
            5 17 4 29 383 callgsubr
            23 -21 callgsubr
            return
          </CharString>
          <CharString index="82">
            63 13 78 12 94 4 rrcurveto
            -8 -44 -5 -43 18 callgsubr
            return
          </CharString>
          <CharString index="83">
            vvcurveto
            156 -108 130 -115 -84 -56 -69 -86 -21 4 -20 9 -23 vhcurveto
            -13 16 43 -7 31 hhcurveto
            26 30 4 7 15 hvcurveto
            -18 27 -7 14 11 vvcurveto
            24 13 16 22 31 35 -28 -64 -59 -36 -36 -68 -126 -111 171 109 -47 vhcurveto
            -35 -13 -35 -14 -32 -18 return
          </CharString>
          <CharString index="84">
            rrcurveto
            -27 -69 -16 -89 -74 vvcurveto
            -52 4 -50 8 -43 vhcurveto
            32 74 9 11 26 hvcurveto
            -11 58 -5 54 52 vvcurveto
            81 13 74 22 69 vhcurveto
            -20 56 -34 42 -36 23 rrcurveto
            -8 -16 -18 -9 -33 hhcurveto
            return
          </CharString>
          <CharString index="85">
            -5 -14 -18 -3 -18 hhcurveto
            -29 -36 12 18 13 15 7 24 45 34 -19 -35 29 hvcurveto
            return
          </CharString>
          <CharString index="86">
            519 164 rmoveto
            -20 51 -8 72 96 vvcurveto
            42 2 47 4 44 vhcurveto
            26 -4 23 -4 18 -4 9 35 4 63 -13 37 rrcurveto
            17 -55 -121 14 -93 hhcurveto
            -123 -103 -14 -17 -69 99 callgsubr
            13 3 15 2 16 3 23 -20 49 -15 42 -16 -126 -101 rcurveline
            4 -38 32 -40 49 -28 93 -12 80 -35 61 -69 rrcurveto
            52 71 8 18 45 hvcurveto
            -182 258 rmoveto
            -36 25 -41 28 -28 30 -10 25 rlinecurve
            1 22 23 0 24 hhcurveto
            25 27 -1 -2 27 hvcurveto
            -19 -100 -6 -74 -111 vvcurveto
            -2 vlineto
            -31 31 -41 27 -46 21 rrcurveto
            return
          </CharString>
          <CharString index="87">
            rmoveto
            152 240 89 247 72 277 -55 37 -62 21 -79 10 -21 -124 -24 -110 -33 -103 -49 107 -24 102 -18 136 -80 -4 -63 -20 -56 -40 40 -174 67 -173 108 -134 -33 -74 -39 -74 -46 -77 rrcurveto
            36 -29 70 -29 48 -12 rrcurveto
            endchar
          </CharString>
          <CharString index="88">
            rrcurveto
            6 19 5 return
          </CharString>
          <CharString index="89">
            -109 -64 -63 -64 -39 hhcurveto
            -14 -8 8 11 29 56 35 51 9 hvcurveto
            -19 40 -57 35 -45 6 rrcurveto
            -41 -17 -43 -44 -69 vvcurveto
            -91 76 -72 85 50 45 30 56 40 vhcurveto
            -2 -65 return
          </CharString>
          <CharString index="90">
            rmoveto
            62 45 25 56 43 hvcurveto
            41 -52 76 -45 25 vhcurveto
            -92 -40 -18 -28 -28 hhcurveto
            -34 -12 49 138 207 42 81 112 14 hvcurveto
            return
          </CharString>
          <CharString index="91">
            426 550 rmoveto
            -13 -14 1 3 -14 hvcurveto
            42 15 21 29 32 hhcurveto
            22 15 -14 -21 -23 -17 -17 -47 hvcurveto
            return
          </CharString>
          <CharString index="92">
            -9 20 -13 24 -16 13 rrcurveto
            -27 -18 -18 -12 -20 hhcurveto
            -17 -10 13 20 return
          </CharString>
          <CharString index="93">
            -19 callsubr
            28 0 27 0 24 -4 24 13 flex1
            return
          </CharString>
          <CharString index="94">
            154 -39 159 77 128 19 135 57 385 callsubr
            760 -561 105 148 94 28 128 hintmask 11110111
            546 202 61 callgsubr
            28 30 85 40 65 hvcurveto
            hintmask 10110101
            39 -104 99 -70 105 -6 -23 callsubr
            -50 -41 21 36 -26 hvcurveto
            return
          </CharString>
          <CharString index="95">
            220 -128 2 callsubr
            -380 -176 rmoveto
            -12 -4 12 27 67 13 105 20 95 hvcurveto
            9 -31 16 -23 23 -18 rrcurveto
            14 -11 12 -8 -15 vvcurveto
            -71 -46 -129 -45 vhcurveto
            return
          </CharString>
          <CharString index="96">
            -124 -103 -14 -17 -67 hvcurveto
            -40 callsubr
            28 6 34 5 38 5 -5 -114 -24 -132 -37 -116 36 -26 74 -22 54 -6 return
          </CharString>
          <CharString index="97">
            6 17 5 30 0 29 0 23 -3 23 13 flex1
            17 -78 return
          </CharString>
          <CharString index="98">
            -55 15 -66 4 -52 -5 4 -71 -7 -75 -18 -92 36 -10 49 -7 51 -1 41 102 15 57 2 83 rrcurveto
            return
          </CharString>
          <CharString index="99">
            -99 76 -64 72 29 21 10 13 20 vhcurveto
            -49 -4 -18 -40 -55 hhcurveto
            -93 -73 118 161 -40 hvcurveto
            -35 -8 -35 -9 -33 -13 rrcurveto
            -168 37 80 -220 181 hhcurveto
            return
          </CharString>
          <CharString index="100">
            105 -64 26 105 vvcurveto
            15 -44 -30 5 -41 hhcurveto
            -26 -24 -15 -30 -17 -34 rrcurveto
            54 -19 -31 34 -42 hhcurveto
            -71 -44 -74 -86 -90 48 -73 66 51 34 44 50 hvcurveto
            8 -1 3 3 vvcurveto
            -22 26 -32 21 -31 10 rrcurveto
            2 -10 0 -10 -7 vvcurveto
            -23 -5 -25 -19 -12 -9 10 20 32 22 29 40 36 31 -22 -42 13 vhcurveto
            9 -10 36 -7 27 -7 15 25 14 37 17 27 rrcurveto
            3 -14 3 -14 -16 vvcurveto
            243 callsubr
            return
          </CharString>
          <CharString index="101">
            74 -6 47 -26 -62 -3 0 -2 -2 vvcurveto
            10 -19 -20 5 -21 hhcurveto
            -73 -50 -59 -78 -83 57 -68 86 44 37 19 35 22 hvcurveto
            return
          </CharString>
          <CharString index="102">
            170 callgsubr
            13 4 10 3 9 3 -95 callgsubr
            -40 -7 -39 -9 -40 318 callsubr
            -1 -4 -1 -5 -1 -4 rrcurveto
            90 -24 -47 58 -59 hhcurveto
            -57 -48 -48 -71 -24 hvcurveto
            return
          </CharString>
          <CharString index="103">
            -60 3 callgsubr
            return
          </CharString>
          <CharString index="104">
            -14 -20 0 -80 14 -35 52 -8 26 -41 2 -78 -6 -167 -18 -133 -32 -122 rrcurveto
            -15 41 73 -12 55 hhcurveto
            endchar
          </CharString>
          <CharString index="105">
            571 rmoveto
            -106 callgsubr
            -200 hmoveto
            -106 callgsubr
            return
          </CharString>
          <CharString index="106">
            rmoveto
            27 -18 18 -27 -26 -17 -18 -27 -26 17 -17 26 27 18 17 26 vhcurveto
            -289 hmoveto
            27 -18 18 -26 -26 -17 -18 -27 -26 17 -17 26 26 18 17 26 vhcurveto
            return
          </CharString>
          <CharString index="107">
            365 callgsubr
            33 0 26 0 22 -3 20 13 flex1
            return
          </CharString>
          <CharString index="108">
            42 -29 -40 26 -44 273 callsubr
            -99 66 -54 93 -9 hvcurveto
            23 32 15 55 43 vvcurveto
            endchar
          </CharString>
          <CharString index="109">
            rmoveto
            -13 -3 8 20 25 3 40 5 41 hvcurveto
            19 -16 27 -13 32 -6 rrcurveto
            -51 -40 -48 -30 vhcurveto
            return
          </CharString>
          <CharString index="110">
            103 -74 56 -78 -31 -18 -5 -6 -12 return
          </CharString>
          <CharString index="111">
            rmoveto
            39 28 6 8 20 hvcurveto
            16 193 44 156 21 52 -23 25 -31 19 -40 13 -67 -43 -76 -41 -88 -35 19 -47 24 -31 37 -26 16 9 17 10 16 10 rrcurveto
            -11 -83 -7 -97 -81 vvcurveto
            -11 vlineto
            -4 13 11 -2 22 hhcurveto
            return
          </CharString>
          <CharString index="112">
            4 72 hhcurveto
            63 -4 47 -12 49 vhcurveto
            -73 -67 -10 -19 -66 hvcurveto
            return
          </CharString>
          <CharString index="113">
            -8 -101 callsubr
            return
          </CharString>
          <CharString index="114">
            -80 12 -65 -8 -46 -11 rrcurveto
            -58 2 -37 5 -63 vhcurveto
            54 -7 49 -1 66 7 return
          </CharString>
          <CharString index="115">
            36 -26 74 -22 54 -6 -3 callgsubr
            return
          </CharString>
          <CharString index="116">
            -85 callgsubr
            81 49 return
          </CharString>
          <CharString index="117">
            220 callsubr
            hintmask 11110000
            43 callgsubr
            hintmask 11100100
            -11 callsubr
            39 65 59 70 66 56 return
          </CharString>
          <CharString index="118">
            0 24 0 27 return
          </CharString>
          <CharString index="119">
            8 36 -1 55 -6 42 rrcurveto
            -15 -25 -33 -8 -24 hhcurveto
            return
          </CharString>
          <CharString index="120">
            vstem
            497 -122 rmoveto
            81 33 52 43 41 60 -88 138 -75 87 -97 83 78 73 65 87 63 114 -42 49 -50 43 -69 22 -65 -148 -55 -99 -78 -87 5 108 12 107 19 101 379 callgsubr
            -57 -49 -16 -18 -28 hvcurveto
            -5 -75 -3 -77 -76 vvcurveto
            -180 15 -178 31 -160 vhcurveto
            59 83 10 10 34 hvcurveto
            -10 77 -8 88 -2 92 4 2 3 3 4 2 95 -98 66 -93 68 -139 rrcurveto
            return
          </CharString>
          <CharString index="121">
            328 callgsubr
            -97 -120 -22 4 -23 5 -22 hvcurveto
            46 -80 rlineto
            return
          </CharString>
          <CharString index="122">
            0 28 0 return
          </CharString>
          <CharString index="123">
            37 callsubr
            hintmask 01011110
            -15 41 73 -12 55 hhcurveto
            endchar
          </CharString>
          <CharString index="124">
            rmoveto
            -38 callgsubr
            return
          </CharString>
          <CharString index="125">
            rmoveto
            35 96 15 61 5 83 -46 14 -61 5 -59 -4 1 -81 -3 -53 -14 -102 37 -10 42 -6 48 -3 rrcurveto
            return
          </CharString>
          <CharString index="126">
            rmoveto
            -13 -7 9 11 13 9 10 13 14 10 -11 -15 7 hvcurveto
            -10 -10 -11 -7 -12 hhcurveto
            return
          </CharString>
          <CharString index="127">
            22 5 28 6 35 5 rrcurveto
            -15 -113 -11 -125 -123 225 callgsubr
            return
          </CharString>
          <CharString index="128">
            -94 151 rmoveto
            -32 -19 44 87 135 42 54 47 hvcurveto
            2 3 0 2 hhcurveto
            3 -69 5 -70 5 -66 rrcurveto
            -86 -14 -24 -29 -20 hhcurveto
            endchar
          </CharString>
          <CharString index="129">
            74 callgsubr
            -130 -92 146 190 -60 vhcurveto
            -37 -12 -35 -15 -34 -19 rrcurveto
            return
          </CharString>
          <CharString index="130">
            -355 85 rmoveto
            -19 -11 15 15 27 33 21 30 4 5 -1 -1 4 hvcurveto
            -3 vlineto
            -36 -15 -37 -31 vhcurveto
            return
          </CharString>
          <CharString index="131">
            -17 callsubr
            hintmask 000000101000000000000000
            123 callsubr
            -80 -14 -60 -21 -43 -30 -39 28 -57 21 -76 16 rrcurveto
            -7 -16 -3 -22 0 -26 0 -27 4 -29 -15 flex1
            hintmask 000000100100000000000000
            165 callsubr
            return
          </CharString>
          <CharString index="132">
            43 8 68 11 83 8 rrcurveto
            -7 -33 -10 -44 -38 vvcurveto
            -8 callsubr
            113 61 87 121 35 -5 35 -9 29 hvcurveto
            103 callsubr
            28 76 36 54 hvcurveto
            return
          </CharString>
          <CharString index="133">
            vvcurveto
            -85 67 -43 69 20 346 callgsubr
            20 27 17 52 40 8 -1 6 2 vvcurveto
            -6 -10 -13 -4 -13 hhcurveto
            -17 -10 8 17 return
          </CharString>
          <CharString index="134">
            -16 -20 -77 -91 callgsubr
            return
          </CharString>
          <CharString index="135">
            248 -32 rmoveto
            -11 68 -3 61 -1 61 51 -72 56 -63 61 -54 71 21 46 51 42 51 -83 54 -77 53 -64 65 80 57 73 61 60 74 -25 42 -55 54 -53 25 -60 -80 -54 -74 -61 -66 rrcurveto
            11 137 22 150 19 66 rrcurveto
            22 -48 -122 16 -48 hhcurveto
            -17 -94 -8 -244 -114 vvcurveto
            -179 14 -114 13 -59 vhcurveto
            70 49 5 19 52 hvcurveto
            return
          </CharString>
          <CharString index="136">
            vvcurveto
            27 7 13 22 9 44 callgsubr
            -47 -8 -44 -10 -46 -17 rrcurveto
            -47 -17 -31 -34 -49 -26 4 -18 -80 vvcurveto
            return
          </CharString>
          <CharString index="137">
            rmoveto
            209 62 157 208 180 vvcurveto
            171 -103 105 -219 -88 -71 -19 -39 -84 vhcurveto
            -2 -51 -1 -50 -50 vvcurveto
            -162 13 -174 19 -168 vhcurveto
            -9 50 68 -4 52 hhcurveto
            -6 200 rmoveto
            136 5 137 12 134 vhcurveto
            1 5 6 0 5 hhcurveto
            80 54 -62 -98 -132 -56 -112 -110 -58 hvcurveto
            -1 18 0 18 18 vvcurveto
            endchar
          </CharString>
          <CharString index="138">
            -51 callsubr
            650 -427 98 199 109 hintmask 11101100
            323 531 rmoveto
            hintmask 11110000
            181 callsubr
            43 callsubr
            hintmask 11101100
            14 79 126 13 118 hhcurveto
            73 return
          </CharString>
          <CharString index="139">
            25 19 -13 -20 14 hvcurveto
            19 24 16 39 8 29 rrcurveto
            16 -21 -30 14 -37 hhcurveto
            return
          </CharString>
          <CharString index="140">
            14 17 20 12 27 5 365 callgsubr
            30 383 callgsubr
            22 11 flex1
            -18 -3 -18 -5 -18 -6 rrcurveto
            3 13 2 15 17 vvcurveto
            72 -39 49 -76 46 vhcurveto
            -53 32 -33 30 58 vvcurveto
            15 2 17 4 21 vhcurveto
            -34 1 -42 -1 -43 -14 rrcurveto
            -5 -25 -3 -23 -20 vvcurveto
            -89 54 -47 81 -53 vhcurveto
            70 -46 40 -23 -39 vvcurveto
            -27 -8 -19 -15 -15 vhcurveto
            return
          </CharString>
          <CharString index="141">
            rmoveto
            127 callgsubr
            -36 -11 -32 -66 -32 hhcurveto
            -42 -18 51 73 12 0 12 1 12 hvcurveto
            -5 24 24 -2 22 hhcurveto
            73 65 7 23 47 hvcurveto
            14 39 9 57 41 vvcurveto
            return
          </CharString>
          <CharString index="142">
            vvcurveto
            -139 -50 -96 -60 -71 -73 4 -64 21 -56 41 -61 return
          </CharString>
          <CharString index="143">
            1 -27 -27 1 -27 hhcurveto
            -140 -131 -16 -19 -77 hvcurveto
            -40 callsubr
            34 7 42 6 48 6 18 -3 16 -7 13 -11 rrcurveto
            -84 -16 -66 -49 -79 vvcurveto
            -72 56 -53 82 84 50 57 88 4 vhcurveto
            90 -3 16 -22 -34 -2 0 -6 -9 vvcurveto
            -101 -35 -132 -67 -49 -38 3 -50 16 -38 29 -47 return
          </CharString>
          <CharString index="144">
            hhcurveto
            -8 -10 -1 -2 -10 hvcurveto
            -4 -17 -6 -22 0 -23 0 -27 4 -27 -19 flex1
            1 5 9 1 7 hhcurveto
            55 5 -32 -58 hvcurveto
            -4 -186 -18 -143 -35 -132 rrcurveto
            return
          </CharString>
          <CharString index="145">
            -101 callsubr
            18 -67 -98 15 -117 hhcurveto
            -117 -103 -15 -18 -74 hvcurveto
            -10 -18 -1 -27 0 -9 0 -43 2 -12 -26 flex1
            return
          </CharString>
          <CharString index="146">
            -19 83 -10 124 136 vvcurveto
            125 8 102 7 106 vhcurveto
            -131 -15 rlineto
            -21 -193 -1 -129 -202 vvcurveto
            return
          </CharString>
          <CharString index="147">
            88 callsubr
            -33 1 -34 3 -33 vhcurveto
            47 -35 -36 26 -49 hhcurveto
            return
          </CharString>
          <CharString index="148">
            rmoveto
            55 callgsubr
            hintmask 11110000
            42 callsubr
            -210 118 -86 146 hvcurveto
            hintmask 11101000
            184 96 98 144 10 hvcurveto
            endchar
          </CharString>
          <CharString index="149">
            34 29 -38 -97 hvcurveto
            94 36 12 25 57 hvcurveto
            139 -12 -81 79 -123 hhcurveto
            -213 -139 -203 -229 return
          </CharString>
          <CharString index="150">
            -120 -126 -14 -17 -77 hvcurveto
            -7 -13 -4 -21 0 -24 0 -29 5 -31 -17 flex1
            return
          </CharString>
          <CharString index="151">
            rmoveto
            -24 -16 12 19 20 17 11 19 19 22 -10 -22 20 hvcurveto
            -19 -12 -22 -11 -23 hhcurveto
            return
          </CharString>
          <CharString index="152">
            -5 -4 386 callgsubr
            27 -52 37 -44 49 -34 return
          </CharString>
          <CharString index="153">
            541 272 rmoveto
            101 3 83 6 85 vhcurveto
            58 -1 57 -3 54 -3 rrcurveto
            168 callgsubr
            -127 12 -93 15 -73 vhcurveto
            -41 36 -52 35 -47 27 rrcurveto
            -11 52 -24 169 70 vvcurveto
            212 -522 -60 callsubr
            vvcurveto
            80 3 77 5 71 vhcurveto
            return
          </CharString>
          <CharString index="154">
            -8 38 6 callsubr
            return
          </CharString>
          <CharString index="155">
            vvcurveto
            -97 64 -124 113 49 34 22 31 25 vhcurveto
            return
          </CharString>
          <CharString index="156">
            rmoveto
            54 65 3 10 46 hvcurveto
            -20 66 -11 112 148 vvcurveto
            44 1 40 7 64 vhcurveto
            2 21 8 14 22 9 10 4 14 4 9 194 callgsubr
            -38 -6 -59 -15 -28 -11 -40 -16 -13 -27 -11 -41 -2 -9 -3 -9 358 callgsubr
            62 -95 hhcurveto
            return
          </CharString>
          <CharString index="157">
            36 27 15 17 26 vhcurveto
            -59 -4 -23 -50 -65 hhcurveto
            -110 -85 142 194 -49 hvcurveto
            -36 -11 -36 -14 -33 -17 rrcurveto
            -196 44 88 -257 206 hhcurveto
            return
          </CharString>
          <CharString index="158">
            53 22 33 29 30 51 -68 45 -46 41 -42 48 62 43 46 46 51 57 -23 35 -51 38 -44 20 -55 -99 -59 -65 -85 -68 47 -99 70 -75 81 -69 rrcurveto
            return
          </CharString>
          <CharString index="159">
            18 27 13 53 38 8 -1 6 2 vvcurveto
            -6 -9 -12 -4 -10 hhcurveto
            -15 -7 8 17 return
          </CharString>
          <CharString index="160">
            61 11 vstem
            193 -72 -57 callgsubr
            -27 -5 -24 -7 -23 -10 rrcurveto
            242 -46 -180 154 -224 hhcurveto
            -114 -77 -58 -94 -35 13 -31 21 -25 hvcurveto
            59 32 rlineto
            -8 7 -5 10 11 vvcurveto
            40 49 18 73 return
          </CharString>
          <CharString index="161">
            -37 32 -55 26 -47 11 rrcurveto
            -7 -11 -4 -23 0 -25 0 -29 5 -31 -16 flex1
            81 -12 -1 -82 -42 vvcurveto
            -4 -172 -12 -130 -16 -119 rrcurveto
            return
          </CharString>
          <CharString index="162">
            hvcurveto
            -7 -10 -4 -26 0 -23 0 -32 5 -28 -16 flex1
            return
          </CharString>
          <CharString index="163">
            -11 -22 -26 -15 -61 hhcurveto
            -72 -60 19 35 -40 hvcurveto
            1 36 37 1 37 hhcurveto
            233 211 -21 -18 101 hvcurveto
            338 callgsubr
            21 -99 -212 22 -234 hhcurveto
            -234 -212 -22 -21 -99 55 callsubr
            return
          </CharString>
          <CharString index="164">
            23 vvcurveto
            39 -21 25 -37 7 vhcurveto
            6 -32 -50 5 -42 hhcurveto
            -109 -117 -15 -18 -60 hvcurveto
            -6 -14 -3 -21 0 -22 0 -30 4 -30 -18 flex1
            15 66 110 14 110 hhcurveto
            22 23 -1 -2 24 hvcurveto
            -1 -4 -1 -4 -1 -4 -148 -45 -104 -62 -80 -77 1 -65 18 -55 36 -63 return
          </CharString>
          <CharString index="165">
            rmoveto
            62 137 22 260 151 45 -2 105 24 vvcurveto
            35 4 9 27 11 vhcurveto
            10 4 13 4 8 2 -19 callsubr
            31 0 26 0 24 -4 22 13 flex1
            -51 -7 -64 -20 -22 -8 rrcurveto
            -70 -26 -8 -36 -47 -34 4 -125 -72 vvcurveto
            -150 -17 -128 -39 -140 vhcurveto
            return
          </CharString>
          <CharString index="166">
            hhcurveto
            -102 -61 -99 -116 -120 66 -95 92 return
          </CharString>
          <CharString index="167">
            62 84 24 57 hhcurveto
            57 29 -29 -38 17 hvcurveto
            14 -105 -130 4 -112 hhcurveto
            -132 -133 -10 -25 -101 -26 callgsubr
            23 109 128 8 124 3 2 0 3 hhcurveto
            -11 -76 -8 -82 -5 -83 rrcurveto
            68 -23 -73 85 -83 hhcurveto
            return
          </CharString>
          <CharString index="168">
            vvcurveto
            132 -72 133 -115 -66 -45 -60 -67 -23 3 -12 4 -15 vhcurveto
            -13 29 56 -10 44 hhcurveto
            -9 21 -3 15 14 vvcurveto
            18 8 16 15 22 20 -25 -53 -62 -26 -31 -47 -66 -80 98 134 -51 vhcurveto
            -31 -9 -30 -16 -24 -15 rrcurveto
            -185 51 89 -180 162 hhcurveto
            return
          </CharString>
          <CharString index="169">
            286 callsubr
            -21 -20 -101 callgsubr
            return
          </CharString>
          <CharString index="170">
            -72 rmoveto
            11 156 9 189 1 197 14 17 20 12 27 5 12 38 5 72 -17 25 -55 -10 -53 -22 -40 -37 -38 32 -54 26 -48 11 -16 -23 4 -82 12 -30 rrcurveto
            74 -11 6 -69 -44 vvcurveto
            -6 -178 -14 -135 -26 -122 rrcurveto
            -10 37 76 -7 59 hhcurveto
            return
          </CharString>
          <CharString index="171">
            -37 -48 -23 -29 hhcurveto
            -18 -12 10 25 19 6 27 13 29 hvcurveto
            -26 9 -36 5 -45 1 rrcurveto
            -19 -46 -14 -55 -48 vvcurveto
            -88 47 -53 74 vhcurveto
            return
          </CharString>
          <CharString index="172">
            310 107 rmoveto
            -80 callgsubr
            174 -111 rmoveto
            return
          </CharString>
          <CharString index="173">
            rrcurveto
            50 80 callgsubr
            return
          </CharString>
          <CharString index="174">
            5 10 11 3 12 hhcurveto
            47 42 -41 -61 3 hvcurveto
            -8 -83 -3 -96 -105 vvcurveto
            return
          </CharString>
          <CharString index="175">
            rmoveto
            118 callgsubr
            -29 114 -7 169 186 return
          </CharString>
          <CharString index="176">
            5 19 3 27 0 27 0 23 -2 22 17 flex1
            return
          </CharString>
          <CharString index="177">
            32 26 29 32 23 30 178 callgsubr
            return
          </CharString>
          <CharString index="178">
            rmoveto
            -13 -4 14 30 77 14 119 22 109 hvcurveto
            8 -36 18 -26 24 -21 rrcurveto
            14 -12 13 -10 -17 vvcurveto
            -80 -49 -147 -47 vhcurveto
            return
          </CharString>
          <CharString index="179">
            43 callsubr
            47 8 64 8 70 5 -4 -93 -9 -109 -34 -92 36 -22 74 -19 54 -6 36 53 58 57 63 45 rrcurveto
            -18 -56 -10 -64 -61 vvcurveto
            -26 3 -26 4 -25 vhcurveto
            return
          </CharString>
          <CharString index="180">
            53 -1 40 -9 -44 vvcurveto
            -31 -43 -45 -41 -12 vhcurveto
            21 -48 45 -33 36 -7 376 callsubr
            91 -80 90 -103 35 vhcurveto
            return
          </CharString>
          <CharString index="181">
            -6 25 -45 -34 vvcurveto
            -30 -17 -29 -44 vhcurveto
            return
          </CharString>
          <CharString index="182">
            575 288 rmoveto
            72 -2 28 10 72 vhcurveto
            7 52 34 19 100 4 rrcurveto
            10 9 1 9 hhcurveto
            -24 -113 -6 -145 -102 vvcurveto
            -128 12 -94 16 -74 vhcurveto
            -44 38 -57 37 -51 28 rrcurveto
            -1 2 -1 2 2 vvcurveto
            -11 76 -10 144 79 vvcurveto
            return
          </CharString>
          <CharString index="183">
            140 callsubr
            -16 66 -9 120 127 vvcurveto
            return
          </CharString>
          <CharString index="184">
            20 -3 19 -3 18 290 callsubr
            -132 14 -122 hhcurveto
            -118 -119 8 callgsubr
            114 11 110 hhcurveto
            return
          </CharString>
          <CharString index="185">
            93 -4 79 -9 65 -15 0 callsubr
            22 -89 -122 13 -152 hhcurveto
            -139 -112 -15 -20 -83 hvcurveto
            -8 -13 -31 callsubr
            -32 -17 flex1
            79 17 101 12 125 2 rrcurveto
            return
          </CharString>
          <CharString index="186">
            -31 10 -35 4 -24 -29 -26 -5 -14 hflex1
            3 -82 3 -73 6 -94 34 -2 47 2 21 7 22 92 13 83 10 67 rrcurveto
            return
          </CharString>
          <CharString index="187">
            197 callsubr
            -38 51 -31 38 -49 19 -46 -28 -45 -36 -45 -46 rrcurveto
            3 return
          </CharString>
          <CharString index="188">
            496 351 rmoveto
            81 -74 43 -78 -31 -18 -4 -5 -12 vhcurveto
            -23 -22 -18 -46 -37 vvcurveto
            -5 1 -7 1 -2 vhcurveto
            7 12 17 5 19 hhcurveto
            20 13 -11 -21 -32 -47 -65 -40 -19 -9 10 25 87 14 99 20 80 hvcurveto
            4 4 0 4 hhcurveto
            return
          </CharString>
          <CharString index="189">
            21 -28 -68 callsubr
            22 31 -69 -94 13 vhcurveto
            1 -7 0 -6 1 -3 rrcurveto
            257 callsubr
            return
          </CharString>
          <CharString index="190">
            80 callgsubr
            204 callgsubr
            rrcurveto
            1 return
          </CharString>
          <CharString index="191">
            -86 -146 -34 -67 hhcurveto
            -51 -37 21 34 17 6 20 6 89 callgsubr
            -18 -35 -13 -43 -45 vvcurveto
            -85 return
          </CharString>
          <CharString index="192">
            rmoveto
            -24 -21 6 12 -17 hvcurveto
            123 53 61 118 150 vvcurveto
            return
          </CharString>
          <CharString index="193">
            -147 -52 -105 -66 -78 -81 4 -65 21 -54 40 -61 98 callsubr
            return
          </CharString>
          <CharString index="194">
            -168 -104 -128 -194 -133 51 -113 133 58 47 26 74 32 hvcurveto
            return
          </CharString>
          <CharString index="195">
            -4 -116 -25 -136 -38 -119 8 callsubr
            return
          </CharString>
          <CharString index="196">
            169 callsubr
            110 callsubr
            return
          </CharString>
          <CharString index="197">
            rmoveto
            -46 -35 -36 -47 -50 37 -44 56 45 35 36 46 51 -38 44 -54 hvcurveto
            endchar
          </CharString>
          <CharString index="198">
            -61 -21 111 153 97 126 100 return
          </CharString>
          <CharString index="199">
            152 callsubr
            -25 -7 -59 rrcurveto
            90 -24 -47 57 -59 hhcurveto
            -57 -48 -48 -71 -24 hvcurveto
            return
          </CharString>
          <CharString index="200">
            vvcurveto
            -90 78 -53 72 81 66 45 61 35 vhcurveto
            184 callgsubr
            return
          </CharString>
          <CharString index="201">
            88 13 75 22 70 vhcurveto
            -20 55 -34 42 -35 23 rrcurveto
            -9 -15 -18 -11 -39 hhcurveto
            return
          </CharString>
          <CharString index="202">
            -69 -37 75 94 hvcurveto
            -37 -70 -16 -23 -46 hvcurveto
            -122 106 -126 172 vhcurveto
            return
          </CharString>
          <CharString index="203">
            85 -62 83 100 103 53 143 -112 117 123 97 return
          </CharString>
          <CharString index="204">
            -53 3 91 119 85 161 104 return
          </CharString>
          <CharString index="205">
            92 -19 81 -51 60 -102 rrcurveto
            return
          </CharString>
          <CharString index="206">
            -66 -48 48 -66 hhcurveto
            -85 -43 -58 -103 8 hvcurveto
            26 -9 31 -4 22 1 rrcurveto
            39 -1 14 19 46 hhcurveto
            hintmask 10100100
            55 46 -48 79 hhcurveto
            86 43 57 103 -9 hvcurveto
            -19 9 -38 4 -22 -1 rrcurveto
            -40 1 -14 -17 -46 hhcurveto
            return
          </CharString>
          <CharString index="207">
            97 -6 95 -12 53 -10 -2 callgsubr
            17 -64 -151 18 -128 -57 callsubr
            return
          </CharString>
          <CharString index="208">
            64 52 19 59 hhcurveto
            54 18 -21 -24 23 hvcurveto
            endchar
          </CharString>
          <CharString index="209">
            52 -7 39 -7 -82 callgsubr
            return
          </CharString>
          <CharString index="210">
            -33 30 -44 32 -35 19 rrcurveto
            -38 -20 -31 -34 -17 hhcurveto
            -6 -6 5 13 26 return
          </CharString>
          <CharString index="211">
            125 122 145 137 return
          </CharString>
          <CharString index="212">
            38 46 7 12 37 hvcurveto
            return
          </CharString>
          <CharString index="213">
            2 -83 15 -57 41 -102 51 1 49 7 36 10 -18 92 -7 75 4 71 -52 5 -66 -4 -55 -15 rrcurveto
            return
          </CharString>
          <CharString index="214">
            -28 -68 -16 -92 -1 -83 -79 -35 -75 -40 -71 -45 rrcurveto
            -41 15 -32 25 -40 vhcurveto
            88 71 -2 -53 62 hvcurveto
            return
          </CharString>
          <CharString index="215">
            -86 -61 -52 -85 -89 63 -66 80 78 54 64 87 3 hvcurveto
            return
          </CharString>
          <CharString index="216">
            24 16 26 27 16 hhcurveto
            15 7 -11 -22 -31 -21 -30 -33 return
          </CharString>
          <CharString index="217">
            220 -222 34 callsubr
            return
          </CharString>
          <CharString index="218">
            57 42 39 55 5 hvcurveto
            10 -1 9 -2 9 -2 rrcurveto
            5 275 callsubr
            28 0 24 -3 23 -21 callgsubr
            -15 4 -17 4 -20 3 rrcurveto
            36 -20 -33 19 -45 hhcurveto
            -35 -43 -11 -22 -39 hvcurveto
            return
          </CharString>
          <CharString index="219">
            vvcurveto
            -106 -28 -80 -25 -61 -45 -11 -58 5 -46 21 -46 79 -7 132 -46 40 -57 rrcurveto
            -9 102 rmoveto
            -35 27 -49 28 -42 23 37 16 41 12 41 10 2 -37 3 -42 2 -37 rrcurveto
            endchar
          </CharString>
          <CharString index="220">
            62 84 24 57 hhcurveto
            55 29 -28 -36 18 hvcurveto
            3 -20 -22 2 -24 hhcurveto
            -137 -108 -45 -95 hvcurveto
            return
          </CharString>
          <CharString index="221">
            -144 -94 -110 -132 -95 41 -98 127 194 50 194 74 113 -67 54 -107 hvcurveto
            return
          </CharString>
          <CharString index="222">
            -14 -14 -50 -41 callsubr
            return
          </CharString>
          <CharString index="223">
            -55 -16 56 42 hvcurveto
            -31 -62 -8 -18 -36 hvcurveto
            -86 79 -89 123 vhcurveto
            return
          </CharString>
          <CharString index="224">
            3 296 159 115 165 return
          </CharString>
          <CharString index="225">
            33 69 14 16 27 hvcurveto
            return
          </CharString>
          <CharString index="226">
            -16 305 callsubr
            -80 -163 13 -162 hhcurveto
            -180 -171 -11 -25 -98 -91 callgsubr
            return
          </CharString>
          <CharString index="227">
            -4 18 -4 151 callgsubr
            17 -55 -141 14 -93 hhcurveto
            -123 -103 -14 -17 -69 -64 callgsubr
            return
          </CharString>
          <CharString index="228">
            109 callsubr
            -26 -39 20 44 -19 hvcurveto
            2 0 3 3 317 callgsubr
            350 callgsubr
            rrcurveto
            return
          </CharString>
          <CharString index="229">
            -19 -42 -12 -65 1 -61 rrcurveto
            -13 11 22 -12 32 hhcurveto
            74 60 70 133 118 -43 81 -70 return
          </CharString>
          <CharString index="230">
            7 15 4 30 0 30 0 25 -4 20 -21 callgsubr
            return
          </CharString>
          <CharString index="231">
            -36 28 -50 21 -47 5 rrcurveto
            -78 -2 -11 -36 -11 hhcurveto
            return
          </CharString>
          <CharString index="232">
            -52 -10 115 333 115 return
          </CharString>
          <CharString index="233">
            rmoveto
            -11 -15 2 4 -17 hvcurveto
            return
          </CharString>
          <CharString index="234">
            3 -19 callsubr
            return
          </CharString>
          <CharString index="235">
            194 430 146 hstem
            28 139 204 134 89 130 vstem
            371 115 rmoveto
            -33 43 -45 38 -48 31 46 30 51 26 48 18 -10 -65 -7 -63 -2 -58 rrcurveto
            return
          </CharString>
          <CharString index="236">
            vvcurveto
            -22 5 -29 18 -23 vhcurveto
            45 1 56 16 33 23 rrcurveto
            -7 6 -4 3 10 vvcurveto
            12 5 9 15 26 22 -23 -32 -39 -32 -15 -67 -43 -56 7 19 -63 vhcurveto
            19 -168 rlineto
            return
          </CharString>
          <CharString index="237">
            vvcurveto
            -19 4 -20 5 -20 vhcurveto
            46 -69 rlineto
            33 54 54 20 40 hhcurveto
            8 5 -4 -8 -15 -33 -29 -119 -43 hvcurveto
            22 -35 24 -34 43 -27 rrcurveto
            88 40 63 71 45 vvcurveto
            endchar
          </CharString>
          <CharString index="238">
            163 88 133 -120 121 62 111 30 -64 callsubr
            return
          </CharString>
          <CharString index="239">
            -54 -52 -48 -72 -73 52 -46 60 34 28 14 25 20 hvcurveto
            8 -12 5 -15 -16 vvcurveto
            -44 -34 -25 -54 -167 -146 234 238 -69 vhcurveto
            -39 -10 -36 -16 -33 -21 rrcurveto
            return
          </CharString>
          <CharString index="240">
            131 vstem
            851 320 rmoveto
            195 -133 193 -258 -249 -186 -189 -222 -245 160 -150 247 283 136 179 239 vhcurveto
            return
          </CharString>
          <CharString index="241">
            -72 callgsubr
            -37 -7 -37 -12 -33 -18 rrcurveto
            return
          </CharString>
          <CharString index="242">
            23 -2 22 -6 17 vhcurveto
            17 -55 -140 14 -99 hhcurveto
            -117 -102 280 callgsubr
            70 98 13 116 hhcurveto
            return
          </CharString>
          <CharString index="243">
            0 29 0 26 return
          </CharString>
          <CharString index="244">
            rrcurveto
            7 275 callsubr
            25 0 26 -3 24 -21 callgsubr
            122 -23 -64 89 -102 hhcurveto
            return
          </CharString>
          <CharString index="245">
            -4 rmoveto
            -20 72 -8 102 133 vvcurveto
            71 4 71 6 70 vhcurveto
            return
          </CharString>
          <CharString index="246">
            46 -2 63 4 42 19 rrcurveto
            endchar
          </CharString>
          <CharString index="247">
            58 65 18 28 38 hvcurveto
            return
          </CharString>
          <CharString index="248">
            rmoveto
            -10 34 -38 164 -13 151 rrcurveto
            -1 12 13 0 12 164 callsubr
            -5 -27 -42 -1 -49 -8 -9 0 -9 hhcurveto
            return
          </CharString>
          <CharString index="249">
            159 callsubr
            -44 -22 -10 -51 return
          </CharString>
          <CharString index="250">
            rmoveto
            -26 17 -17 26 27 18 17 26 27 -18 18 -27 -26 -17 -18 -27 vhcurveto
            -288 hmoveto
            -26 17 -17 26 26 18 17 26 27 -18 18 -26 -26 -17 -18 -27 vhcurveto
            return
          </CharString>
          <CharString index="251">
            rmoveto
            83 -28 234 -7 146 29 rrcurveto
            11 38 6 45 42 vvcurveto
            -5 -44 -69 -4 -84 hhcurveto
            -33 -167 6 10 -70 hvcurveto
            -6 -44 -4 -39 -3 -43 rrcurveto
            endchar
          </CharString>
          <CharString index="252">
            43 -20 130 493 130 return
          </CharString>
          <CharString index="253">
            198 callsubr
            -75 8 -79 19 -41 28 rrcurveto
            3 0 2 1 2 vhcurveto
            return
          </CharString>
          <CharString index="254">
            -37 38 70 -22 56 hhcurveto
            -2 12 0 13 15 vvcurveto
            69 68 68 81 -5 vhcurveto
            43 -3 24 -22 -36 vvcurveto
            -25 -12 -28 -23 -24 vhcurveto
            14 -16 -22 9 -24 hhcurveto
            return
          </CharString>
          <CharString index="255">
            -86 callgsubr
            31 41 52 vhcurveto
            return
          </CharString>
          <CharString index="256">
            -252 68 127 -344 285 hhcurveto
            -15 362 rmoveto
            -16 -9 11 14 17 12 14 17 14 13 -10 -19 11 hvcurveto
            -16 -12 -14 -11 -16 hhcurveto
            endchar
          </CharString>
          <CharString index="257">
            18 -97 63 -77 110 -29 rrcurveto
            -4 -58 -1 -56 -47 vvcurveto
            return
          </CharString>
          <CharString index="258">
            138 -125 127 return
          </CharString>
          <CharString index="259">
            -97 callgsubr
            -53 -4 -47 return
          </CharString>
          <CharString index="260">
            110 callgsubr
            109 97 callgsubr
            hstemhm
            7 118 -101 124 54 272 callgsubr
            return
          </CharString>
          <CharString index="261">
            248 callsubr
            80 69 78 81 50 78 rrcurveto
            return
          </CharString>
          <CharString index="262">
            vvcurveto
            -17 1 -27 1 -33 vhcurveto
            43 -21 -29 24 -29 177 callgsubr
            return
          </CharString>
          <CharString index="263">
            -28 138 -65 92 40 52 -29 161 -86 99 31 -51 callsubr
            864 return
          </CharString>
          <CharString index="264">
            hhcurveto
            -33 -29 -30 -42 -12 hvcurveto
            return
          </CharString>
          <CharString index="265">
            60 -6 53 47 callsubr
            -31 9 -45 8 -52 6 rrcurveto
            113 -22 -52 80 -94 hhcurveto
            return
          </CharString>
          <CharString index="266">
            -97 callgsubr
            -58 -4 return
          </CharString>
          <CharString index="267">
            15 callsubr
            23 return
          </CharString>
          <CharString index="268">
            206 callsubr
            44 2 42 40 vvcurveto
            14 0 return
          </CharString>
          <CharString index="269">
            -15 callsubr
            34 return
          </CharString>
          <CharString index="270">
            rmoveto
            51 68 10 10 35 hvcurveto
            -2 46 -1 34 41 vvcurveto
            return
          </CharString>
          <CharString index="271">
            hhcurveto
            42 29 2 7 20 hvcurveto
            6 28 6 51 35 vvcurveto
            return
          </CharString>
          <CharString index="272">
            35 -4 38 -15 20 -16 rrcurveto
            -30 -68 -12 -75 -97 vvcurveto
            return
          </CharString>
          <CharString index="273">
            -56 -83 -64 hvcurveto
            251 callsubr
            return
          </CharString>
          <CharString index="274">
            -190 49 99 -263 228 hhcurveto
            return
          </CharString>
          <CharString index="275">
            rmoveto
            -9 53 -20 68 -22 35 rrcurveto
            return
          </CharString>
          <CharString index="276">
            -1 -5 -18 -1 -10 hhcurveto
            return
          </CharString>
          <CharString index="277">
            rmoveto
            27 -15 25 -23 18 vhcurveto
            25 24 23 11 29 hhcurveto
            24 26 -8 -14 23 hvcurveto
            -39 -46 -42 -40 -42 -36 rrcurveto
            8 9 4 14 15 vvcurveto
            return
          </CharString>
          <CharString index="278">
            -7 -46 3 -39 21 -38 29 -4 34 -13 34 -18 -28 -12 -26 -14 -23 -15 rrcurveto
            -47 10 -42 31 -44 vhcurveto
            84 -7 105 -17 39 -50 rrcurveto
            return
          </CharString>
          <CharString index="279">
            vvcurveto
            128 -124 101 -210 vhcurveto
            -18 -136 -6 -108 -154 vvcurveto
            -33 43 -42 38 -48 29 115 140 rcurveline
            -36 35 rlineto
            return
          </CharString>
          <CharString index="280">
            389 -250 rmoveto
            119 callgsubr
            4 67 2 71 1 66 rrcurveto
            102 43 53 88 111 vvcurveto
            217 callsubr
            vhcurveto
            return
          </CharString>
          <CharString index="281">
            239 callsubr
            hstemhm
            1 118 -17 271 callgsubr
            return
          </CharString>
          <CharString index="282">
            -98 112 -23 -7 -21 -9 -22 -9 rlinecurve
            -3 93 -10 63 -9 37 rrcurveto
            return
          </CharString>
          <CharString index="283">
            -1 -2 26 hvcurveto
            -1 -5 -1 -4 -1 -5 return
          </CharString>
          <CharString index="284">
            vvcurveto
            64 -1 24 9 64 vhcurveto
            return
          </CharString>
          <CharString index="285">
            353 callsubr
            8 7 9 7 9 6 40 -24 36 -34 29 -46 rrcurveto
            -12 0 -13 -13 vvcurveto
            return
          </CharString>
          <CharString index="286">
            41 69 65 75 71 58 return
          </CharString>
          <CharString index="287">
            3 -48 15 -37 30 -45 return
          </CharString>
          <CharString index="288">
            118 130 9 callgsubr
            -129 14 -120 hhcurveto
            return
          </CharString>
          <CharString index="289">
            35 callgsubr
            88 -16 75 -50 58 -90 rrcurveto
            50 69 6 18 43 hvcurveto
            return
          </CharString>
          <CharString index="290">
            36 -16 37 -33 30 vhcurveto
            53 25 63 27 24 hhcurveto
            28 17 -29 -30 return
          </CharString>
          <CharString index="291">
            97 26 -51 callsubr
            767 -741 126 6 154 87 return
          </CharString>
          <CharString index="292">
            -120 85 -76 105 return
          </CharString>
          <CharString index="293">
            71 -68 41 -80 -20 -14 -4 -5 -12 vhcurveto
            -19 -26 -16 -41 -43 vvcurveto
            -8 1 -5 1 -2 vhcurveto
            6 11 10 5 15 hhcurveto
            return
          </CharString>
          <CharString index="294">
            722 209 callgsubr
            return
          </CharString>
          <CharString index="295">
            -4 9 31 6 69 -15 35 rrcurveto
            17 -55 -110 14 -103 hhcurveto
            -132 -88 -14 -17 -68 99 callgsubr
            return
          </CharString>
          <CharString index="296">
            rmoveto
            -12 0 -13 1 -12 vhcurveto
            -31 27 -41 22 -41 23 38 22 44 21 34 12 rrcurveto
            -2 -28 -2 -29 -33 vvcurveto
            endchar
          </CharString>
          <CharString index="297">
            hmoveto
            193 callgsubr
          </CharString>
          <CharString index="298">
            -49 18 47 -22 50 hhcurveto
            endchar
          </CharString>
          <CharString index="299">
            -1 rrcurveto
            -18 -20 -2 -4 -18 hvcurveto
            -7 -17 -3 -22 0 -23 0 -27 4 -27 -19 flex1
            3 14 12 1 9 hhcurveto
            return
          </CharString>
          <CharString index="300">
            377 callgsubr
            -20 -25 12 18 13 15 7 24 return
          </CharString>
          <CharString index="301">
            302 126 rmoveto
            -34 48 -43 39 -48 31 return
          </CharString>
          <CharString index="302">
            hstem
            25 205 180 209 vstem
            return
          </CharString>
          <CharString index="303">
            22 156 109 11 150 hhcurveto
            return
          </CharString>
          <CharString index="304">
            vvcurveto
            84 14 75 21 72 vhcurveto
            return
          </CharString>
          <CharString index="305">
            vvcurveto
            94 -55 83 -64 52 vhcurveto
            return
          </CharString>
          <CharString index="306">
            85 205 callgsubr
            return
          </CharString>
          <CharString index="307">
            16 -140 hhcurveto
            -140 return
          </CharString>
          <CharString index="308">
            141 -125 143 return
          </CharString>
          <CharString index="309">
            50 10 -36 -30 17 hvcurveto
            return
          </CharString>
          <CharString index="310">
            146 -127 127 return
          </CharString>
          <CharString index="311">
            -56 callsubr
            4 return
          </CharString>
          <CharString index="312">
            rmoveto
            -19 12 -19 10 -20 11 44 25 52 24 35 11 -1 -22 -2 -21 -1 -22 -22 -8 -24 -9 -23 -11 rrcurveto
            return
          </CharString>
          <CharString index="313">
            -10 55 -5 51 48 80 callsubr
            return
          </CharString>
          <CharString index="314">
            -7 -2 -8 -3 -8 vhcurveto
            11 -11 -19 9 -19 hhcurveto
            -34 -36 -26 -46 -37 33 -26 38 20 18 8 14 14 hvcurveto
            return
          </CharString>
          <CharString index="315">
            -21 -18 -15 -35 vhcurveto
            -392 -193 rmoveto
            -19 -10 12 13 21 25 14 46 6 hvcurveto
            -45 -2 -15 -21 -25 hhcurveto
            return
          </CharString>
          <CharString index="316">
            243 callgsubr
            3 90 -58 44 return
          </CharString>
          <CharString index="317">
            7 46 5 51 2 52 48 2 47 4 43 7 rrcurveto
            11 38 6 40 42 vvcurveto
            -52 -6 -52 -3 -51 -2 rrcurveto
            return
          </CharString>
          <CharString index="318">
            2 -8 -9 1 -8 hhcurveto
            126 callgsubr
            41 45 22 33 33 hvcurveto
            90 -38 93 -45 36 -57 return
          </CharString>
          <CharString index="319">
            217 callsubr
            hvcurveto
            -14 callgsubr
            24 20 return
          </CharString>
          <CharString index="320">
            rmoveto
            -19 -11 15 14 25 33 20 30 4 5 0 -1 4 hvcurveto
            -3 0 0 0 vhcurveto
            -35 -15 -35 -31 vhcurveto
            return
          </CharString>
          <CharString index="321">
            94 callsubr
            -85 -76 48 58 -37 hvcurveto
            return
          </CharString>
          <CharString index="322">
            rmoveto
            70 callsubr
            return
          </CharString>
          <CharString index="323">
            78 -14 74 -13 42 -128 rrcurveto
            59 -28 -40 24 -52 hhcurveto
            return
          </CharString>
          <CharString index="324">
            68 -15 66 -24 50 return
          </CharString>
          <CharString index="325">
            25 65 hhcurveto
            58 29 -33 -41 17 hvcurveto
            11 -76 -100 7 -98 hhcurveto
            -144 -134 -16 -19 -79 hvcurveto
            -8 return
          </CharString>
          <CharString index="326">
            -45 -47 -21 -33 hhcurveto
            -47 -29 29 37 -22 hvcurveto
            -25 -16 -37 -26 -27 -35 rrcurveto
            -60 36 54 -57 83 hhcurveto
            return
          </CharString>
          <CharString index="327">
            13 callgsubr
            13 0 12 -1 13 vhcurveto
            23 23 1 25 hhcurveto
            return
          </CharString>
          <CharString index="328">
            288 109 rmoveto
            -29 52 -42 45 -44 35 43 32 48 28 46 21 -12 -77 -8 -73 -2 -63 rrcurveto
            return
          </CharString>
          <CharString index="329">
            -81 347 callgsubr
            310 146 return
          </CharString>
          <CharString index="330">
            7 -59 18 -49 30 -56 return
          </CharString>
          <CharString index="331">
            112 31 -64 callsubr
            return
          </CharString>
          <CharString index="332">
            49 67 8 17 42 hvcurveto
            return
          </CharString>
          <CharString index="333">
            -8 91 rmoveto
            -11 -7 7 8 10 8 8 11 12 9 -8 -11 6 hvcurveto
            -8 -8 -10 -6 -10 hhcurveto
            return
          </CharString>
          <CharString index="334">
            57 229 81 -80 93 175 161 -144 134 249 callgsubr
            return
          </CharString>
          <CharString index="335">
            -53 rmoveto
            206 108 112 159 217 callsubr
            hvcurveto
            -38 18 -47 16 -39 9 rrcurveto
            return
          </CharString>
          <CharString index="336">
            250 callgsubr
            17 24 -8 -15 23 hvcurveto
            -23 -9 -26 -13 -25 hhcurveto
            endchar
          </CharString>
          <CharString index="337">
            108 -22 -52 71 -67 hhcurveto
            -57 -49 -48 -72 -26 hvcurveto
            return
          </CharString>
          <CharString index="338">
            88 -50 87 18 87 58 87 56 88 17 87 -48 87 return
          </CharString>
          <CharString index="339">
            -53 -52 45 102 -8 hvcurveto
            37 -2 34 -2 17 -3 rrcurveto
            return
          </CharString>
          <CharString index="340">
            86 53 44 62 50 -39 32 -53 return
          </CharString>
          <CharString index="341">
            hstem
            25 195 105 199 vstem
            return
          </CharString>
          <CharString index="342">
            136 120 94 144 hvcurveto
            return
          </CharString>
          <CharString index="343">
            vvcurveto
            -111 -62 -115 -100 vhcurveto
            return
          </CharString>
          <CharString index="344">
            204 callgsubr
            rrcurveto
            return
          </CharString>
          <CharString index="345">
            vvcurveto
            50 -19 44 -32 36 vhcurveto
            return
          </CharString>
          <CharString index="346">
            110 42 151 return
          </CharString>
          <CharString index="347">
            493 rmoveto
            89 2 -67 66 -91 hhcurveto
            -99 -78 -77 -99 -2 hvcurveto
            -86 -2 68 -66 89 hhcurveto
            98 return
          </CharString>
          <CharString index="348">
            96 73 120 58 138 145 139 39 127 -113 393 callsubr
            700 return
          </CharString>
          <CharString index="349">
            rrcurveto
            95 -33 -60 61 -79 14 callsubr
            return
          </CharString>
          <CharString index="350">
            308 callgsubr
            91 -17 69 -48 54 -95 rrcurveto
            return
          </CharString>
          <CharString index="351">
            hvcurveto
            -232 12 rmoveto
            25 18 16 27 43 41 -38 -47 -23 -18 -15 -26 -43 -42 37 45 vhcurveto
            return
          </CharString>
          <CharString index="352">
            -50 -49 -99 -41 vhcurveto
            288 callgsubr
            return
          </CharString>
          <CharString index="353">
            53 49 35 44 hhcurveto
            78 21 -35 -38 22 hvcurveto
            endchar
          </CharString>
          <CharString index="354">
            144 75 106 151 217 callsubr
            hvcurveto
            return
          </CharString>
          <CharString index="355">
            -8 -6 -7 -5 -8 -6 27 -52 37 -44 49 -34 return
          </CharString>
          <CharString index="356">
            138 320 callsubr
            return
          </CharString>
          <CharString index="357">
            163 74 133 202 141 return
          </CharString>
          <CharString index="358">
            7 -42 14 -42 23 -40 rrcurveto
            50 48 return
          </CharString>
          <CharString index="359">
            116 129 185 return
          </CharString>
          <CharString index="360">
            55 73 9 11 37 hvcurveto
            return
          </CharString>
          <CharString index="361">
            -34 -31 -22 -11 -19 hhcurveto
            return
          </CharString>
          <CharString index="362">
            52 71 10 23 45 hvcurveto
            return
          </CharString>
          <CharString index="363">
            423 -147 rmoveto
            29 96 19 201 130 vvcurveto
            122 -12 81 -10 44 vhcurveto
            return
          </CharString>
          <CharString index="364">
            140 callsubr
            -16 66 -18 253 127 177 callsubr
            return
          </CharString>
          <CharString index="365">
            -3 322 callsubr
            56 149 160 104 hstemhm
            18 128 28 171 return
          </CharString>
          <CharString index="366">
            rmoveto
            -50 -39 -40 -51 -55 41 -49 62 49 39 40 50 56 -42 49 -60 hvcurveto
            endchar
          </CharString>
          <CharString index="367">
            77 43 -27 -38 14 hvcurveto
            endchar
          </CharString>
          <CharString index="368">
            119 130 -19 55 -115 1 rlineto
            -37 vlineto
            -128 -142 rlineto
            -29 vlineto
            return
          </CharString>
          <CharString index="369">
            45 8 64 8 76 7 rrcurveto
            36 20 -13 -23 4 hvcurveto
            254 callgsubr
            return
          </CharString>
          <CharString index="370">
            13 callgsubr
            13 0 13 -1 13 vhcurveto
            return
          </CharString>
          <CharString index="371">
            rrcurveto
            -7 -44 -5 -42 -27 48 callsubr
            return
          </CharString>
          <CharString index="372">
            -42 171 73 118 56 65 115 122 hstemhm
            212 162 13 69 return
          </CharString>
          <CharString index="373">
            -57 227 252 callsubr
            hstem
            25 98 65 116 59 186 vstem
            return
          </CharString>
          <CharString index="374">
            -63 rmoveto
            6 154 6 185 194 vvcurveto
            return
          </CharString>
          <CharString index="375">
            -37 rmoveto
            61 66 5 8 37 hvcurveto
            -14 66 -8 return
          </CharString>
          <CharString index="376">
            -28 -97 -125 rcurveline
            4 -52 29 -55 49 -37 return
          </CharString>
          <CharString index="377">
            rmoveto
            118 callsubr
            return
          </CharString>
          <CharString index="378">
            -66 -62 114 -110 hhcurveto
            return
          </CharString>
          <CharString index="379">
            vhcurveto
            -32 -14 -30 -19 -24 -26 return
          </CharString>
          <CharString index="380">
            hhcurveto
            -67 -48 -63 -85 return
          </CharString>
          <CharString index="381">
            146 117 95 return
          </CharString>
          <CharString index="382">
            17 4 28 0 return
          </CharString>
          <CharString index="383">
            387 callgsubr
            -113 -11 -126 -19 -96 hvcurveto
            63 -24 -28 28 -47 hhcurveto
            return
          </CharString>
          <CharString index="384">
            85 -57 149 -49 49 36 120 4 104 hstemhm
            18 128 28 171 return
          </CharString>
          <CharString index="385">
            117 76 96 callsubr
            return
          </CharString>
          <CharString index="386">
            -11 -74 -8 -80 -78 vvcurveto
            -90 85 -57 105 125 122 109 102 vhcurveto
            return
          </CharString>
          <CharString index="387">
            -55 -47 136 327 151 return
          </CharString>
          <CharString index="388">
            132 180 138 7 69 return
          </CharString>
          <CharString index="389">
            127 114 74 114 hvcurveto
            return
          </CharString>
          <CharString index="390">
            -15 34 63 -12 51 hhcurveto
            return
          </CharString>
          <CharString index="391">
            148 118 171 return
          </CharString>
          <CharString index="392">
            -12 -11 -1 -3 -9 hvcurveto
            return
          </CharString>
          <CharString index="393">
            rrcurveto
            -3 -22 -2 return
          </CharString>
          <CharString index="394">
            28 -16 16 -27 -26 -18 -18 -26 -26 18 -19 26 27 16 17 28 vhcurveto
            return
          </CharString>
          <CharString index="395">
            50 -35 41 -5 -3 callgsubr
            return
          </CharString>
          <CharString index="396">
            -48 vvcurveto
            -198 14 -198 23 -197 vhcurveto
            -9 51 68 -4 53 hhcurveto
            return
          </CharString>
          <CharString index="397">
            -4 rrcurveto
            6 21 3 28 0 25 0 25 -3 23 13 flex1
            21 -76 return
          </CharString>
          <CharString index="398">
            -5 38 rrcurveto
            -15 -25 -33 -8 -24 hhcurveto
            -36 -18 13 24 393 callgsubr
            return
          </CharString>
          <CharString index="399">
            274 callgsubr
            127 -64 callsubr
            return
          </CharString>
          <CharString index="400">
            hhcurveto
            -140 -82 -58 -94 -83 65 -49 89 return
          </CharString>
          <CharString index="401">
            502 -456 139 113 171 return
          </CharString>
          <CharString index="402">
            15 81 116 15 137 hhcurveto
            2 hlineto
            return
          </CharString>
          <CharString index="403">
            vvcurveto
            -5 vlineto
            -31 43 -41 37 -46 30 rrcurveto
            return
          </CharString>
          <CharString index="404">
            47 -34 -34 27 -47 return
          </CharString>
          <CharString index="405">
            27 530 121 hstem
            25 158 84 121 37 148 vstem
            return
          </CharString>
          <CharString index="406">
            99 72 -22 35 -22 30 -27 26 rlinecurve
            -188 -150 rlineto
            -29 vlineto
            return
          </CharString>
          <CharString index="407">
            90 129 116 56 -51 callsubr
            349 callgsubr
            151 return
          </CharString>
          <CharString index="408">
            hhcurveto
            -131 -96 96 127 -58 hvcurveto
            -37 -8 -35 -11 -34 -13 rrcurveto
            return
          </CharString>
          <CharString index="409">
            121 32 102 139 385 callsubr
            627 -411 132 return
          </CharString>
          <CharString index="410">
            -53 0 -48 2 -43 vhcurveto
            endchar
          </CharString>
          <CharString index="411">
            253 callsubr
            endchar
          </CharString>
          <CharString index="412">
            -101 callsubr
            23 return
          </CharString>
          <CharString index="413">
            97 callgsubr
            hstemhm
            24 124 return
          </CharString>
          <CharString index="414">
            331 callgsubr
            hvcurveto
            return
          </CharString>
          <CharString index="415">
            211 390 callsubr
            94 142 return
          </CharString>
          <CharString index="416">
            111 hstemhm
            -60 146 -9 181 -105 166 -1 146 return
          </CharString>
          <CharString index="417">
            101 535 358 callsubr
            return
          </CharString>
          <CharString index="418">
            105 callsubr
            14 123 return
          </CharString>
          <CharString index="419">
            120 -45 122 -72 119 -106 return
          </CharString>
          <CharString index="420">
            hstem
            90 170 111 205 vstem
            return
          </CharString>
          <CharString index="421">
            148 -86 401 -197 171 return
          </CharString>
          <CharString index="422">
            180 callsubr
            59 -14 50 return
          </CharString>
          <CharString index="423">
            111 360 97 hstem
            25 201 return
          </CharString>
          <CharString index="424">
            -110 141 -104 143 return
          </CharString>
          <CharString index="425">
            -15 -36 -12 -20 -35 -8 -37 return
          </CharString>
          <CharString index="426">
            58 70 -53 -96 10 hvcurveto
            -4 return
          </CharString>
          <CharString index="427">
            50 203 callsubr
            return
          </CharString>
          <CharString index="428">
            vvcurveto
            -49 43 -30 63 vhcurveto
            return
          </CharString>
          <CharString index="429">
            181 -139 172 return
          </CharString>
          <CharString index="430">
            4 8 10 2 10 hhcurveto
            return
          </CharString>
          <CharString index="431">
            10 348 callgsubr
            return
          </CharString>
          <CharString index="432">
            -6 -34 7 -65 5 -24 return
          </CharString>
          <CharString index="433">
            2 70 5 70 vhcurveto
            return
          </CharString>
          <CharString index="434">
            60 56 35 50 hhcurveto
            return
          </CharString>
          <CharString index="435">
            27 599 118 hstem
            45 196 167 205 vstem
            return
          </CharString>
          <CharString index="436">
            -128 83 -73 93 139 108 159 153 vhcurveto
            return
          </CharString>
          <CharString index="437">
            197 callsubr
            -44 58 -44 37 -60 23 rrcurveto
            return
          </CharString>
          <CharString index="438">
            -51 callsubr
            777 -751 121 -44 98 198 return
          </CharString>
          <CharString index="439">
            hhcurveto
            150 125 138 231 119 -54 75 -94 return
          </CharString>
          <CharString index="440">
            114 102 88 return
          </CharString>
          <CharString index="441">
            -97 -28 -108 -52 -42 -33 3 -55 8 -45 30 -48 return
          </CharString>
          <CharString index="442">
            19 4 27 0 27 0 23 -3 22 17 flex1
            17 return
          </CharString>
          <CharString index="443">
            -109 28 65 -70 90 hhcurveto
            79 45 62 101 5 hvcurveto
            return
          </CharString>
          <CharString index="444">
            44 -260 136 42 109 504 -64 callsubr
            return
          </CharString>
          <CharString index="445">
            -159 143 551 -64 callsubr
            -37 118 -81 return
          </CharString>
          <CharString index="446">
            4 -45 9 -27 19 -41 73 -11 68 -38 40 -48 rrcurveto
            return
          </CharString>
          <CharString index="447">
            -7 -40 -5 -39 -1 -27 rrcurveto
            50 -28 -31 26 -37 hhcurveto
            return
          </CharString>
          <CharString index="448">
            119 -38 121 -72 124 -118 rrcurveto
            endchar
          </CharString>
          <CharString index="449">
            rmoveto
            -47 21 -43 25 -19 41 rrcurveto
            return
          </CharString>
          <CharString index="450">
            hstemhm
            0 355 -304 150 return
          </CharString>
          <CharString index="451">
            -13 -4 -22 -56 callsubr
            5 return
          </CharString>
          <CharString index="452">
            99 rlinecurve
            -29 -9 -42 -15 -38 -26 return
          </CharString>
          <CharString index="453">
            25 20 5 6 12 return
          </CharString>
          <CharString index="454">
            33 387 callgsubr
            return
          </CharString>
          <CharString index="455">
            165 -130 return
          </CharString>
          <CharString index="456">
            7 -29 -34 5 -27 hhcurveto
            -63 -37 -11 -15 -29 hvcurveto
            return
          </CharString>
          <CharString index="457">
            18 86 95 9 93 hhcurveto
            27 27 -1 -1 27 hvcurveto
            return
          </CharString>
          <CharString index="458">
            -37 101 163 116 -88 149 68 185 return
          </CharString>
          <CharString index="459">
            162 136 112 -100 95 66 -64 callsubr
            return
          </CharString>
          <CharString index="460">
            rmoveto
            -3 0 -2 -2 vvcurveto
            -33 52 -48 44 -50 33 return
          </CharString>
          <CharString index="461">
            rmoveto
            19 15 -6 -5 -7 -5 -6 -5 rlinecurve
            endchar
          </CharString>
          <CharString index="462">
            64 18 -30 -30 17 hvcurveto
            endchar
          </CharString>
          <CharString index="463">
            185 callsubr
            vhcurveto
            endchar
          </CharString>
          <CharString index="464">
            -19 38 74 -14 51 hhcurveto
            endchar
          </CharString>
          <CharString index="465">
            -51 callsubr
            707 return
          </CharString>
          <CharString index="466">
            55 41 24 37 28 hvcurveto
            return
          </CharString>
          <CharString index="467">
            112 291 108 return
          </CharString>
          <CharString index="468">
            627 -405 123 return
          </CharString>
          <CharString index="469">
            rmoveto
            -11 36 -6 44 58 return
          </CharString>
          <CharString index="470">
            70 87 13 19 52 hvcurveto
            return
          </CharString>
          <CharString index="471">
            48 -13 75 -10 31 vhcurveto
            return
          </CharString>
          <CharString index="472">
            151 hstemhm
            41 218 91 198 hintmask 10110000
            return
          </CharString>
          <CharString index="473">
            425 -274 123 -122 133 hstemhm
            return
          </CharString>
          <CharString index="474">
            hhcurveto
            27 11 -25 -48 -147 -37 -93 -41 hvcurveto
            return
          </CharString>
          <CharString index="475">
            115 -67 115 hstemhm
            31 79 280 79 return
          </CharString>
          <CharString index="476">
            -25 623 171 hstem
            218 199 vstem
            return
          </CharString>
          <CharString index="477">
            130 190 128 159 134 hstem
            return
          </CharString>
          <CharString index="478">
            271 callgsubr
            -123 221 return
          </CharString>
          <CharString index="479">
            187 136 29 -51 callsubr
            634 return
          </CharString>
          <CharString index="480">
            -46 124 -103 190 -73 92 rrcurveto
            -64 hlineto
            return
          </CharString>
          <CharString index="481">
            14 74 106 16 124 11 10 0 11 hhcurveto
            return
          </CharString>
          <CharString index="482">
            196 callgsubr
            endchar
          </CharString>
          <CharString index="483">
            rrcurveto
            39 27 37 51 76 vvcurveto
            return
          </CharString>
          <CharString index="484">
            33 47 29 44 20 rrcurveto
            -3 return
          </CharString>
          <CharString index="485">
            rmoveto
            -36 -51 19 40 -42 hvcurveto
            return
          </CharString>
          <CharString index="486">
            -66 165 -132 155 return
          </CharString>
          <CharString index="487">
            -240 141 -99 143 return
          </CharString>
          <CharString index="488">
            vvcurveto
            1 31 -9 30 -21 26 return
          </CharString>
          <CharString index="489">
            0 14 -1 13 vhcurveto
            return
          </CharString>
          <CharString index="490">
            149 84 147 return
          </CharString>
          <CharString index="491">
            14 -111 hhcurveto
            return
          </CharString>
          <CharString index="492">
            141 hstemhm
            0 return
          </CharString>
          <CharString index="493">
            -33 -34 27 -47 return
          </CharString>
          <CharString index="494">
            -19 flex1
            14 return
          </CharString>
          <CharString index="495">
            rrcurveto
            hintmask 10100000
            16 -46 17 -26 36 -33 27 return
          </CharString>
          <CharString index="496">
            98 254 98 132 88 67 126 return
          </CharString>
          <CharString index="497">
            110 callgsubr
            -67 166 return
          </CharString>
          <CharString index="498">
            21 -31 20 26 12 28 10 29 8 rrcurveto
            return
          </CharString>
          <CharString index="499">
            -13 -3 -22 0 return
          </CharString>
          <CharString index="500">
            127 hstemhm
            0 return
          </CharString>
          <CharString index="501">
            -2 -80 130 return
          </CharString>
        <CharString name=".notdef">
          -606 endchar
        </CharString>
        <CharString name=".null">
          -606 endchar
        </CharString>
        <CharString name="A">
          60 callgsubr
          hstem
          -9 681 vstem
          473 -117 -104 callgsubr
        </CharString>
        <CharString name="AE">
          306 141 137 18 159 115 165 hstemhm
          386 206 -176 176 hintmask 11101000
          435 -43 rmoveto
          151 261 22 11 35 hvcurveto
          48 -8 77 -11 30 vhcurveto
          -13 -65 -160 -19 -37 hhcurveto
          -5 53 -3 58 -1 59 rrcurveto
          9 73 77 4 72 hhcurveto
          63 -4 47 -12 49 vhcurveto
          hintmask 11110000
          -73 -67 -10 -19 -66 hvcurveto
          1 49 1 46 3 41 rrcurveto
          6 81 81 2 79 hhcurveto
          9 43 10 60 62 vvcurveto
          -163 -132 -20 -28 -149 hvcurveto
          13 -58 -57 10 -54 hhcurveto
          -69 -244 -64 -188 -120 -223 33 -42 61 -34 67 -11 rrcurveto
          hintmask 10101000
          20 41 27 56 29 65 62 7 63 3 63 1 rrcurveto
          hintmask 11101000
          6 -66 6 -63 7 -55 rrcurveto
          hintmask 10110000
          -148 311 rmoveto
          35 86 35 94 29 92 4 -84 6 -90 8 -88 -40 -2 -39 -3 -38 -5 rrcurveto
          endchar
        </CharString>
        <CharString name="Aacute">
          60 callgsubr
          636 17 hstem
          -9 681 vstem
          391 751 rmoveto
          -106 callgsubr
          82 -868 -104 callgsubr
        </CharString>
        <CharString name="Abreve">
          60 callgsubr
          490 88 hstem
          201 77 117 79 vstem
          201 909 rmoveto
          -52 callsubr
          -39 -21 -5 -6 -17 hvcurveto
          272 -1026 -104 callgsubr
        </CharString>
        <CharString name="Acircumflex">
          60 callgsubr
          hstem
          -9 681 vstem
          403 742 -99 callgsubr
          70 -859 -104 callgsubr
        </CharString>
        <CharString name="Adieresis">
          60 callgsubr
          477 162 hstem
          -9 681 vstem
          585 897 rmoveto
          -107 callgsubr
          -259 hmoveto
          -107 callgsubr
          147 -1014 -104 callgsubr
        </CharString>
        <CharString name="Agrave">
          60 callgsubr
          637 17 hstem
          210 155 vstem
          396 766 -79 callsubr
          77 -883 -104 callgsubr
        </CharString>
        <CharString name="Amacron">
          60 callgsubr
          509 102 hstem
          214 246 vstem
          214 803 -82 callsubr
          259 -920 -104 callgsubr
        </CharString>
        <CharString name="Aogonek">
          67 -298 79 354.5 141.5 hstem
          420 109 vstem
          526 -298 rmoveto
          359 callsubr
          -15 callsubr
          29 18 35 30 25 hvcurveto
          36 10 32 14 27 18 -81 callsubr
          22 45 23 55 22 61 70 9 71 3 70 1 20 -88 14 -88 9 -83 rrcurveto
          -35 -29 -18 -32 -41 321 callsubr
          -262 563 rmoveto
          23 73 22 75 18 68 25 -64 23 -69 21 -71 -45 -2 -43 -4 -44 -6 rrcurveto
          endchar
        </CharString>
        <CharString name="Aring">
          60 callgsubr
          468 50 100 47 hstem
          233 88 41 90 vstem
          359 942 -1 callgsubr
          130 -1012 -104 callgsubr
        </CharString>
        <CharString name="Atilde">
          60 callgsubr
          470 96 -64 96 hstemhm
          -9 681 -480 67 149 67 hintmask 11000100
          377 843 rmoveto
          hintmask 10101000
          -27 callgsubr
          hintmask 11000100
          -4 callgsubr
          96 -960 rmoveto
          81 10 67 18 51 34 -81 callsubr
          rrcurveto
          hintmask 11010000
          22 45 23 55 22 61 70 9 71 3 70 1 rrcurveto
          hintmask 11000100
          20 -88 15 -88 8 -83 rrcurveto
          hintmask 11010000
          -209 382 rmoveto
          23 73 22 75 18 68 25 -64 23 -69 21 -71 -45 -2 -43 -4 -44 -6 rrcurveto
          endchar
        </CharString>
        <CharString name="B">
          37 -20 120 529 113 hstemhm
          79 195 104 195 -152 202 hintmask 11101000
          304 -20 rmoveto
          176 143 123 164 64 -43 62 -92 27 hvcurveto
          hintmask 11110000
          60 41 25 55 61 vvcurveto
          102 -80 63 -170 -84 -85 -22 -36 -73 vhcurveto
          -2 -49 0 -49 -48 vvcurveto
          -167 7 -165 19 -166 vhcurveto
          hintmask 11101000
          -38 63 68 -22 68 hhcurveto
          hintmask 11110000
          -13 649 rmoveto
          60 27 -29 -51 -60 -32 -47 -72 -16 hvcurveto
          3 68 5 68 6 67 rrcurveto
          3 0 0 0 hvcurveto
          hintmask 11101000
          30 -529 rmoveto
          -18 -15 5 9 -17 hvcurveto
          -1 35 0 36 0 36 0 26 0 25 26 flex1
          8 20 19 5 19 hhcurveto
          70 22 -39 -45 -60 -43 -67 -57 hvcurveto
          endchar
        </CharString>
        <CharString name="C">
          240 callgsubr
          589 207 41 callsubr
        </CharString>
        <CharString name="CR">
          -606 endchar
        </CharString>
        <CharString name="Cacute">
          12 -35 360 callgsubr
          220 17 hstemhm
          35 220 161 187 -166 152 hintmask 11110100
          429 751 rmoveto
          -106 callgsubr
          160 -544 rmoveto
          55 callgsubr
          hintmask 11111000
          42 callsubr
          -210 118 -86 146 hvcurveto
          hintmask 11110100
          184 96 98 144 10 hvcurveto
          endchar
        </CharString>
        <CharString name="Ccaron">
          240 callgsubr
          397 748 -105 callgsubr
          192 -541 41 callsubr
        </CharString>
        <CharString name="Ccedilla">
          12 -252 63 62 63 29 360 callgsubr
          hstemhm
          35 220 97 110 -46 187 -166 152 hintmask 10111100
          323 -252 rmoveto
          86 53 44 62 hvcurveto
          hintmask 11111100
          50 -39 32 -53 -12 -11 -1 -3 -9 vhcurveto
          3 13 3 11 2 11 rrcurveto
          hintmask 10111001
          153 16 81 93 9 131 55 callgsubr
          hintmask 10111010
          42 callsubr
          -205 112 -87 141 -4 hvcurveto
          hintmask 11111100
          -3 -27 -9 -30 -12 -21 -65 callsubr
          hintmask 10111100
          191 callsubr
        </CharString>
        <CharString name="D">
          328 callsubr
          247 -9 30 callsubr
        </CharString>
        <CharString name="Dcaron">
          328 callsubr
          295 748 -105 callgsubr
          -48 -757 30 callsubr
        </CharString>
        <CharString name="Dcroat">
          -50 callgsubr
        </CharString>
        <CharString name="E">
          117 callsubr
          hstem
          64 225 vstem
          132 -43 -105 callsubr
        </CharString>
        <CharString name="Eacute">
          117 callsubr
          178 17 hstem
          64 225 vstem
          325 751 rmoveto
          -106 callgsubr
          -193 -794 -105 callsubr
        </CharString>
        <CharString name="Ecaron">
          117 callsubr
          hstem
          64 225 vstem
          313 748 rmoveto
          16 15 1 3 15 hvcurveto
          21 41 29 37 45 41 -11 15 -27 29 -42 15 -30 -30 -21 -25 -19 -27 -20 28 -18 19 -30 32 -42 -15 -25 -27 -14 -21 38 -32 37 -38 21 -41 rrcurveto
          -4 24 17 -1 21 hhcurveto
          -181 -791 -105 callsubr
        </CharString>
        <CharString name="Ecircumflex">
          117 callsubr
          hstem
          64 225 vstem
          365 88 callgsubr
          -233 -793 -105 callsubr
        </CharString>
        <CharString name="Edieresis">
          117 callsubr
          39 162 hstem
          64 225 vstem
          555 41 callgsubr
          -259 hmoveto
          -107 callgsubr
          -164 -960 -105 callsubr
        </CharString>
        <CharString name="Edotaccent">
          117 callsubr
          39 162 hstem
          64 225 vstem
          420 41 callgsubr
          -288 -960 -105 callsubr
        </CharString>
        <CharString name="Egrave">
          117 callsubr
          178 17 hstemhm
          64 225 -106 155 hintmask 11101000
          369 765 -79 callsubr
          hintmask 11110000
          -237 -808 -105 callsubr
        </CharString>
        <CharString name="Emacron">
          117 callsubr
          51 102 hstemhm
          64 225 -107 246 hintmask 00101000
          182 803 -82 callsubr
          hintmask 11110000
          -50 -846 -105 callsubr
        </CharString>
        <CharString name="Eogonek">
          3 -222 79 439 159 115 165 hstem
          64 225 118 109 vstem
          509 -222 rmoveto
          55 45 24 37 28 hvcurveto
          229 callgsubr
          48 -8 77 -11 30 vhcurveto
          -13 -65 -160 -19 -37 hhcurveto
          -5 53 -3 58 -1 59 rrcurveto
          9 73 77 5 callsubr
          1 49 1 46 3 41 rrcurveto
          6 81 81 2 79 hhcurveto
          9 43 10 60 62 vvcurveto
          -174 -154 -23 -31 -162 hvcurveto
          3 -214 37 -334 28 -176 rrcurveto
          101 151 10 10 99 hvcurveto
          -49 -34 -27 -36 -45 vvcurveto
          -54 39 -30 63 vhcurveto
          endchar
        </CharString>
        <CharString name="Eth">
          -50 callgsubr
        </CharString>
        <CharString name="Euro">
          12 -40 126 208 132 -8 10 120 120 hstemhm
          7 401 -391 396 -318 220 106 187 hintmask 10100100
          344 -40 rmoveto
          107 77 47 112 73 hvcurveto
          -23 45 -48 40 -52 10 rrcurveto
          -89 -23 -29 -39 -38 hhcurveto
          -29 -19 30 39 -11 hvcurveto
          24 3 25 5 27 5 325 callgsubr
          -33 -5 -31 -4 -30 -3 rrcurveto
          2 0 2 2 12 0 12 12 vvcurveto
          hintmask 10101000
          27 3 28 4 30 5 325 callgsubr
          rrcurveto
          hintmask 10110101
          -28 -3 -26 -3 -25 -2 rrcurveto
          78 11 20 50 24 hhcurveto
          21 20 -29 -101 hvcurveto
          94 36 12 25 57 hvcurveto
          136 -12 -70 77 -109 hhcurveto
          -144 -106 -106 -145 -47 hvcurveto
          hintmask 11001000
          -36 2 -38 3 -39 4 325 callsubr
          rrcurveto
          hintmask 11000010
          26 -4 28 -3 30 -2 rrcurveto
          -1 -10 -1 -10 -11 vvcurveto
          hintmask 10100100
          -25 2 -26 2 -27 3 325 callsubr
          27 -5 28 -3 30 -1 rrcurveto
          -125 33 90 -53 113 hhcurveto
          endchar
        </CharString>
        <CharString name="F">
          -43 269 161 hstem
          113 198 vstem
          113 -86 rmoveto
          82 52 8 13 51 hvcurveto
          7 100 4 113 2 112 rrcurveto
          7 61 62 2 60 hhcurveto
          64 -3 47 -13 50 vhcurveto
          -59 -55 -7 -12 -54 hvcurveto
          61 -2 57 -3 51 vhcurveto
          78 7 75 8 78 8 rrcurveto
          5 22 6 31 32 vvcurveto
          34 -3 28 -7 24 vhcurveto
          -179 -26 -128 -23 -175 -10 rrcurveto
          38 -218 20 -383 -200 vvcurveto
          endchar
        </CharString>
        <CharString name="G">
          36 -21 156 469 120 hstem
          35 210 157 198 vstem
          642 -14 -61 callsubr
          endchar
        </CharString>
        <CharString name="Gbreve">
          36 -21 156 469 120 43 88 hstemhm
          35 210 -30 77 110 198 -191 79 hintmask 11101010
          215 909 rmoveto
          -52 callsubr
          -39 -21 -5 -6 -17 hvcurveto
          hintmask 11110100
          427 -923 -61 callsubr
          endchar
        </CharString>
        <CharString name="H">
          81 -60 802 -461.5 163.5 hstemhm
          48 219 173 199 hintmask 10010000
          639 -60 rmoveto
          202 -7 331 -12 237 vhcurveto
          17 -24 -41 15 -48 hhcurveto
          -31 -26 -4 -8 -30 hvcurveto
          hintmask 01110000
          6 -68 5 -104 3 -114 -58 -2 -54 -6 -55 -9 2 109 4 102 6 64 379 callgsubr
          -57 -49 -16 -18 -28 hvcurveto
          -208 23 -286 15 -182 vhcurveto
          59 83 10 10 34 hvcurveto
          63 0 91 2 97 vhcurveto
          57 7 59 3 57 1 rrcurveto
          2 -126 1 -121 -81 vvcurveto
          hintmask 10010000
          -11 38 94 -7 67 hhcurveto
          endchar
        </CharString>
        <CharString name="I">
          -274 -32 721 384 callgsubr
          251 -12 -84 callsubr
        </CharString>
        <CharString name="Iacute">
          -274 913 17 384 callgsubr
          206 751 rmoveto
          -106 callgsubr
          45 -763 -84 callsubr
        </CharString>
        <CharString name="Icircumflex">
          -274 -32 961 384 callgsubr
          226 750 -99 callgsubr
          25 -762 -84 callsubr
        </CharString>
        <CharString name="Idieresis">
          -274 774 162 384 callgsubr
          406 41 callgsubr
          -259 hmoveto
          -107 callgsubr
          104 -929 -84 callsubr
        </CharString>
        <CharString name="Idotaccent">
          -274 774 162 384 callgsubr
          277 41 callgsubr
          -26 -929 -84 callsubr
        </CharString>
        <CharString name="Igrave">
          -274 907 17 hstemhm
          42 155 -112 188 hintmask 11000000
          228 759 -79 callsubr
          hintmask 10100000
          23 -771 -84 callsubr
        </CharString>
        <CharString name="Imacron">
          -274 786 102 hstemhm
          43 246 -204 188 hintmask 11000000
          43 803 -82 callsubr
          hintmask 10100000
          208 -815 -84 callsubr
        </CharString>
        <CharString name="Iogonek">
          -274 -230 79 hstemhm
          50 109 -74 188 hintmask 11000000
          156 -230 rmoveto
          359 callsubr
          hintmask 10100000
          162 callsubr
          23 40 38 25 hvcurveto
          12 2 11 3 8 2 rrcurveto
          14 148 8 219 171 vvcurveto
          57 -1 52 -2 42 vhcurveto
          9 -35 -25 3 -36 hhcurveto
          -55 -43 -16 -18 -27 hvcurveto
          29 -219 7 -253 -215 vvcurveto
          hintmask 11000000
          13 15 1 14 hhcurveto
          -50 -34 -27 -37 -49 321 callsubr
          endchar
        </CharString>
        <CharString name="J">
          -71 -88 129 hstem
          278 207 vstem
          229 -88 rmoveto
          106 87 73 167 31 hvcurveto
          23 122 9 102 187 vvcurveto
          57 -1 52 -2 42 vhcurveto
          200 callgsubr
          -58 -51 -15 -19 -28 hvcurveto
          23 -178 7 -198 -98 vvcurveto
          -150 -25 -27 -31 -35 -12 47 102 -16 vhcurveto
          -55 -7 -51 -19 -43 -37 rrcurveto
          -114 13 94 -101 112 hhcurveto
          endchar
        </CharString>
        <CharString name="K">
          47 -122 832 hstem
          55 203 13 callsubr
          endchar
        </CharString>
        <CharString name="L">
          -73 -73 154 hstem
          62 213 vstem
          538 -73 rmoveto
          364 callsubr
          -17 callgsubr
          196 callsubr
          endchar
        </CharString>
        <CharString name="Lacute">
          -73 -73 154 832 17 hstem
          62 213 vstem
          227 751 rmoveto
          -106 callgsubr
          311 -824 rmoveto
          364 callsubr
          -17 callgsubr
          196 callsubr
          endchar
        </CharString>
        <CharString name="Lcaron">
          -73 -73 154 344 255 hstem
          62 213 94 166 vstem
          480 425 18 callsubr
          58 -498 rmoveto
          364 callsubr
          -17 callgsubr
          196 callsubr
          endchar
        </CharString>
        <CharString name="Lslash">
          -73 -73 154 hstemhm
          62 213 -178 179 hintmask 10100000
          123 -106 rmoveto
          196 callsubr
          364 callsubr
          -64 -84 -12 -22 -77 hvcurveto
          -8 49 -4 57 -2 59 74 50 73 52 71 53 -14 45 -29 49 -31 25 rrcurveto
          hintmask 11000000
          -48 -38 -48 -36 -49 -36 1 121 6 112 11 64 rrcurveto
          2 -18 -17 1 -17 hhcurveto
          -66 -60 -10 -14 -53 hvcurveto
          -114 9 -153 12 -146 vhcurveto
          -44 -30 -45 -30 -45 -29 388 callsubr
          16 26 17 26 16 9 -76 8 -70 9 -54 rrcurveto
          endchar
        </CharString>
        <CharString name="M">
          231 -51 818 hstem
          621 183 vstem
          596 -51 rmoveto
          97 54 15 22 57 hvcurveto
          193 -3 315 -11 226 vhcurveto
          -51 24 -54 15 -51 7 -64 -88 -62 -107 -54 -124 -57 123 -78 109 -68 88 -64 -9 -73 -32 -54 -37 rrcurveto
          -205 20 -312 25 -176 vhcurveto
          62 86 9 11 36 hvcurveto
          -30 104 -20 169 164 vvcurveto
          49 -79 44 -83 39 -87 37 -7 49 -1 36 11 36 93 42 87 50 84 -4 -170 -8 -199 -13 -153 rrcurveto
          endchar
        </CharString>
        <CharString name="N">
          104 -45 807 hstem
          465 190 vstem
          262 -25 -85 callsubr
          endchar
        </CharString>
        <CharString name="Nacute">
          104 913 17 hstem
          465 190 vstem
          405 751 rmoveto
          -106 callgsubr
          -143 -776 -85 callsubr
          endchar
        </CharString>
        <CharString name="Ncaron">
          104 -45 975 hstem
          465 190 vstem
          363 748 -105 callgsubr
          -101 -773 -85 callsubr
          endchar
        </CharString>
        <CharString name="Ntilde">
          104 789 96 -64 96 hstemhm
          213 67 149 67 -31 190 hintmask 10110000
          398 885 rmoveto
          hintmask 01101000
          -27 callgsubr
          hintmask 10110000
          -4 callgsubr
          -136 -910 rmoveto
          194 vlineto
          76 0 83 1 78 vhcurveto
          72 -113 52 -118 67 -163 rrcurveto
          hintmask 10101000
          67 3 59 9 55 9 rrcurveto
          11 144 9 189 183 vvcurveto
          73 -2 72 -3 68 vhcurveto
          -75 -69 -14 -19 -60 hvcurveto
          14 -89 5 -138 -139 vvcurveto
          -57 139 -61 106 -72 104 -77 -3 -69 -18 -50 -26 -7 -3 -6 -4 -6 -4 rrcurveto
          -215 22 -296 16 -188 vhcurveto
          hintmask 10110000
          57 74 10 10 33 hvcurveto
          endchar
        </CharString>
        <CharString name="O">
          145 callsubr
          195 callsubr
          619 432 -100 callsubr
        </CharString>
        <CharString name="OE">
          338 -7 130 173 159 111 165 -115 130 hstemhm
          30 205 175 216 hintmask 11011100
          469 -23 rmoveto
          151 261 22 11 35 hvcurveto
          48 -8 77 -11 30 vhcurveto
          -13 -65 -160 -19 -37 hhcurveto
          -5 52 -3 47 -1 51 rrcurveto
          9 73 77 5 callsubr
          hintmask 11101100
          1 48 1 44 3 40 rrcurveto
          6 81 81 2 79 hhcurveto
          9 43 10 60 62 vvcurveto
          -131 -119 -13 -20 -120 hvcurveto
          hintmask 11011100
          32 -40 -52 16 -61 hhcurveto
          -207 -131 -175 -235 -174 68 -169 181 73 59 22 36 47 hvcurveto
          4 -26 3 -25 4 -23 rrcurveto
          -59 413 rmoveto
          -113 -7 -154 -81 -70 -17 132 109 151 29 101 61 62 23 -63 -163 vhcurveto
          endchar
        </CharString>
        <CharString name="Oacute">
          145 callsubr
          180 17 195 callsubr
          345 751 rmoveto
          -106 callgsubr
          274 -319 -100 callsubr
        </CharString>
        <CharString name="Ocircumflex">
          145 callsubr
          195 callsubr
          385 88 callgsubr
          234 -318 -100 callsubr
        </CharString>
        <CharString name="Odieresis">
          145 callsubr
          41 162 195 callsubr
          565 41 callgsubr
          -259 hmoveto
          -107 callgsubr
          313 -485 -100 callsubr
        </CharString>
        <CharString name="Ograve">
          145 callsubr
          181 17 hstemhm
          25 205 3 155 22 209 hintmask 11101100
          419 766 -79 callsubr
          hintmask 11110100
          200 -334 -100 callsubr
        </CharString>
        <CharString name="Ohungarumlaut">
          145 callsubr
          180 17 195 callsubr
          490 751 rmoveto
          -106 callgsubr
          -200 hmoveto
          -106 callgsubr
          329 -319 -100 callsubr
        </CharString>
        <CharString name="Omacron">
          145 callsubr
          53 102 hstemhm
          25 205 -28 246 -38 209 hintmask 11101000
          202 803 -82 callsubr
          hintmask 11110100
          417 -371 -100 callsubr
        </CharString>
        <CharString name="Oslash">
          145 callsubr
          hstem
          30 205 175 209 vstem
          235 351 rmoveto
          151 29 101 61 22 17 -8 -18 13 vhcurveto
          -46 -88 -47 -86 -48 -85 rrcurveto
          -1 11 0 11 11 vvcurveto
          87 -241 rmoveto
          -16 -14 7 13 -11 hvcurveto
          45 75 43 72 41 72 rrcurveto
          -109 -2 -12 -130 -74 hhcurveto
          -43 -130 rmoveto
          263 77 289 163 86 -18 69 -34 50 hvcurveto
          13 26 14 26 13 27 -32 35 -50 30 -41 10 -11 -23 -11 -23 -12 -23 rrcurveto
          7 -25 -27 4 -30 hhcurveto
          -207 -131 -175 -235 -91 19 -90 44 -65 hvcurveto
          -21 -33 -20 -33 -21 -33 38 -38 30 -15 49 -15 17 28 17 28 17 27 rrcurveto
          -8 23 27 -5 30 hhcurveto
          endchar
        </CharString>
        <CharString name="Otilde">
          145 callsubr
          56 96 -64 96 hstemhm
          25 205 -47 67 149 67 -56 209 hintmask 11101010
          368 885 rmoveto
          hintmask 11010101
          -27 callgsubr
          hintmask 11101010
          34 26 -32 47 hhcurveto
          53 32 49 77 -7 hvcurveto
          -15 7 -25 4 -27 -2 rrcurveto
          -27 -11 -12 -20 vhcurveto
          hintmask 11101001
          251 -453 -100 callsubr
        </CharString>
        <CharString name="P">
          28 629 113 hstem
          61 201 128 206 vstem
          270 -68 rmoveto
          -4 91 -5 92 94 vvcurveto
          210 60 125 130 148 vvcurveto
          113 -81 82 -174 -94 -108 -22 -36 -71 vhcurveto
          -4 -49 -3 -49 289 callsubr
          30 697 rmoveto
          76 14 -65 -53 -95 -43 -56 -85 -22 hvcurveto
          3 98 5 97 8 95 rrcurveto
          1 8 7 0 7 hhcurveto
          endchar
        </CharString>
        <CharString name="Q">
          60 -40 130 453 130 hstem
          30 205 184 209 vstem
          536 -130 rmoveto
          53 34 43 38 14 47 -29 36 -36 36 -40 34 rrcurveto
          64 90 23 115 82 vvcurveto
          202 -97 89 -164 -187 -150 -161 -239 -159 67 -154 181 65 54 16 26 45 vhcurveto
          33 -41 32 -45 29 -46 rrcurveto
          -215 220 rmoveto
          -67 -19 119 92 143 35 99 69 51 29 -46 -170 -42 -3 -50 -10 -43 hvcurveto
          -15 9 -16 8 -15 8 -32 -17 -19 -22 -12 -25 20 -17 19 -18 18 -19 rrcurveto
          -6 -9 -11 -3 -13 hhcurveto
          endchar
        </CharString>
        <CharString name="R">
          32 657 113 313 callsubr
          463 -55 -68 callgsubr
        </CharString>
        <CharString name="Racute">
          32 657 113 193 17 313 callsubr
          349 801 rmoveto
          -106 callgsubr
          114 -856 -68 callgsubr
        </CharString>
        <CharString name="Rcaron">
          32 657 113 313 callsubr
          327 803 -105 callgsubr
          136 -858 -68 callgsubr
        </CharString>
        <CharString name="S">
          -46 -40 163 callgsubr
          63 202 hintmask 11011000
          529 198 5 callgsubr
          hintmask 11101000
          95 callsubr
          hintmask 11011000
          235 callsubr
          endchar
        </CharString>
        <CharString name="Sacute">
          -46 -40 118 565 124 186 17 hstemhm
          -5 153 -90 206 63 202 hintmask 11101100
          370 791 rmoveto
          -106 callgsubr
          159 -593 5 callgsubr
          hintmask 11110100
          95 callsubr
          hintmask 11101100
          235 callsubr
          endchar
        </CharString>
        <CharString name="Scaron">
          -46 -40 163 callgsubr
          63 202 hintmask 11011000
          342 789 -105 callgsubr
          187 -591 5 callgsubr
          hintmask 11101000
          95 callsubr
          hintmask 11011000
          235 callsubr
          endchar
        </CharString>
        <CharString name="T">
          369 callsubr
          218 23 rmoveto
          81 51 8 13 50 hvcurveto
          -59 callgsubr
          endchar
        </CharString>
        <CharString name="Tcaron">
          369 callsubr
          301 809 -105 callgsubr
          -83 -786 rmoveto
          81 51 8 13 50 hvcurveto
          -59 callgsubr
          endchar
        </CharString>
        <CharString name="Thorn">
          28 474 113 98 15 hstem
          61 213 116 206 vstem
          270 -68 rmoveto
          -2 41 -2 41 -1 41 rrcurveto
          208 61 123 128 148 vvcurveto
          113 -81 82 -174 -22 -22 -1 -2 -23 vhcurveto
          3 34 3 34 3 33 -57 16 -83 5 -75 -12 rrcurveto
          -4 -49 -3 -59 289 callsubr
          -9 289 rmoveto
          82 2 85 4 83 vhcurveto
          2 11 11 1 11 hhcurveto
          76 14 -65 -53 -95 -44 -57 -85 -21 hvcurveto
          12 0 13 13 vvcurveto
          endchar
        </CharString>
        <CharString name="U">
          394 callsubr
          195 callgsubr
          574 412 -102 callsubr
        </CharString>
        <CharString name="Uacute">
          394 callsubr
          819 17 195 callgsubr
          307 707 rmoveto
          -106 callgsubr
          267 -295 -102 callsubr
        </CharString>
        <CharString name="Ucircumflex">
          394 callsubr
          195 callgsubr
          354 719 -99 callgsubr
          220 -307 -102 callsubr
        </CharString>
        <CharString name="Udieresis">
          394 callsubr
          696 162 195 callgsubr
          543 889 rmoveto
          -107 callgsubr
          -259 hmoveto
          -107 callgsubr
          290 -477 -102 callsubr
        </CharString>
        <CharString name="Ugrave">
          394 callsubr
          821 17 hstemhm
          35 215 -108 155 68 209 hintmask 11011000
          328 723 -79 callsubr
          246 -311 rmoveto
          112 -22 108 -17 80 vhcurveto
          -57 -95 -13 -25 -59 hvcurveto
          9 -39 32 -138 -147 vvcurveto
          -146 -13 -154 -50 vhcurveto
          hintmask 11101000
          -37 -15 115 140 102 11 111 17 101 hvcurveto
          9 -15 -29 6 -44 hhcurveto
          -39 -39 -6 -6 -22 hvcurveto
          -19 -35 -36 -161 -161 vvcurveto
          -172 51 -173 185 vhcurveto
          hintmask 11011000
          252 51 267 225 hvcurveto
          endchar
        </CharString>
        <CharString name="Uhungarumlaut">
          394 callsubr
          846 17 195 callgsubr
          422 734 rmoveto
          -106 callgsubr
          -200 hmoveto
          -106 callgsubr
          352 -322 -102 callsubr
        </CharString>
        <CharString name="Umacron">
          394 callsubr
          664 102 hstemhm
          35 215 -100 246 -31 209 hintmask 11010000
          150 731 -82 callsubr
          hintmask 11101000
          424 -319 -102 callsubr
        </CharString>
        <CharString name="Uogonek">
          -2 -296 79 138 129 hstemhm
          35 215 -81 109 87 209 hintmask 11011000
          275 -296 rmoveto
          359 callsubr
          -15 callsubr
          37 37 50 65 32 hvcurveto
          147 72 47 180 225 vvcurveto
          112 -22 108 -17 80 vhcurveto
          -57 -95 -13 -25 -59 hvcurveto
          9 -39 32 -138 -147 vvcurveto
          -146 -13 -154 -50 vhcurveto
          hintmask 11101000
          -37 -15 115 140 102 11 111 17 101 hvcurveto
          9 -15 -29 6 -44 hhcurveto
          -39 -39 -6 -6 -22 hvcurveto
          -19 -35 -36 -161 -161 vvcurveto
          -166 48 -167 169 -11 vhcurveto
          hintmask 11011000
          -54 -41 -29 -47 -40 vvcurveto
          -59 43 -30 63 vhcurveto
          endchar
        </CharString>
        <CharString name="Uring">
          394 callsubr
          662 50 100 47 hstemhm
          35 215 -79 88 41 90 -25 209 hintmask 11101100
          297 909 -1 callgsubr
          hintmask 11110010
          293 -450 -102 callsubr
        </CharString>
        <CharString name="V">
          16 -98 867 hstem
          0 627 vstem
          378 278 callgsubr
          -28 -216 -40 -252 -62 -181 -49 147 -30 209 -22 164 -80 -1 -76 -15 -60 -27 48 -243 74 -236 85 -216 rrcurveto
          64 67 6 16 40 hvcurveto
          endchar
        </CharString>
        <CharString name="W">
          320 -81 791 hstem
          -5 953 vstem
          352 -57 rmoveto
          53 136 36 137 32 151 11 -133 35 -132 28 -139 54 3 47 5 40 7 118 187 97 257 45 222 -41 34 -60 27 -80 5 -16 -153 -35 -159 -58 -169 -19 126 -15 115 -18 125 rrcurveto
          -63 2 -88 -11 -66 -15 -22 -123 -24 -128 -41 -142 -40 177 -29 166 -14 152 -78 -3 -74 -12 -72 -22 45 -257 63 -228 85 -232 56 1 61 9 47 14 rrcurveto
          endchar
        </CharString>
        <CharString name="X">
          43 -56 850 hstem
          -4 643 vstem
          479 -56 rmoveto
          50 25 60 36 32 35 -50 132 -55 120 -61 113 64 80 63 82 57 87 -32 46 -55 47 -51 24 -43 -80 -44 -70 -45 -67 -51 82 -53 79 -57 79 -66 -24 -72 -47 -50 -44 rrcurveto
          81 -90 70 -95 64 -100 -79 -107 -72 -84 -88 -106 22 -32 48 -46 34 -21 85 86 65 73 73 90 54 -96 50 -101 52 -106 rrcurveto
          endchar
        </CharString>
        <CharString name="Y">
          -42 -103 840 hstem
          -5 564 vstem
          246 -103 -20 callsubr
        </CharString>
        <CharString name="Yacute">
          -42 914 17 hstem
          -5 564 vstem
          328 752 rmoveto
          -106 callgsubr
          -82 -855 -20 callsubr
        </CharString>
        <CharString name="Ydieresis">
          -42 774 162 hstem
          -5 564 vstem
          552 41 callgsubr
          -259 hmoveto
          -107 callgsubr
          -47 -1020 -20 callsubr
        </CharString>
        <CharString name="Z">
          -16 -36 780 hstem
          10 570 vstem
          523 -36 -79 callgsubr
        </CharString>
        <CharString name="Zacute">
          -16 913 17 hstem
          10 570 vstem
          400 751 rmoveto
          -106 callgsubr
          123 -787 -79 callgsubr
        </CharString>
        <CharString name="Zcaron">
          -16 -36 966 hstem
          10 570 vstem
          363 748 -105 callgsubr
          160 -784 -79 callgsubr
        </CharString>
        <CharString name="Zdotaccent">
          -16 774 162 hstem
          10 570 vstem
          486 41 callgsubr
          37 -953 -79 callgsubr
        </CharString>
        <CharString name="a">
          97 callsubr
          282 callgsubr
          455 -37 -107 callsubr
        </CharString>
        <CharString name="aacute">
          97 callsubr
          191 17 282 callgsubr
          350 592 rmoveto
          -106 callgsubr
          105 -629 -107 callsubr
        </CharString>
        <CharString name="abreve">
          97 callsubr
          24 88 hstemhm
          24 199 -52 77 79 189 -151 79 hintmask 11100101
          171 729 rmoveto
          hintmask 11110101
          -52 callsubr
          hintmask 11100101
          -39 -21 -5 -6 -17 hvcurveto
          hintmask 11101010
          284 -766 -107 callsubr
        </CharString>
        <CharString name="acircumflex">
          97 callsubr
          282 callgsubr
          386 589 -99 callgsubr
          69 -626 -107 callsubr
        </CharString>
        <CharString name="acute">
          -346 733 17 hstem
          37 186 vstem
          150 571 rmoveto
          -106 callgsubr
          endchar
        </CharString>
        <CharString name="adieresis">
          97 callsubr
          31 162 282 callgsubr
          557 -8 callgsubr
          -259 hmoveto
          -107 callgsubr
          157 -774 -107 callsubr
        </CharString>
        <CharString name="ae">
          222 -56 111 -87 91 119 85 -55 97 119 104 -97 100 hstemhm
          24 199 97 191 103 176 hintmask 1001101110000000
          568 305 126 callsubr
          hintmask 1001011110000000
          -36 callsubr
          hintmask 1001101110000000
          89 callsubr
          hintmask 1001011110000000
          91 -73 65 -101 -65 -61 -26 -44 -49 vhcurveto
          hintmask 0110101110000000
          39 -29 -46 28 -71 hhcurveto
          -120 -98 -61 -65 -23 hvcurveto
          -58 21 56 -35 88 hhcurveto
          73 2 29 42 29 hhcurveto
          35 10 -48 -75 2 hvcurveto
          1 -12 0 -13 -14 vvcurveto
          1 -15 -20 0 -37 hhcurveto
          -164 -67 -53 -89 -94 73 -59 110 49 54 9 47 61 hvcurveto
          hintmask 1001101110000000
          -49 37 57 -31 69 hhcurveto
          140 callgsubr
          hvcurveto
          hintmask 0110101110000000
          -518 -24 rmoveto
          -31 -16 17 31 42 27 24 70 5 hvcurveto
          -2 vlineto
          -33 6 -33 12 -29 vhcurveto
          -14 -26 -26 -8 -16 hhcurveto
          endchar
        </CharString>
        <CharString name="agrave">
          97 callsubr
          189 17 hstemhm
          24 199 -32 155 -19 189 hintmask 11110100
          377 604 -79 callsubr
          hintmask 11111010
          78 -641 -107 callsubr
        </CharString>
        <CharString name="amacron">
          97 callsubr
          43 102 hstemhm
          24 199 -44 246 -98 189 hintmask 11110100
          179 623 -82 callsubr
          hintmask 11111010
          276 -660 -107 callsubr
        </CharString>
        <CharString name="ampersand">
          239 -74 135 322 11 232 97 hstemhm
          40 199 -17 179 72 174 -38 182 hintmask 11101010
          740 -87 rmoveto
          51 36 35 51 21 60 -42 15 -40 16 -37 17 24 43 17 50 10 55 6 34 4 35 2 37 -62 36 -73 3 -61 -18 rrcurveto
          8 -33 6 -32 -39 vvcurveto
          -33 -6 -32 -12 -28 vhcurveto
          -82 58 -57 68 -29 82 rrcurveto
          hintmask 11101100
          126 21 98 62 109 vvcurveto
          77 -67 60 -114 -167 -77 -112 -132 -27 2 -26 4 -26 vhcurveto
          hintmask 11110100
          -115 -30 -73 -83 -105 vvcurveto
          -153 134 -103 197 90 74 17 32 60 vhcurveto
          hintmask 11101010
          46 -23 48 -21 51 -18 rrcurveto
          hintmask 11101100
          -339 615 rmoveto
          61 11 37 29 21 11 -20 -34 -42 -19 -44 -48 -25 vhcurveto
          -3 22 -2 22 23 vvcurveto
          20 -467 rmoveto
          hintmask 11110100
          -108 -74 74 103 28 5 22 10 19 hvcurveto
          38 -96 69 -81 89 -66 rrcurveto
          hintmask 11101100
          -2 -9 -10 -1 -10 hhcurveto
          endchar
        </CharString>
        <CharString name="aogonek">
          -53 -238 79 162 91 119 85 161 104 hstemhm
          24 199 -37 109 32 189 hintmask 11111010
          270 94 rmoveto
          -31 -16 17 31 43 29 24 73 4 hvcurveto
          -1 -33 -3 -35 -4 -39 rrcurveto
          -8 -14 -14 -4 -19 hhcurveto
          146 -271 rmoveto
          hintmask 11110110
          -15 callsubr
          33 22 39 36 25 hvcurveto
          -5 34 36 -3 32 hhcurveto
          26 111 35 181 103 vvcurveto
          101 -43 104 -178 -136 -85 -70 -56 -20 vhcurveto
          -58 21 56 -35 88 hhcurveto
          73 2 29 42 29 hhcurveto
          41 6 -65 -97 1 hvcurveto
          1 -15 -20 0 -37 hhcurveto
          hintmask 11111010
          -164 -67 -53 -89 -94 73 -59 110 40 33 7 12 27 hvcurveto
          -1 -12 -2 -12 -1 -12 rrcurveto
          hintmask 11110110
          -75 -42 -42 -42 -61 321 callsubr
          hintmask 11111010
          359 callsubr
          endchar
        </CharString>
        <CharString name="approxequal">
          -105 143 115 -67 115 52 368 callsubr
          hintmask 10100100
          331 473 rmoveto
          hintmask 10011000
          99 callsubr
          1 -215 rmoveto
          hintmask 01101000
          99 callsubr
          endchar
        </CharString>
        <CharString name="aring">
          97 callsubr
          26 50 100 47 hstemhm
          24 199 -26 88 41 90 -89 189 hintmask 1110101100000000
          323 786 rmoveto
          -69 -57 -39 -69 hvcurveto
          hintmask 1111101100000000
          -52 32 -37 60 83 44 56 61 vhcurveto
          hintmask 1110101100000000
          53 -37 27 -56 vhcurveto
          -16 -47 rmoveto
          13 6 -11 -35 hvcurveto
          hintmask 1111101100000000
          -28 -5 -26 -17 -12 -7 16 28 vhcurveto
          hintmask 1110101100000000
          36 9 20 13 vhcurveto
          hintmask 1110110010000000
          148 -776 -107 callsubr
        </CharString>
        <CharString name="asa_ba">
          222 callsubr
          10 59 hintmask 11000000
          484 138 callsubr
          hintmask 11100000
          22 -3 20 -88 callsubr
          23 25 176 callsubr
          86 callsubr
          hintmask 11000000
          105 callgsubr
          -174 111 rmoveto
          -80 callgsubr
          -283 -87 rmoveto
          58 -9 76 -37 41 -44 22 12 18 22 8 22 -25 49 -89 56 -57 17 333 callgsubr
        </CharString>
        <CharString name="asa_ba.half">
          222 callsubr
          -71 callgsubr
          -174 77 rmoveto
          -29 37 -40 33 -44 23 38 19 43 17 41 14 rrcurveto
          -6 -44 -3 -45 -54 vvcurveto
          -22 -174 rmoveto
          -25 69 -78 55 -83 33 -55 -58 rcurveline
          90 -14 79 -39 54 -76 rrcurveto
          endchar
        </CharString>
        <CharString name="asa_ba_ukaar">
          -74 callgsubr
          -457 24 rmoveto
          74 -11 108 -66 40 -73 22 12 18 22 8 22 -34 74 -110 86 -74 22 333 callgsubr
        </CharString>
        <CharString name="asa_ba_uukaar">
          310 callsubr
          -397 146 81 116 hintmask 10110000
          65 callsubr
          -18 63 -8 87 -2 111 29 11 29 13 28 10 62 callsubr
          rlineto
          hintmask 11000000
          -41 -12 -36 -19 -40 -17 2 42 3 41 3 42 -6 2 rcurveline
          -103 callgsubr
          92 -19 81 -51 60 -102 rrcurveto
          hintmask 10110000
          105 callgsubr
          -457 24 rmoveto
          74 -11 108 -66 40 -73 22 12 18 22 8 22 -34 74 -110 86 -74 22 333 callgsubr
        </CharString>
        <CharString name="asa_ra">
          -81 347 callgsubr
          317 141 8 59 hintmask 11000000
          489 hmoveto
          -22 71 -9 101 131 vvcurveto
          71 3 71 5 70 vhcurveto
          hintmask 11100000
          22 -4 20 -3 -87 callsubr
          23 26 176 callsubr
          -146 -49 -105 -63 -78 -77 4 -69 21 -57 40 -64 98 callsubr
          hintmask 11000000
          48 71 10 27 51 hvcurveto
          -172 222 rmoveto
          -18 30 -23 27 -26 24 25 14 25 13 25 10 -4 -38 -2 -39 -2 -41 rrcurveto
          -2 -115 rmoveto
          -11 0 -10 -11 vvcurveto
          -37 66 -61 55 -63 39 10 9 10 8 11 8 50 -25 45 -40 35 -58 rrcurveto
          -10 0 -10 -10 vvcurveto
          endchar
        </CharString>
        <CharString name="asa_ra.half">
          -81 347 callgsubr
          316.5 139.5 -71 callgsubr
          -170 175 rmoveto
          -10 11 -10 11 -12 10 12 4 13 5 12 4 -2 -15 -2 -15 -1 -15 rrcurveto
          -4 -98 rmoveto
          -29 37 -40 33 -44 23 9 4 9 4 9 5 32 -18 29 -22 25 -30 rrcurveto
          -11 0 -12 -13 vvcurveto
          endchar
        </CharString>
        <CharString name="asa_ra_ukaar">
          101 80 167 callgsubr
          0 707 -397 148 -145 143 143 93 hintmask 00100110
          220 callgsubr
          hintmask 11101010
          -3 -122 178 callsubr
          174 -111 rmoveto
          -14 50 -8 64 -4 79 rrcurveto
          -73 28 40 -36 53 1 callgsubr
          hvcurveto
          hintmask 01110000
          -39 callgsubr
          hintmask 11100110
          36 callgsubr
          -31 -49 29 62 -13 hvcurveto
          2 65 4 64 5 64 -6 2 rcurveline
          hintmask 00110000
          -103 callgsubr
          92 -19 81 -51 60 -102 rrcurveto
          hintmask 11101010
          105 callgsubr
          endchar
        </CharString>
        <CharString name="asa_ra_uukaar">
          310 callsubr
          -394 143 81 116 hintmask 10110000
          220 callgsubr
          171 -233 rmoveto
          -18 63 -8 87 -2 111 29 11 29 13 28 10 62 callsubr
          rlineto
          hintmask 11000000
          -41 -12 -36 -19 -40 -17 2 42 3 41 3 42 -6 2 rcurveline
          -103 callgsubr
          92 -19 81 -51 60 -102 rrcurveto
          hintmask 10110000
          105 callgsubr
          -174 111 178 callsubr
          endchar
        </CharString>
        <CharString name="asciicircum">
          -106 122 443 hstem
          -4 508 vstem
          394 122 rmoveto
          44 9 29 9 37 19 373 callsubr
          -73 -92 -103 -190 -46 -124 37 -19 29 -9 44 -9 42 98 48 93 54 85 54 -85 48 -93 42 -98 rrcurveto
          endchar
        </CharString>
        <CharString name="asciitilde">
          -106 252 368 callsubr
          hintmask 10010000
          331 367 rmoveto
          hintmask 01100000
          -66 -48 48 -66 hhcurveto
          -85 -43 -58 -103 8 hvcurveto
          26 -9 31 -4 22 1 rrcurveto
          39 -1 14 19 46 hhcurveto
          hintmask 10010000
          55 46 -48 79 hhcurveto
          86 43 57 103 -9 hvcurveto
          -19 9 -38 4 -22 -1 rrcurveto
          -40 1 -14 -17 -46 hhcurveto
          endchar
        </CharString>
        <CharString name="asterisk">
          -92 286 448 hstemhm
          208 92 -88 85 hintmask 10100000
          323 304 rmoveto
          -12 46 -9 39 -5 48 45 -33 41 -28 35 -22 13 14 10 13 9 17 14 24 5 26 -1 16 -39 16 -38 16 -40 16 48 20 44 21 29 18 -5 18 -6 16 -10 16 rrcurveto
          -14 24 -20 18 -14 7 rrcurveto
          hintmask 11000000
          -34 -34 -30 -26 -39 -29 7 55 3 49 1 42 rrcurveto
          5 -18 -16 2 -19 hhcurveto
          -28 -25 -9 -9 -14 hvcurveto
          6 -43 5 -40 6 -42 -41 30 -41 28 -30 17 -13 -14 -10 -13 -9 -17 -14 -24 -5 -26 1 -16 46 -13 38 -12 43 -19 -51 -22 -43 -21 -37 -20 5 -18 6 -16 10 -16 rrcurveto
          14 -24 20 -18 14 -7 rrcurveto
          hintmask 10100000
          35 26 32 25 34 27 -6 -51 -4 -49 1 -35 rrcurveto
          -5 18 16 -2 19 hhcurveto
          28 25 9 9 14 hvcurveto
          endchar
        </CharString>
        <CharString name="at">
          309 -123 106 102 80 -68 105 244 82 22 8 74 101 hstemhm
          25 131 104 148 75 143 149 116 hintmask 1100111111000000
          427 -123 rmoveto
          103 75 22 42 74 hvcurveto
          -19 35 -26 31 -31 29 rrcurveto
          -33 -44 -44 -20 -80 hhcurveto
          -190 -89 131 192 196 125 130 217 180 97 -98 -167 -121 -49 -81 -45 -36 -19 42 98 69 1 61 6 115 hvcurveto
          -31 7 -45 7 -79 -16 rrcurveto
          hintmask 1011111111000000
          -7 1 -7 -6 vvcurveto
          -4 -4 0 -4 hhcurveto
          -128 -79 -97 -148 -100 39 -86 90 49 43 24 67 27 hvcurveto
          hintmask 1100111111000000
          -64 21 52 -39 84 hhcurveto
          105 121 98 182 188 -111 180 -270 -298 -187 -195 -261 -234 141 -166 261 hvcurveto
          hintmask 1011111111000000
          20 325 rmoveto
          -25 -14 34 66 95 28 49 39 hvcurveto
          3 3 0 2 hhcurveto
          4 -57 2 -47 4 -43 rrcurveto
          -72 -11 -19 -25 -16 hhcurveto
          endchar
        </CharString>
        <CharString name="atilde">
          97 callsubr
          39 96 -64 96 hstemhm
          24 199 -55 67 92 189 -132 67 hintmask 1111010010000000
          353 698 rmoveto
          hintmask 1110101100000000
          -27 callgsubr
          hintmask 1111010010000000
          -4 callgsubr
          hintmask 1111010100000000
          102 -735 -107 callsubr
        </CharString>
        <CharString name="b">
          -37 -60 130 310 123 hstem
          55 193 92 199 vstem
          264 -60 rmoveto
          150 125 138 191 145 -54 89 -117 -46 -33 -16 -26 -25 hvcurveto
          7 88 11 76 13 63 337 callgsubr
          -7 -73 -2 -88 -93 vvcurveto
          -146 6 -159 8 -117 vhcurveto
          -22 41 56 -32 98 hhcurveto
          11 130 rmoveto
          -8 -10 4 6 -9 hvcurveto
          88 2 82 4 76 vhcurveto
          38 13 15 16 20 hhcurveto
          31 7 -38 -41 -127 -17 -104 -48 hvcurveto
          endchar
        </CharString>
        <CharString name="backslash">
          -142 -210 971 hstem
          -44 561 vstem
          403 -210 rmoveto
          33 11 55 24 26 22 -104 193 -250 537 -65 184 -39 -3 -62 -30 -41 -44 111 -259 190 -382 146 -253 rrcurveto
          endchar
        </CharString>
        <CharString name="bar">
          -330 725 8 hstem
          60 131 vstem
          80 -167 rmoveto
          34 -4 44 4 33 10 -5 188 14 521 16 173 -37 13 -64 -2 -55 -23 rrcurveto
          -237 4 -391 16 -252 vhcurveto
          endchar
        </CharString>
        <CharString name="bn_a">
          142 41 173 171 116 35 -64 callsubr
          170 124 65 109 30 166 hintmask 11100100
          606 -39 rmoveto
          37 93 21 160 130 vvcurveto
          65 -5 58 -4 53 vhcurveto
          35 -5 31 -5 27 -6 151 callgsubr
          20 -74 -118 16 -151 hhcurveto
          -168 -145 -16 -20 -92 -64 callgsubr
          17 96 140 15 164 hhcurveto
          34 33 -1 -1 31 hvcurveto
          11 -65 4 -74 0 -113 0 -77 -3 -65 -57 flex1
          hintmask 11111100
          -13 25 -15 23 -15 22 rrcurveto
          8 25 5 28 30 61 callsubr
          35 31 11 18 24 hvcurveto
          27 -24 25 -28 23 -34 rrcurveto
          hintmask 11100100
          -13 30 61 -10 44 hhcurveto
          endchar
        </CharString>
        <CharString name="bn_aa">
          430 35 173 171 116 46 139 hstem
          169 124 65 109 42 145 138 163 81 11 vstem
          964 -50 rmoveto
          -13 149 -1 180 22 188 15 18 20 14 29 5 12 38 5 72 -17 25 -54 -10 -53 -22 -41 -37 rrcurveto
          79 -87 -196 31 -170 hhcurveto
          -177 -161 -18 -23 -97 99 callgsubr
          rrcurveto
          20 101 156 17 173 hhcurveto
          41 40 -1 -2 40 hvcurveto
          -32 -115 -10 -151 -165 -5 0 -5 -5 vvcurveto
          -15 21 -18 21 -21 19 rrcurveto
          8 23 4 26 28 61 callsubr
          41 34 14 24 27 hvcurveto
          41 -27 37 -36 30 -47 rrcurveto
          51 70 9 24 45 hvcurveto
          -19 72 -8 102 133 vvcurveto
          74 5 77 10 71 vhcurveto
          80 -15 60 -29 15 -58 -23 -200 -4 -147 -5 -131 37 -3 78 0 57 8 rrcurveto
          endchar
        </CharString>
        <CharString name="bn_aakaar">
          -72 711 hstem
          -10 324 callsubr
          vstem
          206 63 callsubr
          endchar
        </CharString>
        <CharString name="bn_aakaar.b">
          508 137 hstem
          348 callgsubr
          vstem
          206 -72 rmoveto
          11 156 9 189 1 197 14 17 20 12 27 5 12 38 5 72 -17 25 -46 -8 -46 -18 -37 -27 -25 45 -39 15 -39 192 callsubr
          39 6 -37 -90 hvcurveto
          -6 -179 -14 -135 -26 -122 rrcurveto
          -10 37 76 -7 59 hhcurveto
          endchar
        </CharString>
        <CharString name="bn_ai">
          129 258 callsubr
          297 73 hintmask 01110110
          447 -41 rmoveto
          324 callgsubr
          14 123 10 134 2 158 rrcurveto
          71 77 36 69 85 vvcurveto
          105 -53 79 -128 17 vhcurveto
          -83 11 -77 10 -35 18 -16 345 callsubr
          23 -154 72 -30 145 -17 rrcurveto
          122 -14 66 -8 -57 vvcurveto
          -29 -17 -28 -26 -26 vhcurveto
          80 -26 -72 48 -77 hhcurveto
          -130 -120 -135 370 callgsubr
          hvcurveto
          -54 callgsubr
          hintmask 10111110
          -20 callgsubr
          hintmask 01110110
          157 callgsubr
          endchar
        </CharString>
        <CharString name="bn_aikaar">
          -251 -88 103 681 128 -107 128 343 callsubr
          hintmask 10101000
          280 -88 -17 callsubr
          hintmask 10110000
          123 callsubr
          108 -20 -52 98 -95 hhcurveto
          hintmask 11010000
          219 callsubr
          hintmask 10110000
          46 47 21 41 hhcurveto
          64 17 -47 -49 12 hvcurveto
          -42 -12 -35 -16 -27 -19 -39 28 -57 21 -76 16 rrcurveto
          -7 -16 -3 -22 0 -26 0 -27 4 -29 -15 flex1
          hintmask 10101000
          165 callsubr
          234 callgsubr
          endchar
        </CharString>
        <CharString name="bn_aikaar.init">
          -240 -88 103 681 128 -107 128 hstemhm
          25 150 112 79 hintmask 10111000
          265 -88 rmoveto
          62 47 25 56 43 hvcurveto
          41 -52 76 -45 25 vhcurveto
          -92 -40 -21 -28 -29 hhcurveto
          -35 -20 60 107 216 53 90 138 16 hvcurveto
          6 17 5 31 0 25 0 30 -3 18 14 flex1
          108 -20 -52 98 -95 hhcurveto
          hintmask 11011000
          219 callsubr
          hintmask 10111000
          46 47 21 41 hhcurveto
          65 16 -48 -50 12 hvcurveto
          -181 -58 -81 -125 -215 vvcurveto
          -183 98 -126 142 vhcurveto
          endchar
        </CharString>
        <CharString name="bn_anusvar">
          -147 320 103 123 102 hstem
          58 103 129 103 vstem
          393 240 callsubr
          80 77 96 2 244 callsubr
          283 -477 rmoveto
          -65 122 -162 128 -140 49 -34 -38 -26 -48 -18 -58 126 -30 150 -89 75 -127 42 20 35 36 17 35 rrcurveto
          endchar
        </CharString>
        <CharString name="bn_au">
          206 265 callsubr
          138 120 4 74 hintmask 11110101
          496 -42 rmoveto
          hintmask 11110110
          371 callgsubr
          19 20 14 25 9 27 rrcurveto
          hintmask 11111101
          65 77 37 79 86 vvcurveto
          110 -59 72 -126 18 vhcurveto
          -83 12 -76 11 -32 16 -16 100 rlinecurve
          -28 -10 -41 -16 -37 -29 22 -146 70 -32 145 -19 rrcurveto
          122 -16 65 -9 -61 vvcurveto
          -27 -12 -28 -20 -25 vhcurveto
          79 -35 -82 50 -99 hhcurveto
          -144 -117 -106 -129 3 hvcurveto
          147 callsubr
          hintmask 11110110
          132 callsubr
          hintmask 11110101
          149 callsubr
        </CharString>
        <CharString name="bn_aukaar">
          211 callgsubr
          188 231 callsubr
          -60 344 callgsubr
          hintmask 100110100101010100100000
          1289 267 callsubr
          hintmask 000000100000000001010000
          33 callsubr
          hintmask 100000000000000000100000
          54 callsubr
          hintmask 100110100101010100100000
          -6 36 74 -4 57 hhcurveto
          -1009 -25 24 callsubr
          hintmask 100110100101010100100000
          234 callgsubr
          hintmask 000000010000010000000000
          484 668 rmoveto
          28 -17 17 -27 -27 -16 -17 -28 -28 16 -16 27 28 16 16 28 vhcurveto
          hintmask 000000100000101000000000
          144 -40 -1 callsubr
          hintmask 000001000001000100000000
          393 -104 rmoveto
          191 callgsubr
          -26 19 -19 26 26 16 17 28 vhcurveto
          -498 -1 279 callgsubr
          hintmask 000010000010000010000000
          -37 -140 rmoveto
          287 callgsubr
          574 hmoveto
          287 callsubr
          hintmask 000100000001000100000000
          -39 -5 callgsubr
        </CharString>
        <CharString name="bn_aumark">
          -63 1073 hstemhm
          -83 344 callgsubr
          hintmask 10100000
          215 267 callsubr
          hintmask 11010000
          33 callsubr
          hintmask 10100000
          54 callsubr
          -6 36 74 -4 57 hhcurveto
          endchar
        </CharString>
        <CharString name="bn_aumark_reph">
          -63 1164 hstemhm
          -83 344 callgsubr
          hintmask 10100000
          215 267 callsubr
          hintmask 11010000
          14 17 20 12 27 5 365 callgsubr
          30 383 callgsubr
          22 11 flex1
          -18 -3 -18 -5 -18 -6 rrcurveto
          3 13 2 15 17 vvcurveto
          64 -31 46 -61 42 vhcurveto
          71 75 64 86 26 71 -11 20 -22 19 -23 8 -31 -75 -68 -85 -77 -69 rrcurveto
          -24 22 -14 26 37 vvcurveto
          15 2 17 4 21 vhcurveto
          -34 1 -42 -1 -43 -14 rrcurveto
          -5 -25 -3 -23 -20 vvcurveto
          -58 23 -40 38 -35 vhcurveto
          -22 -15 -22 -13 -21 -10 18 -32 22 -27 26 -19 24 15 26 19 27 23 rrcurveto
          66 -43 40 -23 -39 vvcurveto
          -27 -8 -19 -15 -15 vhcurveto
          hintmask 10100000
          54 callsubr
          -6 36 74 -4 57 hhcurveto
          endchar
        </CharString>
        <CharString name="bn_avagraha">
          -92 369 75 59 97 hstem
          73 99 146 136 vstem
          215 444 rmoveto
          -25 -18 12 18 16 15 13 33 20 18 -6 -9 14 hvcurveto
          -23 -1 -22 -21 -34 hhcurveto
          222 -494 215 callsubr
          85 16 58 48 84 vvcurveto
          52 -22 54 -35 44 vhcurveto
          17 52 12 50 9 49 -30 19 -51 15 -42 4 -4 -30 -7 -37 -10 -38 rrcurveto
          14 -30 -33 8 -33 hhcurveto
          -63 -59 -29 -70 -95 95 -37 78 30 24 6 13 18 hvcurveto
          -34 -7 -31 -17 -65 hhcurveto
          -57 -69 13 29 -65 hvcurveto
          20 -175 145 callgsubr
          rlinecurve
          endchar
        </CharString>
        <CharString name="bn_b_ba">
          349 541 -64 callsubr
          310 146 284 146 10 59 hintmask 11100000
          520 541 rmoveto
          hintmask 11110000
          93 90 -6 -8 79 hvcurveto
          -1 -4 -1 -4 -1 -5 -142 -50 -104 -64 -77 -78 1 73 4 73 6 73 rrcurveto
          hintmask 11100000
          18 17 0 18 hhcurveto
          394 -545 rmoveto
          -20 72 -8 102 133 vvcurveto
          70 4 71 6 69 vhcurveto
          hintmask 11110000
          22 -3 20 -3 17 -3 -82 callgsubr
          18 -90 -169 23 -176 hhcurveto
          -210 -203 -19 -22 -107 -99 callsubr
          80 13 129 14 145 6 -2 -8 -1 -7 -2 -8 86 callsubr
          105 callgsubr
          -18 65 -8 88 -2 114 10 -43 19 -41 29 -44 98 callsubr
          hintmask 11100000
          105 callgsubr
          -604 111 rmoveto
          -80 callgsubr
          430 hmoveto
          -80 callgsubr
          endchar
        </CharString>
        <CharString name="bn_b_bha">
          337 callsubr
          208 105 119 138 -65 105 -34 74 hintmask 10101000
          432 233 rmoveto
          -7 0 -7 -6 vvcurveto
          -44 36 -47 32 -52 27 45 25 51 23 51 22 rrcurveto
          -3 -44 -1 -46 -55 vvcurveto
          -47 -493 rmoveto
          hintmask 10100100
          144 81 81 115 41 -10 40 -16 35 hvcurveto
          hintmask 10101000
          -18 82 4 113 120 vvcurveto
          55 2 47 4 46 vhcurveto
          hintmask 11110010
          28 -4 25 -3 21 -4 rrcurveto
          -10 callsubr
          -129 14 -120 hhcurveto
          43 callsubr
          14 79 126 13 118 hhcurveto
          38 39 -1 -3 39 hvcurveto
          -128 -49 -115 -57 -80 -59 180 callsubr
          116 -4 102 -56 54 -82 rrcurveto
          -2 0 -3 -2 vvcurveto
          -33 -40 -37 -23 84 callgsubr
          vhcurveto
          hintmask 11100100
          44 41 17 31 36 hvcurveto
          228 callgsubr
          hintmask 10101000
          355 callgsubr
        </CharString>
        <CharString name="bn_b_da">
          175 533 140 hstemhm
          0 781 -443 132 87 127 hintmask 10110000
          699 -17 rmoveto
          161 callsubr
          14 -1 13 vhcurveto
          hintmask 11000000
          124 -4 114 -11 74 -14 -13 callgsubr
          21 -81 -154 13 -158 hhcurveto
          hintmask 10110000
          -158 -140 -13 -21 -90 -99 callsubr
          80 15 111 11 130 3 -97 -41 -87 -47 -63 -47 180 callsubr
          89 -3 64 -36 9 -71 33 -24 288 callsubr
          -46 5 -46 8 -42 vhcurveto
          118 callsubr
          -388 272 rmoveto
          -17 33 -26 30 -29 23 31 18 33 17 35 16 -7 -46 -9 -46 -11 -45 rrcurveto
          endchar
        </CharString>
        <CharString name="bn_b_da_ukaar">
          -74 callgsubr
          endchar
        </CharString>
        <CharString name="bn_b_da_uukaar">
          310 callsubr
          -397 146 81 116 hintmask 10110000
          65 callsubr
          -18 63 -8 87 -2 111 29 11 29 13 28 10 62 callsubr
          rlineto
          hintmask 11000000
          -41 -12 -36 -20 -40 -16 2 42 3 41 3 42 -6 2 rcurveline
          -103 callgsubr
          92 -19 81 -51 60 -102 rrcurveto
          hintmask 10110000
          105 callgsubr
          endchar
        </CharString>
        <CharString name="bn_b_dha">
          75 534 -51 callsubr
          681 -318 107 44 116 hintmask 10110000
          294 258 rmoveto
          -23 15 -26 14 -25 14 49 28 58 26 35 9 rrcurveto
          1 -24 0 -25 -27 vvcurveto
          -24 -10 -23 -9 -22 -11 rrcurveto
          220 -160 rmoveto
          113 callgsubr
          175 callsubr
          hintmask 11000000
          93 -6 83 -10 57 -23 callgsubr
          295 callsubr
          3 -8 2 -9 3 -9 -100 -35 -125 -64 -48 -37 3 -50 16 -38 29 -47 28 -7 28 -7 27 -10 -44 -24 -40 -25 -33 -24 340 callgsubr
          hintmask 10110000
          283 callsubr
          23 76 16 140 7 120 16 6 16 6 16 6 rrcurveto
          -2 -35 -1 -35 -39 vvcurveto
          -207 -130 52 callgsubr
          endchar
        </CharString>
        <CharString name="bn_b_ja">
          -13 callsubr
          hintmask 11111000
          120 -4 107 -13 70 -15 -101 callsubr
          21 -77 -148 17 -156 hhcurveto
          -156 -137 -17 -21 -86 hvcurveto
          -7 104 callgsubr
          54 11 72 11 83 6 -80 -35 -71 -38 -53 -39 3 -45 8 -40 17 -35 100 6 77 -22 44 -38 rrcurveto
          hintmask 11110111
          -32 30 40 -17 39 hhcurveto
          36 27 15 17 26 hvcurveto
          -59 -4 -23 -50 -65 hhcurveto
          -96 -94 59 97 -24 hvcurveto
          -36 -11 -36 -14 -33 -17 rrcurveto
          -122 27 93 -151 188 hhcurveto
          128 69 98 143 hvcurveto
          -347 186 rmoveto
          -18 2 -17 4 -16 vhcurveto
          -25 17 -24 15 -22 11 21 12 22 11 23 11 rrcurveto
          -1 -9 0 -9 -8 vvcurveto
          endchar
        </CharString>
        <CharString name="bn_b_la">
          -81 -245 102 50 151 callsubr
          484 -64 callsubr
          -49 82 269 138 -115 200 hintmask 11011100
          194 callsubr
          40 33 46 223 callgsubr
          -174 -261 193 callsubr
          32 20 -21 -31 25 hvcurveto
          hintmask 10111100
          22 -30 -68 callsubr
          26 40 -63 -96 9 vhcurveto
          118 callgsubr
          -32 125 -11 182 202 vvcurveto
          85 2 70 5 71 vhcurveto
          hintmask 10111010
          29 -4 27 -5 22 -5 -95 callsubr
          15 16 0 -1 16 hvcurveto
          -6 -1 -5 -5 35 callsubr
          78 -18 97 -41 39 -104 rrcurveto
          38 -21 -27 22 -36 hhcurveto
          -30 -22 -24 -40 -12 hvcurveto
          hintmask 11011100
          38 -22 -29 24 -33 273 callsubr
          -87 62 -46 86 -9 hvcurveto
          19 26 10 48 36 vvcurveto
          endchar
        </CharString>
        <CharString name="bn_b_ra">
          -81 -159 143 547 -64 callsubr
          -37 118 221 138 -115 200 hintmask 11010000
          194 callsubr
          40 33 46 257 callgsubr
          -29 114 -7 169 186 vvcurveto
          85 2 70 5 71 vhcurveto
          hintmask 11101000
          29 -4 27 -5 22 -5 -95 callsubr
          15 16 0 -1 16 hvcurveto
          -6 -1 -5 -5 -29 callgsubr
          hintmask 11010000
          24 callgsubr
        </CharString>
        <CharString name="bn_b_ra_ukaar">
          88 -159 143 96 167 callgsubr
          -37 118 -81 694 -392 139 145 93 hintmask 11110011
          160 callgsubr
          -24 95 -9 134 -2 150 rrcurveto
          -82 27 42 -40 56 1 callgsubr
          hvcurveto
          hintmask 11110100
          -39 callgsubr
          hintmask 11110011
          36 callgsubr
          -34 -55 35 76 -6 hvcurveto
          1 62 2 56 5 57 rrcurveto
          hintmask 11110100
          100 callsubr
          hintmask 11111011
          71 14 130 15 125 2 rrcurveto
          -1 -7 -1 -7 -7 -29 callgsubr
          hintmask 11110011
          24 callgsubr
        </CharString>
        <CharString name="bn_b_ra_uukaar">
          88 338 callsubr
          694 -392 138 -116 118 65 116 hintmask 11001010
          160 callgsubr
          -27 107 -8 155 -1 173 24 9 24 8 24 8 -48 callgsubr
          rlineto
          hintmask 11000110
          -36 -11 -33 -12 -35 -14 1 43 2 41 4 42 rrcurveto
          hintmask 11010000
          100 callsubr
          hintmask 11100110
          71 14 130 15 125 2 rrcurveto
          -1 -7 -1 -7 -7 -29 callgsubr
          hintmask 11001010
          24 callgsubr
        </CharString>
        <CharString name="bn_ba">
          222 callsubr
          10 59 hintmask 11000000
          484 138 callsubr
          hintmask 11100000
          22 -3 20 -88 callsubr
          23 25 176 callsubr
          86 callsubr
          hintmask 11000000
          105 callgsubr
          -174 111 rmoveto
          -80 callgsubr
          endchar
        </CharString>
        <CharString name="bn_ba.half">
          222 callsubr
          -71 callgsubr
          -174 77 rmoveto
          -29 37 -40 33 -44 23 38 19 43 17 41 14 rrcurveto
          -6 -44 -3 -45 -54 vvcurveto
          endchar
        </CharString>
        <CharString name="bn_ba_phala">
          -606 -336 355 hstem
          -66 116 vstem
          67 -321 362 callsubr
          vvcurveto
          54 2 37 16 99 vhcurveto
          -108 12 -116 -40 -89 -40 -79 -48 rlinecurve
          3 -50 10 -41 29 -48 81 -8 97 -22 40 -57 40 -3 57 5 34 12 rrcurveto
          -135 85 rmoveto
          -31 26 -44 22 -43 22 37 21 40 18 43 12 -3 -43 0 -39 1 -39 rrcurveto
          endchar
        </CharString>
        <CharString name="bn_bh_la">
          -25 5 151 callsubr
          69 120 197 -64 callsubr
          -6 82 -76 590 -487 98 198 132 hintmask 10111001
          276 531 rmoveto
          hintmask 10110100
          102 callgsubr
          hintmask 10111001
          14 70 101 13 105 hhcurveto
          -105 -568 193 callsubr
          32 20 -21 -31 25 hvcurveto
          hintmask 01111011
          22 -30 -68 callsubr
          29 43 -61 -103 -8 vhcurveto
          49 61 6 15 47 hvcurveto
          15 136 10 141 183 381 callsubr
          320 callgsubr
          -18 callsubr
          -10 -95 -12 -95 rrcurveto
          64 -27 -38 36 -53 hhcurveto
          -30 -22 -24 -40 -12 hvcurveto
          hintmask 10111011
          38 -22 -29 24 -33 hhcurveto
          hintmask 10111001
          -67 -48 -63 -85 -87 47 -44 102 -11 hvcurveto
          19 26 9 48 36 vvcurveto
          endchar
        </CharString>
        <CharString name="bn_bh_ra">
          -25 379 callsubr
          92 120 197 -51 callsubr
          590 -564 121 -44 98 198 132 hintmask 01110011
          276 531 rmoveto
          hintmask 01111000
          102 callgsubr
          hintmask 01110011
          14 70 101 13 105 hhcurveto
          113 -630 rmoveto
          311 callsubr
          7 127 165 381 callsubr
          320 callgsubr
          -18 callsubr
          -8 -107 -16 -85 rrcurveto
          54 -20 -25 25 -37 hhcurveto
          hintmask 10110101
          64 callsubr
          hintmask 01110011
          58 58 33 49 hhcurveto
          202 callsubr
          endchar
        </CharString>
        <CharString name="bn_bh_ra_ukaar">
          176 379 callsubr
          -42 166 -32 120 6 142 53 331 callsubr
          130 140 93 hintmask 0000010011100000
          377 535 rmoveto
          hintmask 0000011000000000
          146 172 -14 -17 82 hvcurveto
          -77 callsubr
          20 -73 -175 15 -148 hhcurveto
          -143 -159 -16 -19 -79 -83 callsubr
          hintmask 0000010011100000
          16 81 154 15 142 hhcurveto
          hintmask 0100010011100000
          12 -634 98 callgsubr
          10 84 6 85 3 99 rrcurveto
          hintmask 0010110011100000
          -73 28 39 -35 53 1 callgsubr
          -39 callgsubr
          36 callgsubr
          -28 -42 24 50 -18 hvcurveto
          5 0 5 5 381 callsubr
          320 callgsubr
          hintmask 0101010011100000
          -18 callsubr
          -8 -107 -16 -85 rrcurveto
          54 -20 -25 25 -37 hhcurveto
          hintmask 1000010101100000
          64 callsubr
          hintmask 0100010011100000
          58 58 33 49 hhcurveto
          202 callsubr
          endchar
        </CharString>
        <CharString name="bn_bh_ra_uukaar">
          176 379 callsubr
          92 120 201 331 callsubr
          132 66 116 hintmask 0001001110000000
          377 535 rmoveto
          hintmask 0001100000000000
          146 172 -14 -17 82 hvcurveto
          -77 callsubr
          20 -73 -175 15 -148 hhcurveto
          -143 -159 -16 -19 -79 -83 callsubr
          hintmask 0001001110000000
          16 81 154 15 142 hhcurveto
          hintmask 0111001110000000
          12 -634 98 callgsubr
          12 104 7 108 2 131 24 9 23 10 24 9 62 callsubr
          -42 -13 -37 -19 -42 -18 rlinecurve
          -4 7 -4 6 -5 6 320 callgsubr
          -18 callsubr
          -8 -107 -16 -85 rrcurveto
          54 -20 -25 25 -37 hhcurveto
          hintmask 1001010110000000
          64 callsubr
          hintmask 0101001110000000
          58 58 33 49 hhcurveto
          hintmask 0111001110000000
          202 callsubr
          endchar
        </CharString>
        <CharString name="bn_bha">
          44 -39 171 71 120 208 31 callsubr
          -570 rmoveto
          149 84 102 146 53 -11 53 -18 45 hvcurveto
          -30 30 -40 33 -33 22 rrcurveto
          -66 -60 -58 -56 -36 hhcurveto
          -14 -8 8 11 29 56 35 51 9 hvcurveto
          -19 40 -57 35 -45 6 rrcurveto
          -41 -17 -43 -44 -69 vvcurveto
          -91 76 -72 85 50 46 25 46 40 vhcurveto
          -5 0 -4 -5 vvcurveto
          -76 -35 -52 -83 -139 -92 146 182 -59 vhcurveto
          -37 -12 -35 -15 -34 -19 rrcurveto
          -190 49 102 -263 239 hhcurveto
          endchar
        </CharString>
        <CharString name="bn_bha.half">
          44 138 128 36 93 136 31 callsubr
          -393 rmoveto
          149 84 73 103 37 -11 38 -18 32 hvcurveto
          -30 21 -40 24 -33 15 rrcurveto
          -47 -60 -58 -39 -36 hhcurveto
          -14 -8 5 8 21 56 24 51 7 hvcurveto
          -19 29 -59 25 -46 4 rrcurveto
          -40 -12 -41 -31 -50 vvcurveto
          -68 77 -55 87 49 45 15 30 39 vhcurveto
          -46 -37 -35 -87 -133 -86 101 126 -58 vhcurveto
          -39 -9 -38 -11 -36 -14 rrcurveto
          -134 49 102 -187 239 hhcurveto
          endchar
        </CharString>
        <CharString name="bn_bisarga">
          -171 -26 102 115 102 27 103 123 102 hstemhm
          55 103 -100 103 119 103 -96 103 hintmask 11111001
          390 240 callsubr
          81 77 96 1 244 callsubr
          hintmask 11010110
          225 -362 rmoveto
          85 -67 65 -87 -96 -75 -75 -96 -84 66 -64 87 95 77 75 94 vhcurveto
          -222 9 rmoveto
          24 15 15 26 43 35 -36 -43 -22 -15 -14 -25 -42 -37 36 40 vhcurveto
          endchar
        </CharString>
        <CharString name="bn_c_ca">
          262 -37 105 -21 93 401 -51 callsubr
          75 -31 132 240 139 113 171 hintmask 10101110
          352 444 rmoveto
          -47 21 -44 25 -19 42 67 5 74 3 75 1 -10 -51 -9 -55 -7 -54 -15 27 -27 19 -38 17 rrcurveto
          487 -169 rmoveto
          72 -35 36 -64 31 vhcurveto
          -56 27 -51 32 -15 60 rrcurveto
          1 1 1 0 vhcurveto
          hintmask 10110110
          102 -7 90 -14 57 -10 -82 callgsubr
          16 -81 -150 25 -157 hhcurveto
          -194 -187 -21 -20 -99 -99 callsubr
          21 4 26 3 28 4 rrcurveto
          hintmask 01101110
          -19 -103 -12 -114 -74 vvcurveto
          -112 79 -65 88 90 76 64 84 40 vhcurveto
          -1 -11 0 -10 -10 vvcurveto
          hintmask 10101110
          329 callsubr
          hintmask 01101110
          -647 -135 rmoveto
          -12 -4 12 27 67 13 105 20 95 hvcurveto
          9 -31 16 -23 23 -18 rrcurveto
          14 -11 12 -8 -15 vvcurveto
          -71 -46 -129 -45 vhcurveto
          hintmask 10101110
          380 -72 71 callsubr
          endchar
        </CharString>
        <CharString name="bn_c_ch_ba">
          323 -259 458 -152 233 callgsubr
          250 502 -319 134 8 140 hintmask 0111010010000000
          352 444 342 callsubr
          hintmask 0111011000000000
          231 callgsubr
          hintmask 0111010010000000
          381 callgsubr
          hintmask 0111011000000000
          -12 callsubr
          hintmask 1011010110000000
          417 -312 82 callgsubr
          hintmask 1011100010000000
          100 20 67 60 102 146 callsubr
          -6 callgsubr
          hintmask 0111010010000000
          42 callgsubr
          hintmask 1011010010000000
          133 callgsubr
          hintmask 1011010110000000
          139 callsubr
        </CharString>
        <CharString name="bn_c_ch_ra">
          323 -216 146 117 233 callgsubr
          87 118 45 502 -316 134 5 140 hintmask 1111011001000000
          352 444 342 callsubr
          hintmask 1111011100000000
          231 callgsubr
          hintmask 1111011001000000
          381 callgsubr
          hintmask 1111011100000000
          -12 callsubr
          hintmask 1111011010000000
          568 -378 rmoveto
          -12 34 -5 52 3 59 30 -24 31 -27 31 150 callgsubr
          hintmask 1111101001000000
          100 20 67 60 102 146 callsubr
          -6 callgsubr
          hintmask 1111011001000000
          42 callgsubr
          -68 -51 -41 -87 -44 -55 8 21 -58 vhcurveto
          14 -148 rlineto
          hintmask 1111011010000000
          58 -22 56 -32 57 -39 -12 -41 -10 -44 -7 -43 rrcurveto
          62 -28 -48 9 -46 -21 -36 -5 -17 -60 callgsubr
          36 32 5 33 hhcurveto
          53 29 -20 -28 10 hvcurveto
          139 callsubr
        </CharString>
        <CharString name="bn_c_cha">
          323 47 233 callgsubr
          250 502 -177 140 hintmask 11101010
          924 -84 rmoveto
          -77 57 -72 49 -70 42 rrcurveto
          110 15 76 62 108 146 callsubr
          hintmask 11110010
          -6 callgsubr
          hintmask 11101010
          42 callgsubr
          -68 -51 -41 -87 -44 -55 8 21 -58 vhcurveto
          21 -177 312 callsubr
          rlinecurve
          33 26 30 32 23 30 rrcurveto
          -572 528 342 callsubr
          hintmask 11101100
          231 callgsubr
          hintmask 11101010
          381 callgsubr
          hintmask 11101100
          -12 callsubr
          endchar
        </CharString>
        <CharString name="bn_c_nya">
          351 -213 322 callsubr
          -134 129 33 85 -57 149 -59 87 -77 49 36 120 4 104 71 -51 callsubr
          68 -24 122 -98 128 316 146 40 56 87 90 hintmask 0011010011010111
          181 234 rmoveto
          -11 -4 10 22 54 12 85 19 77 hvcurveto
          8 -25 15 -18 21 -15 rrcurveto
          13 -9 11 -6 -13 vvcurveto
          -57 -43 -105 -41 vhcurveto
          602 -238 378 callsubr
          hintmask 0011001101010111
          2 29 1 29 31 vvcurveto
          66 43 52 32 47 -55 callgsubr
          hintmask 0011010011010111
          327 callgsubr
          -9 118 rmoveto
          -13 -7 9 11 hvcurveto
          hintmask 0011001011010111
          13 9 10 13 14 10 -11 -15 7 vhcurveto
          hintmask 0011010011010111
          -10 -10 -11 -7 -12 hhcurveto
          -142 -344 rmoveto
          6 53 6 56 4 58 rrcurveto
          -39 34 52 -31 62 hhcurveto
          85 callgsubr
          hintmask 0011010101010111
          292 callgsubr
          hintmask 0011010011100111
          107 -11 -82 65 -91 hhcurveto
          -30 -30 -7 -13 -28 hvcurveto
          -15 12 -19 10 -23 9 -34 13 -31 15 -21 22 rrcurveto
          6 88 99 4 100 hhcurveto
          172 165 -22 -15 90 hvcurveto
          6 16 5 -61 callgsubr
          18 -89 -165 23 -173 hhcurveto
          -214 -207 -19 -22 -109 -99 callsubr
          20 3 22 4 26 3 rrcurveto
          hintmask 0011010011010111
          -15 -77 -9 -80 -55 vvcurveto
          -98 76 -57 85 10 10 1 1 10 vhcurveto
          hintmask 0100100011010111
          -60 24 59 -32 62 hhcurveto
          346 callsubr
          hvcurveto
          -54 callgsubr
          hintmask 1001010011001111
          -20 callgsubr
          hintmask 0101010011010111
          157 callgsubr
          hintmask 0011010011010111
          324 callgsubr
          endchar
        </CharString>
        <CharString name="bn_c_ra">
          -104 -214 153 24 105 460 -64 callsubr
          -63 118 -55 294 callsubr
          -154 123 hintmask 01100110
          202 68 71 callsubr
          112 -314 rmoveto
          hintmask 01100101
          119 callgsubr
          7 126 3 136 1 121 rrcurveto
          hintmask 01100110
          13 37 7 40 39 vvcurveto
          72 -35 36 -64 31 vhcurveto
          -54 26 -50 31 -16 57 rrcurveto
          1 hlineto
          hintmask 01101000
          30 callgsubr
          hintmask 01100101
          22 5 29 5 32 4 rrcurveto
          -22 -123 -15 -141 -90 vvcurveto
          -128 83 -73 93 33 31 9 16 29 vhcurveto
          hintmask 11110001
          -2 -44 -3 -41 -5 -38 rrcurveto
          47 386 callsubr
          -25 -44 -9 -20 hhcurveto
          -27 -20 19 30 -106 callsubr
          -85 53 -56 84 vhcurveto
          52 45 10 48 hhcurveto
          hintmask 01100110
          24 callgsubr
        </CharString>
        <CharString name="bn_ca">
          -104 -37 105 460 -51 callsubr
          294 callsubr
          hintmask 11011000
          469 275 rmoveto
          72 -35 36 -64 31 vhcurveto
          -54 26 -50 31 -16 57 rrcurveto
          1 hlineto
          hintmask 11100000
          30 callgsubr
          hintmask 11011000
          22 5 29 5 32 4 rrcurveto
          -22 -123 -15 -141 -90 vvcurveto
          329 callsubr
          -267 -207 71 callsubr
          endchar
        </CharString>
        <CharString name="bn_ca.half">
          -104 139 72 317 -51 callsubr
          294 callsubr
          hintmask 11011000
          469 353 rmoveto
          50 -35 25 -64 21 vhcurveto
          -55 18 -50 22 -16 39 rrcurveto
          2 hlineto
          hintmask 11100000
          30 callgsubr
          hintmask 11011000
          22 5 29 5 32 4 rrcurveto
          -22 -84 -15 -95 -62 vvcurveto
          -88 83 -50 93 139 108 109 105 vhcurveto
          -267 -142 rmoveto
          -13 -4 10 21 52 14 82 22 75 hvcurveto
          8 -25 18 -17 24 -15 rrcurveto
          14 -9 13 -6 -12 vvcurveto
          -55 -49 -101 -47 vhcurveto
          endchar
        </CharString>
        <CharString name="bn_ch_ba">
          -46 -259 458 36 81 216 -51 callsubr
          54 -9 141 53 134 8 140 hintmask 01101010
          202 316 2 callsubr
          hintmask 11101110
          37 -488 82 callgsubr
          hintmask 11110010
          100 20 67 61 101 185 callgsubr
          25 1 25 hhcurveto
          23 callgsubr
          15 4 18 3 21 4 rrcurveto
          hintmask 11101010
          -6 -58 -3 -59 -20 vvcurveto
          -90 78 -53 72 81 66 45 61 35 vhcurveto
          3 -10 1 -11 -12 vvcurveto
          133 callgsubr
          hintmask 11101110
          139 callsubr
        </CharString>
        <CharString name="bn_ch_ra">
          -46 -203 143 295 81 216 -64 callsubr
          -48 118 -70 53 -9 141 58 132 5 140 hintmask 11100101
          201 316 2 callsubr
          hintmask 11100110
          188 -554 rmoveto
          -12 34 -5 52 3 59 30 -25 31 -26 31 150 callgsubr
          hintmask 11101001
          100 20 67 61 101 185 callgsubr
          26 1 25 hhcurveto
          23 callgsubr
          14 4 18 3 21 4 rrcurveto
          hintmask 11100101
          -6 -59 -3 -58 188 callgsubr
          14 -148 rlineto
          hintmask 11100110
          58 -22 56 -32 57 -39 -11 -37 -10 -42 -6 -39 rrcurveto
          hintmask 11110001
          61 -22 -29 -54 callsubr
          hintmask 11100110
          139 callsubr
        </CharString>
        <CharString name="bn_cha">
          -46 235 81 216 -51 callsubr
          54 -9 141 195 140 hintmask 11011000
          202 316 2 callsubr
          266 -488 rmoveto
          33 26 30 32 23 30 -77 57 -72 49 -70 42 rrcurveto
          110 15 76 62 108 185 callgsubr
          25 1 25 hhcurveto
          113 103 -13 -15 58 hvcurveto
          5 17 6 28 30 vvcurveto
          21 -3 24 -6 15 vhcurveto
          18 -51 -111 14 -114 hhcurveto
          hintmask 11101000
          -114 -121 -14 -18 45 callgsubr
          15 4 18 3 21 4 rrcurveto
          hintmask 11011000
          -6 -58 -3 -59 188 callgsubr
          21 -177 312 callsubr
          rlinecurve
          endchar
        </CharString>
        <CharString name="bn_cha.half">
          -46 324 57 151 -51 callsubr
          53 -8 141 195 140 hintmask 11011000
          202 381 rmoveto
          -13 -3 6 14 17 3 28 5 29 hvcurveto
          15 -9 20 -8 23 -5 rrcurveto
          -38 -29 -34 -21 vhcurveto
          266 -342 rmoveto
          33 18 30 22 23 22 -73 37 -68 33 -66 28 rrcurveto
          103 12 71 45 78 vvcurveto
          66 -55 58 -64 36 vhcurveto
          -71 6 -76 12 -42 18 rrcurveto
          1 24 24 1 25 hhcurveto
          hintmask 11101000
          23 callgsubr
          14 4 18 3 21 4 rrcurveto
          hintmask 11011000
          -5 -39 -3 -39 -13 vvcurveto
          -63 78 -37 72 81 66 31 43 35 vhcurveto
          3 -7 1 -7 -9 vvcurveto
          -47 -51 -29 -87 -44 -55 5 15 -58 vhcurveto
          21 -124 120 -32 122 -50 119 -74 rlinecurve
          endchar
        </CharString>
        <CharString name="bn_chandrabindu">
          -606 686 118 34 130 hstem
          -55 126 vstem
          71 902 rmoveto
          36 -25 30 -39 -35 -27 -29 -37 -34 25 -30 39 34 28 29 35 vhcurveto
          99 -54 rmoveto
          -76 24 rlineto
          -39 -12 -28 -29 -44 hhcurveto
          -36 -36 24 31 -8 hvcurveto
          -108 -27 rlineto
          -82 7 69 -64 90 hhcurveto
          91 74 68 94 17 hvcurveto
          endchar
        </CharString>
        <CharString name="bn_currency1">
          -8 -54 659 hstem
          50 545 242 callgsubr
          -121 -263 -147 -165 -171 -65 rrcurveto
          endchar
        </CharString>
        <CharString name="bn_currency16">
          -106 159 120 198 120 hstem
          51 96 206 96 vstem
          449 410 rmoveto
          123 -64 64 -116 -151 -67 -138 -113 -123 65 -64 115 151 67 137 114 vhcurveto
          -302 -48 rmoveto
          67 50 48 69 53 34 -29 -55 -67 -50 -47 -68 -54 -34 28 55 vhcurveto
          endchar
        </CharString>
        <CharString name="bn_currency2">
          -8 232 123 72 121 hstem
          -22 85 193 72 242 callgsubr
          -49 -107 -54 -91 -58 -75 rrcurveto
          1 vlineto
          150 -116 65 -74 -99 -61 -58 -80 -98 73 -80 199 callsubr
          vhcurveto
          12 callsubr
          -33 -21 16 18 21 26 17 36 52 79 -35 -68 -112 -125 -62 -81 -38 hvcurveto
          endchar
        </CharString>
        <CharString name="bn_currency3">
          -8 -15 102 356 85 hstemhm
          -3 160 -140 125 85 133 hintmask 11011000
          186 443 rmoveto
          24 17 -19 -21 hvcurveto
          hintmask 11101000
          -107 -230 -22 -139 vvcurveto
          -71 85 -79 128 189 159 154 437 37 vhcurveto
          -34 13 -36 9 -36 7 rrcurveto
          -301 -25 -158 -217 -113 hhcurveto
          -23 -13 11 19 hvcurveto
          61 203 30 161 vvcurveto
          92 -86 67 -110 vhcurveto
          hintmask 11011000
          -81 -66 -63 -74 -22 7 -26 3 -4 hvcurveto
          36 -8 55 1 42 6 rrcurveto
          -11 19 -7 24 17 vvcurveto
          28 15 17 29 vhcurveto
          endchar
        </CharString>
        <CharString name="bn_currency4">
          -281 -81 676 hstem
          41 138 vstem
          208 -81 rmoveto
          39 callsubr
          -30 2 -29 1 -26 vhcurveto
          endchar
        </CharString>
        <CharString name="bn_currencyless">
          -66 -37 707 hstem
          98 122 127 127 vstem
          360 -37 270 callsubr
          27 callgsubr
          62 -2 59 -3 57 vhcurveto
          -117 -14 4 -155 -18 -187 -50 -156 rlinecurve
          107 callgsubr
          endchar
        </CharString>
        <CharString name="bn_d_ba">
          -28 345 143 43 139 hstem
          0 228 198 103 vstem
          529 300 rmoveto
          97 -82 91 -79 -39 -52 -18 -31 -52 vhcurveto
          2 25 1 24 22 vvcurveto
          7 0 6 -1 7 vhcurveto
          1 22 23 0 24 hhcurveto
          101 119 -13 -14 62 hvcurveto
          6 335 callsubr
          -55 -120 14 -103 hhcurveto
          -133 -98 -14 -17 -69 hvcurveto
          -7 -13 -4 -24 0 -23 0 -33 5 -28 -14 flex1
          32 6 37 7 43 4 -3 -70 -20 -81 -28 -70 30 -37 58 -30 44 -9 rrcurveto
          42 57 105 79 42 hhcurveto
          21 8 -12 -21 -7 0 -7 -1 -10 hvcurveto
          -101 -35 -134 -71 -50 -39 341 callgsubr
          -15 34 65 -12 52 hhcurveto
          29 100 19 181 166 vvcurveto
          -168 -334 rmoveto
          -17 42 -27 36 -32 28 36 22 41 21 34 13 -9 -54 -12 -57 -14 -51 rrcurveto
          endchar
        </CharString>
        <CharString name="bn_d_bh_ra">
          44 -250 121 -98 123 22 109 504 -51 callsubr
          650 -624 113 42 119 -92 105 114 106 hintmask 0111011010000000
          503 -290 270 callsubr
          -19 109 -9 110 -22 97 -15 12 -17 13 -17 12 rrcurveto
          -1 20 1 20 19 vvcurveto
          90 27 75 29 84 174 callgsubr
          hintmask 1011100000000000
          181 callsubr
          hintmask 1011011010000000
          72 callsubr
          hintmask 1011010110000000
          -32 -40 -35 -22 84 callgsubr
          33 31 9 18 29 vhcurveto
          hintmask 0111011010000000
          3 -40 3 -39 4 -38 rrcurveto
          44 -33 -34 24 -45 hhcurveto
          hintmask 1011011010000000
          -49 -87 -25 -38 hhcurveto
          -35 -27 23 36 21 8 24 7 22 hvcurveto
          10 -25 -37 7 -37 hhcurveto
          -17 -34 -12 -41 -44 vvcurveto
          -87 68 -58 107 vhcurveto
          hintmask 0111011010000000
          74 62 23 66 hhcurveto
          56 14 -34 -29 30 hvcurveto
          endchar
        </CharString>
        <CharString name="bn_d_bha">
          337 callsubr
          0 650 -469 119 -92 105 114 127 -49 105 hintmask 11101010
          385 -260 rmoveto
          hintmask 11101001
          144 81 81 115 42 -11 42 -17 36 hvcurveto
          -4 3 -3 3 -4 3 rrcurveto
          hintmask 11101010
          -10 48 -7 45 44 vvcurveto
          72 14 65 21 62 174 callgsubr
          hintmask 11110000
          181 callsubr
          hintmask 11101010
          72 callsubr
          hintmask 11100101
          -32 -40 -35 -22 84 callgsubr
          44 41 17 31 36 vhcurveto
          228 callgsubr
          hintmask 11101010
          355 callgsubr
        </CharString>
        <CharString name="bn_d_d_ba">
          256 callgsubr
          688 -218 rmoveto
          -16 73 -15 67 62 vvcurveto
          108 19 69 42 74 vhcurveto
          -33 52 -49 41 -60 23 -51 -28 -45 -43 -47 -52 18 57 24 53 25 53 7 callgsubr
          32 48 48 51 53 45 -24 -64 -15 -78 -8 -60 46 -43 39 -11 47 -6 39 46 53 43 57 38 rrcurveto
          -6 -23 -5 -23 -3 -23 -67 -34 -84 -55 -45 -38 339 callsubr
          47 55 15 17 27 hvcurveto
          -158 156 rmoveto
          -27 2 -25 4 -25 vhcurveto
          -19 19 -24 17 -26 13 20 16 23 15 20 12 rrcurveto
          -5 0 -5 -5 vvcurveto
          endchar
        </CharString>
        <CharString name="bn_d_da">
          256 callgsubr
          675 -168 rmoveto
          -12 54 -6 51 47 vvcurveto
          99 22 63 39 69 vhcurveto
          -33 52 -49 41 -60 23 -50 -27 -48 -36 -47 -46 18 60 25 55 26 54 7 callgsubr
          38 56 57 60 64 49 -37 -79 -25 -110 -11 -80 33 -32 62 -28 50 -7 28 51 51 55 57 46 rrcurveto
          -17 -61 -9 -69 -60 vvcurveto
          -50 6 -46 10 -42 vhcurveto
          47 55 15 17 27 hvcurveto
          endchar
        </CharString>
        <CharString name="bn_d_dh_ba">
          105 355 141 39 -51 callsubr
          207 154 113 -75 99 39 117 hintmask 01110100
          506 -223 rmoveto
          -20 49 -12 82 80 vvcurveto
          61 7 70 15 68 vhcurveto
          16 5 17 4 17 5 rrcurveto
          -6 -50 -3 -48 -45 vvcurveto
          -72 8 -65 17 -61 vhcurveto
          51 49 15 19 33 hvcurveto
          -28 64 -13 68 80 vvcurveto
          40 3 44 7 48 vhcurveto
          hintmask 11101100
          -98 112 -23 -7 -22 -7 -23 -9 rlinecurve
          90 -10 -75 79 -73 hhcurveto
          -36 -49 -18 -31 -50 hvcurveto
          1 22 1 21 20 7 0 7 6 vvcurveto
          3 44 48 2 50 93 callgsubr
          29 6 34 5 38 5 -3 -65 -17 -76 -25 -65 28 -39 52 -27 40 -10 rrcurveto
          42 54 100 75 40 hhcurveto
          21 8 -13 -21 hvcurveto
          -3 0 -3 -4 vvcurveto
          -105 -42 -121 -65 -58 -41 4 -47 15 -38 26 -45 24 -4 23 -8 21 -12 -28 -19 -25 -18 -19 -16 339 callsubr
          hintmask 01110100
          39 57 9 22 41 hvcurveto
          -212 273 rmoveto
          -13 16 -13 14 -15 12 38 24 42 23 45 21 -6 -23 -5 -24 -3 -24 -22 -11 -24 -13 -24 -15 rrcurveto
          67 -104 rmoveto
          -32 2 -42 2 -39 vhcurveto
          -21 30 -31 25 -36 18 28 21 32 21 24 12 rrcurveto
          -5 0 -4 -5 vvcurveto
          endchar
        </CharString>
        <CharString name="bn_d_dha">
          105 343 145 47 139 hstem
          0 222 177 102 43 116 vstem
          544 74 rmoveto
          -75 5 -69 13 -67 vhcurveto
          52 50 9 15 33 hvcurveto
          -25 74 -12 74 89 vvcurveto
          31 1 32 3 34 vhcurveto
          -98 112 -23 -7 -21 -7 -21 -8 rlinecurve
          93 -6 -80 84 -75 hhcurveto
          -33 -43 -15 -26 -45 hvcurveto
          2 23 1 21 21 vvcurveto
          6 0 7 -1 6 vhcurveto
          3 41 42 1 45 93 callgsubr
          30 6 36 6 40 5 -4 -68 -20 -78 -28 -69 28 -40 56 -32 41 -10 rrcurveto
          40 51 104 79 38 hhcurveto
          21 6 -12 -21 -5 0 -6 -1 -7 hvcurveto
          -112 -46 -101 -53 -70 -50 315 callsubr
          -50 33 -69 rrcurveto
          283 callsubr
          21 72 16 115 7 121 17 6 17 6 16 5 rrcurveto
          -2 -36 -1 -35 -33 vvcurveto
          -208 -106 rmoveto
          -16 40 -27 36 -31 28 33 20 38 20 38 18 -9 -53 -11 -58 -15 -51 rrcurveto
          endchar
        </CharString>
        <CharString name="bn_d_ga">
          452 354 239 callsubr
          -126 -64 callsubr
          100 120 127 127 38 269 callgsubr
          hintmask 1011110100000000
          963 175 callgsubr
          hintmask 1101110010000000
          26 callgsubr
          -63 -50 -31 -49 -31 hvcurveto
          2 0 1 2 vvcurveto
          hintmask 1011111100000000
          22 -3 21 -6 14 vhcurveto
          17 -48 -113 14 -85 hhcurveto
          -11 callsubr
          179 callsubr
          rrcurveto
          -18 -65 -10 -73 -71 vvcurveto
          -46 5 -46 8 -42 vhcurveto
          118 callsubr
          27 callgsubr
          13 0 12 -1 13 vhcurveto
          23 23 1 25 hhcurveto
          76 97 -10 -12 57 hvcurveto
          -5 -22 -3 -23 -24 vvcurveto
          -22 4 -23 5 -22 vhcurveto
          25 callgsubr
          hintmask 1101110100000000
          262 callgsubr
          hintmask 1011110100000000
          -11 38 76 -8 52 hhcurveto
          endchar
        </CharString>
        <CharString name="bn_d_gha">
          452 535 -64 callsubr
          100 120 127 127 30 132 179 145 7 91 hintmask 11101000
          489 -7 rmoveto
          27 callgsubr
          11 0 12 -1 10 vhcurveto
          hintmask 11111000
          6 95 106 4 104 hhcurveto
          -14 -21 -6 -28 -25 149 callgsubr
          79 326 callsubr
          hintmask 11100100
          35 -4 31 -3 25 -4 -2 callgsubr
          20 -95 -229 15 -193 hhcurveto
          -204 -226 -13 -22 -111 -83 callsubr
          28 4 34 4 38 4 -5 -113 -24 -130 -37 -115 107 callgsubr
          hintmask 11101000
          118 callsubr
          310 298 168 callsubr
          hintmask 11111000
          254 callsubr
          -20 -20 12 28 30 24 35 75 23 hvcurveto
          36 -1 35 -2 34 -2 rrcurveto
          -18 -149 -7 -107 -164 296 callsubr
          endchar
        </CharString>
        <CharString name="bn_d_ma">
          402 -152 118 59 77 439 -51 callsubr
          1008 -807 119 -52 83 103 94 159 143 hintmask 00101011
          600 391 rmoveto
          -34 52 -48 41 -60 23 -48 -26 -46 -34 -46 -43 rrcurveto
          1 31 1 29 28 15 -1 15 14 vvcurveto
          3 61 64 2 66 hhcurveto
          78 78 -3 -5 71 hvcurveto
          385 callgsubr
          -143 -102 vvcurveto
          -119 10 -89 14 -71 vhcurveto
          -53 53 -72 50 -58 34 -6 89 12 171 46 97 rrcurveto
          171 -641 -60 callsubr
          vvcurveto
          80 3 77 5 70 vhcurveto
          hintmask 00110000
          59 -5 102 callsubr
          21 -103 -193 20 -202 hhcurveto
          hintmask 01101011
          -206 -196 -19 -22 -108 -99 callsubr
          51 8 69 9 81 7 -4 -99 -17 -114 -36 -98 33 -34 62 -28 50 -8 41 60 64 66 69 50 -14 -62 2 -97 3 -78 rrcurveto
          10 -19 -22 6 -22 hhcurveto
          hintmask 11100111
          -73 -50 -56 -74 -68 54 -56 81 69 52 33 59 13 hvcurveto
          92 -40 92 -57 46 -81 rrcurveto
          hintmask 00101011
          238 callgsubr
          hintmask 11100111
          -380 216 229 callsubr
        </CharString>
        <CharString name="bn_d_na">
          70 -257 123 80 130 455 -51 callsubr
          676 -491 85 -33 362 callgsubr
          hintmask 11101010
          405 -244 rmoveto
          12 callsubr
          -36 -18 13 24 393 callgsubr
          91 66 -62 -123 29 hvcurveto
          118 callsubr
          -26 131 -13 114 111 330 callsubr
          hintmask 11100110
          263 callsubr
          hintmask 11110000
          115 -1 139 -8 67 -18 rrcurveto
          70 callgsubr
          23 -66 -160 8 -120 hhcurveto
          hintmask 11100110
          -139 -115 -12 -19 -76 hvcurveto
          -40 callsubr
          60 12 79 10 98 3 88 callsubr
          -46 3 -45 4 -46 vhcurveto
          86 -46 -53 30 -63 hhcurveto
          hintmask 11101010
          -80 -63 -65 -90 91 callgsubr
        </CharString>
        <CharString name="bn_d_ra">
          70 317 callsubr
          461 -64 callsubr
          -2 118 -116 676 -439 362 callgsubr
          hintmask 01110110
          503 -120 rmoveto
          33 69 14 16 27 hvcurveto
          -15 85 -7 78 74 50 callgsubr
          13 0 13 -1 13 vhcurveto
          hintmask 10101000
          116 -1 138 -8 67 -18 rrcurveto
          70 callgsubr
          23 -66 -160 8 -120 hhcurveto
          hintmask 01110110
          -139 -115 -12 -19 -76 hvcurveto
          -40 callsubr
          59 12 80 10 98 3 40 callsubr
          hintmask 10110110
          -52 -92 -39 -40 hhcurveto
          -38 -29 27 42 -106 callsubr
          -95 72 -63 113 vhcurveto
          hintmask 01110110
          176 callgsubr
        </CharString>
        <CharString name="bn_d_ra_ukaar">
          279 317 callsubr
          10 167 callgsubr
          -2 118 121 362 callgsubr
          61 214 -108 93 hintmask 0100111101000000
          503 139 callgsubr
          37 3 35 4 34 vhcurveto
          hintmask 0111111101000000
          -116 27 47 -57 66 1 callgsubr
          hvcurveto
          hintmask 0101111110000000
          -39 callgsubr
          hintmask 0111111101000000
          36 callgsubr
          -31 -49 29 63 -13 hvcurveto
          3 13 4 14 4 13 59 callgsubr
          15 382 callsubr
          1 27 27 0 26 hhcurveto
          hintmask 0100111110000000
          163 195 -12 -19 92 hvcurveto
          -77 callsubr
          22 -81 -199 13 -166 hhcurveto
          -165 -184 -13 -22 -90 -83 callsubr
          56 11 86 9 95 5 40 callsubr
          hintmask 1000111101000000
          -52 -92 -39 -40 hhcurveto
          -38 -29 27 42 -106 callsubr
          -95 72 -63 113 vhcurveto
          hintmask 0100111101000000
          176 callgsubr
        </CharString>
        <CharString name="bn_d_ra_uukaar">
          279 317 callsubr
          465 -64 callsubr
          -2 118 -116 885 -648 362 callgsubr
          93 116 hintmask 01110111
          503 139 callgsubr
          15 0 16 1 14 vhcurveto
          31 12 33 15 33 12 62 callsubr
          -37 -11 -32 -16 -36 -16 rlinecurve
          3 9 2 10 3 9 59 callgsubr
          15 382 callsubr
          1 27 27 0 26 hhcurveto
          hintmask 01101000
          163 195 -12 -19 92 hvcurveto
          -77 callsubr
          22 -81 -199 13 -166 hhcurveto
          hintmask 01110111
          -165 -184 -13 -22 -90 -83 callsubr
          56 11 86 9 95 5 40 callsubr
          hintmask 10110111
          -52 -92 -39 -40 hhcurveto
          -38 -29 27 42 -106 callsubr
          -95 72 -63 113 vhcurveto
          hintmask 01110111
          176 callgsubr
        </CharString>
        <CharString name="bn_da">
          -66 347 callgsubr
          0 540 -440 120 127 127 hintmask 10110000
          489 -7 rmoveto
          27 callgsubr
          13 0 12 -1 13 vhcurveto
          23 23 1 25 hhcurveto
          hintmask 11000000
          43 callgsubr
          hintmask 10110000
          -11 callsubr
          179 callsubr
          rrcurveto
          -18 -65 -10 -73 -71 vvcurveto
          -46 5 -46 8 -42 vhcurveto
          118 callsubr
          endchar
        </CharString>
        <CharString name="bn_da.half">
          -66 531 139 hstem
          0 220 124 130 vstem
          489 160 rmoveto
          -10 39 -5 35 33 vvcurveto
          58 14 52 21 49 vhcurveto
          -44 41 -44 25 -60 16 -49 -21 -48 -26 -48 -35 rrcurveto
          3 28 1 26 26 vvcurveto
          8 0 8 -1 8 vhcurveto
          23 23 1 25 hhcurveto
          43 callgsubr
          -124 -103 -14 -17 -67 hvcurveto
          -40 callsubr
          28 6 34 5 38 5 -6 -77 -24 -90 -36 -79 36 -17 74 -16 54 -3 39 44 62 46 68 36 rrcurveto
          -15 -41 -8 -46 -45 vvcurveto
          -31 5 -32 8 -29 vhcurveto
          34 70 9 11 28 hvcurveto
          endchar
        </CharString>
        <CharString name="bn_da_ukaar">
          -66 -260 107 67 111 506 352 callgsubr
          hintmask 11100100
          434 -264 rmoveto
          180 callgsubr
          -98 69 rcurveline
          58 110 34 166 17 209 -44 58 -44 37 -60 23 10 callsubr
          -17 -150 -24 -112 -34 -74 rrcurveto
          39 -34 -37 27 -50 hhcurveto
          hintmask 11101000
          -72 -58 -59 -79 -89 56 -58 91 62 52 23 44 43 hvcurveto
          -184 40 311 callgsubr
          24 26 -14 -24 25 hvcurveto
          -19 -22 -25 -10 -28 hhcurveto
          endchar
        </CharString>
        <CharString name="bn_da_uukaar">
          -66 -260 107 101 120 463 352 callgsubr
          hintmask 11101000
          498 -176 rmoveto
          -246 80 rlineto
          -42 -19 -37 -15 -40 hhcurveto
          -25 -19 17 27 34 44 23 69 48 64 -14 -23 67 hvcurveto
          44 125 44 140 17 202 -44 58 -44 37 -60 23 rrcurveto
          hintmask 11100100
          10 callsubr
          -12 -108 -16 -89 -21 -68 rrcurveto
          25 -31 -34 13 -48 hhcurveto
          hintmask 11101000
          -91 -73 -74 -97 -95 56 -62 91 58 41 7 34 31 hvcurveto
          121 -45 180 callgsubr
          rlinecurve
          endchar
        </CharString>
        <CharString name="bn_danda">
          -20 -106 701 hstem
          302 138 vstem
          469 -81 rmoveto
          39 callsubr
          -58 7 -54 2 -50 vhcurveto
          225 callsubr
          endchar
        </CharString>
        <CharString name="bn_dd_dda">
          453 -39 163 74 133 204 -51 callsubr
          1059 -837 123 309 123 162 98 hintmask 11101110
          830 124 rmoveto
          -105 -83 88 126 -53 hvcurveto
          -6 23 -8 22 -9 19 32 callgsubr
          1 49 52 1 55 hhcurveto
          41 40 0 -1 39 hvcurveto
          -8 -45 -5 -42 -28 74 callgsubr
          vhcurveto
          -12 -163 rmoveto
          144 75 106 151 212 callsubr
          81 24 70 hvcurveto
          91 -5 80 -8 67 -11 0 callsubr
          24 -124 -174 11 -215 hhcurveto
          hintmask 11110000
          -228 -182 -10 -25 -136 hvcurveto
          -8 -13 -31 callsubr
          -32 -17 flex1
          hintmask 11101110
          68 11 77 7 89 5 rrcurveto
          -7 -42 -5 -40 -26 22 callsubr
          167 callsubr
          105 68 56 90 30 hvcurveto
          -84 52 73 -62 104 hhcurveto
          endchar
        </CharString>
        <CharString name="bn_dd_ra">
          21 -224 201 callsubr
          26 250 callsubr
          hstemhm
          -38 118 -80 361 callsubr
          45 123 -6 98 hintmask 0111110110000000
          389 -250 rmoveto
          119 callgsubr
          4 76 3 82 1 74 rrcurveto
          hintmask 1011110101000000
          55 45 29 76 93 vvcurveto
          217 callsubr
          vhcurveto
          32 callgsubr
          hintmask 1011101000000000
          93 -4 80 -51 callgsubr
          hintmask 1011110101000000
          -25 callsubr
          hintmask 1011110110000000
          167 callsubr
          4 hlineto
          hintmask 0111110110000000
          -2 -36 -4 -33 -3 -31 199 callgsubr
          hintmask 1011110101000000
          -39 -69 -18 -31 hhcurveto
          -27 -20 19 30 -106 callsubr
          -83 64 -55 101 vhcurveto
          hintmask 0111110101000000
          275 callgsubr
          hintmask 0111110110000000
          24 callgsubr
        </CharString>
        <CharString name="bn_dda">
          21 -39 250 callsubr
          hstemhm
          0 361 callsubr
          162 98 hintmask 11101100
          386 -39 rmoveto
          247 callsubr
          32 callgsubr
          hintmask 11110000
          93 -4 80 -51 callgsubr
          hintmask 11101100
          -25 callsubr
          167 callsubr
          endchar
        </CharString>
        <CharString name="bn_dda.half">
          21 139 302 callsubr
          138 123 hintmask 11101100
          300 callgsubr
          226 callgsubr
          hintmask 11110000
          92 -4 78 -51 callgsubr
          hintmask 11101100
          213 callgsubr
          -7 -26 -23 -52 301 callsubr
          -130 49 99 -182 228 hhcurveto
          endchar
        </CharString>
        <CharString name="bn_ddh_ra">
          -84 -203 143 23 292 callsubr
          -58 424 -366 295 callgsubr
          hintmask 10110011
          92 callgsubr
          hintmask 11110011
          245 callsubr
          hintmask 10110100
          -59 callsubr
          hintmask 11110011
          20 callsubr
          vhcurveto
          4 hlineto
          hintmask 10111000
          -8 -31 -7 -32 -5 -32 rrcurveto
          62 -21 -30 -54 callsubr
          hintmask 10110011
          139 callsubr
        </CharString>
        <CharString name="bn_ddha">
          -84 -37 292 callsubr
          0 295 callgsubr
          hintmask 11101100
          496 245 rmoveto
          -98 callgsubr
          140 20 162 26 118 vhcurveto
          3 hlineto
          hintmask 11110000
          -59 callsubr
          hintmask 11101100
          20 callsubr
          104 callsubr
          vhcurveto
          endchar
        </CharString>
        <CharString name="bn_ddha.half">
          -84 140 300 callsubr
          115 171 hintmask 11101100
          81 callsubr
          hintmask 11110000
          -59 callsubr
          20 5 27 5 31 5 rrcurveto
          hintmask 11101100
          279 callsubr
          endchar
        </CharString>
        <CharString name="bn_dh_ba">
          389 531 139 -136 136 hstemhm
          26 285 callgsubr
          287 146 10 59 hintmask 10111000
          954 138 callsubr
          hintmask 10111100
          22 -3 20 -4 17 -4 -22 callgsubr
          -110 -117 -24 -36 -81 hvcurveto
          hintmask 01111000
          -37 -17 -17 -26 -9 -58 -33 callgsubr
          79 -56 59 -112 rrcurveto
          105 callgsubr
          -12 68 -5 94 -1 122 9 -50 19 -45 33 -50 98 callsubr
          hintmask 10111000
          105 callgsubr
          -456 446 rmoveto
          2 27 2 15 16 6 rrcurveto
          hintmask 10111100
          31 76 71 10 83 hhcurveto
          23 25 176 callsubr
          -144 -51 -104 -65 -78 -79 rrcurveto
          hintmask 10111000
          29 2 50 3 44 vhcurveto
          282 -335 rmoveto
          -80 callgsubr
          -433 -19 246 callgsubr
        </CharString>
        <CharString name="bn_dh_na">
          -45 -210 123 72 121 428 136 hstemhm
          26 126 -117 85 227 146 -113.5 181.5 hintmask 11101100
          347 110 rmoveto
          -33 51 -48 43 -49 36 43 25 49 22 47 16 -5 -55 -3 -61 -1 -71 rrcurveto
          -92 -313 rmoveto
          12 callsubr
          -33 -21 16 18 21 26 17 36 92 86 -82 -104 13 hvcurveto
          42 52 4 13 41 hvcurveto
          -16 166 1 110 211 vvcurveto
          23 1 62 4 54 vhcurveto
          hintmask 11110010
          4 callgsubr
          78 -18 74 -39 57 -77 rrcurveto
          57 -53 -67 31 -41 hhcurveto
          hintmask 11101100
          -72 -57 -58 -80 91 callgsubr
        </CharString>
        <CharString name="bn_dh_ra">
          -45 227 callgsubr
          -113.5 181.5 hintmask 01100100
          62 callgsubr
          -14 155 5 104 198 vvcurveto
          23 1 62 4 54 vhcurveto
          hintmask 01101010
          4 callgsubr
          90 -21 84 -49 58 -101 rrcurveto
          -1 vlineto
          35 -25 -36 15 -44 hhcurveto
          hintmask 10110100
          -31 -36 -13 -24 -86 callsubr
          hintmask 01100100
          327 callsubr
          355 callsubr
        </CharString>
        <CharString name="bn_dh_ra_ukaar">
          127 -148 348 callsubr
          143 20 166 94 142 82 136 hstemhm
          -4 496 -466 285 callgsubr
          26 214 -104 89 hintmask 0101101101000000
          62 callgsubr
          hintmask 0111101101000000
          -10 106 0 83 105 vvcurveto
          -60 28 37 -30 48 1 callgsubr
          hvcurveto
          hintmask 0101101110000000
          -39 callgsubr
          hintmask 0111101101000000
          109 callsubr
          -25 -37 19 41 -20 hvcurveto
          9 0 9 9 vvcurveto
          24 2 65 4 58 vhcurveto
          350 callgsubr
          rrcurveto
          hintmask 0101101110000000
          152 callsubr
          -26 -6 -61 -49 callsubr
          hintmask 1001110001000000
          -31 -36 -13 -24 -86 callsubr
          hintmask 0101110001000000
          327 callsubr
          hintmask 0101101101000000
          355 callsubr
        </CharString>
        <CharString name="bn_dh_ra_uukaar">
          127 227 callgsubr
          60 116 hintmask 01101110
          62 callgsubr
          -13 143 3 100 1 171 22 9 22 7 21 7 -48 callgsubr
          -33 -10 -30 -11 -32 -13 rlinecurve
          14 1 14 1 13 vhcurveto
          -83 callgsubr
          -53 -4 -47 -26 -6 -61 -49 callsubr
          hintmask 10110110
          -31 -36 -13 -24 -86 callsubr
          hintmask 01101110
          327 callsubr
          355 callsubr
        </CharString>
        <CharString name="bn_dha">
          -45 534 136 hstemhm
          26 285 callgsubr
          -113.5 181.5 hintmask 10100000
          511 -4 rmoveto
          -13 72 -5 102 133 vvcurveto
          23 1 62 4 54 vhcurveto
          hintmask 11010000
          4 callgsubr
          90 -21 79 -56 59 -112 rrcurveto
          hintmask 10100000
          105 callgsubr
          -164 92 246 callgsubr
        </CharString>
        <CharString name="bn_dha.half">
          -45 568 102 hstem
          26 285 callgsubr
          vstem
          511 165 rmoveto
          -13 54 -5 76 100 vvcurveto
          17 1 -24 4 54 vhcurveto
          2 27 2 15 16 6 15 6 16 4 12 68 callgsubr
          -40 -6 -40 -11 -37 -12 -30 -9 -16 -22 -10 -36 -42 -12 -36 -11 -33 -9 rrcurveto
          -6 -23 -18 -7 -20 hhcurveto
          -29 -35 15 24 20 14 11 20 20 20 -10 -20 2 hvcurveto
          43 13 31 18 33 31 rrcurveto
          40 -29 -56 30 -63 hhcurveto
          -107 -54 -48 -68 -46 40 -33 57 -19 hvcurveto
          -24 -11 -24 -13 -24 -15 4 -49 21 -41 40 -45 90 -16 79 -42 59 -84 rrcurveto
          52 70 7 18 45 hvcurveto
          -164 69 rmoveto
          -31 45 -48 39 -52 29 45 20 51 17 49 12 -8 -42 -5 -39 -1 -75 rrcurveto
          endchar
        </CharString>
        <CharString name="bn_doubledanda">
          230 -106 701 hstem
          302 138 112 138 vstem
          719 -81 rmoveto
          39 callsubr
          -58 7 -54 2 -50 vhcurveto
          225 callsubr
          -250 hmoveto
          39 callsubr
          -58 7 -54 2 -50 vhcurveto
          225 callsubr
          endchar
        </CharString>
</ttFont>
